<svg xmlns="http://www.w3.org/2000/svg" width="113" viewBox="0 0 84.75 84.75" height="113" version="1.0"><defs><clipPath id="a"><path d="M0 0h84.5v84.5H0zm0 0"/></clipPath><clipPath id="b"><path d="M7.008 6.836H78v71.453H7.008zm0 0"/></clipPath><clipPath id="c"><path d="M77.977 69.11c-.016-1.844.027-3.778-.086-5.524.097-.426 0-1.988.097-2.672-.043-.48-.027-.965-.097-1.137v-.468c.027-5.055.043-9.942-.028-15.012 0-1.422-.015-2.828-.015-4.25-.028-.367-.043-.75-.059-1.149-.012-1.761.016-3.453.016-5.128.027-1.391.043-2.829.015-4.247 0-.03.012-.015.012 0-.043-1.207-.07-2.957-.043-4.39l-.055-.824v-2.317c.028-2.113.055-4.23.055-6.363 0-2.629 0-5.285.016-7.926v-.64h-.453v.386h.07v.254c0 .285.012.582.012.883 0 .426 0 .863.015 1.305v2.656c0 1.719.016 3.437.07 5.113l-.054-.113c.027.426.027.883.043 1.336 0 .254.012.512.012.781.015 1.621-.043 3.309 0 4.93l-.028-.157c-.015 2.286 0 4.504.016 6.692 0 1.035-.016 2.074 0 3.11-.016 2.284.027 3.82.027 6.12l-.058.059c.199 3.863-.168 8.11.043 12.129l-.07-.281c.112.625-.044 2.425.14 2.199l-.055.71c.242 2.727-.113 4.973.043 8.325l-.043-.21c.028.894.055 1.929.016 2.581 0-.098-.016-.055-.031-.27-.168 2.786.015 5.895.015 8.852l-.086-.34c.028.426.043.977.043 1.575v1.804c-.043 0-.07-.015-.129-.015l-.027.015-.129.059h-.086c-.226-.059-.183-.031-.281-.086-1.164-.016-1.32-.13-2.145-.188 0 0 .012 0 0 .016-.57.102-1.351.043-1.804.027l-.184-.043c-.273-.097-1.324.188-.969.032-2.355.043-5.054.043-7.683.043-.371.07-2.016 0-1.434.113-.656-.145-2.613-.172-3.34-.172.028-.016.059-.027.172-.027-1.406-.184-1.676.168-3-.059-.21.156-2.398-.043-3.152.129-.156-.027-.211-.07-.156-.086-2.387-.027-5.016-.043-7.016-.07-1.719.14-4.164-.059-5.656.129-1.22-.043-3.207-.114-4.914-.043l.171-.028c-1.933.012-4.347.012-5.667.14-.57-.183-1.407-.14-2.247-.198-1.293.086-3.89.058-5.867.14-.297-.082-1.617.043-1.719-.082-1.972.082-4.105.125-6.304.14h-3.34l-1.676-.015-.836-.011h-.398l-.145-.016h.032c.042-1.59.085-3.152.113-4.66-.028-.27-.059-.54-.102-.824a412.597 412.597 0 01-.043-5.938c.016-.469.032-.95 0-1.45v-.312l.032-.07.011-.766c.016.012.043.012.059.07v.157-.14a.518.518 0 01.027.183v-4.008c.016.031.027.059.016.156.129-1.02-.016-1.445-.016-2.101v-.125c0-.23.027-.469.07-.785-.14-.184.016-2.086-.097-2.97v-.312c.027-.054.043-.082.054-.039.032-2.386.043-5.03.075-7.062-.145-1.73.054-4.192-.13-5.668.044-1.234.114-3.223.044-4.942l.027.168c-.016-1.945-.016-4.359-.14-5.695.183-.566.14-1.406.199-2.242-.086-1.293-.059-3.906-.145-5.883.086-.297-.027-1.633.086-1.73a168.312 168.312 0 01-.14-6.336v-3.356l.011-1.676.016-.835v-.399l.015-.14h.141c1.633.042 3.238.082 4.785.124.742-.07 1.578-.21 2.332-.296.07.015.07.027-.101.027 1.082-.027 2.074.101 3.156.07-.016.016-.016.016-.188.043 1.012-.054 2.075.102 3.27 0l.07.031.754-.043c-.015.028-.043.086-.27.086 9.176.04 18.637-.156 28.055-.128l-.355.043 1.832-.07a.796.796 0 01-.184.038c2.344.074 4.77-.039 7.043-.027-.011.016-.355.059-.043.086 1.692-.113 2.715.14 3.551-.086.086.016.129.059-.039.086 4.7-.07 9.516-.07 14.246-.027.54-.032 1.11-.043 1.676-.07v-.4c-3.11-.015-6.234-.015-9.36-.03-9.96-.055-18.68-.196-28.382.074.015-.016-.07-.032.183-.043-2.797.043-5.34-.032-7.98.011l.012-.011c-6.504.156-13.579-.032-19.887.14H7.234v.512c0 1.504.016 3.04.016 4.59-.145 5.168-.102 10.27 0 15.41.07 6.352-.129 12.5-.07 18.836-.075 4.844.082 9.871.125 14.86-.055 1.859-.125 3.777-.114 5.695l.043-.14a10.48 10.48 0 000 1.745c-.015.68-.015 1.38 0 2.074 0 .016 0 .043-.015.055l-.012-.14c-.043.269-.016.582.027.894 0 .27.016.527.016.797l.043 2.187c-.031.555.113 1.93-.102 1.973 0-.48-.097.754-.156-.324-.012.125-.012.437-.012.765 0 .098.012.2.012.286.016.199.043.34.07.296.114.114.2.61.286-.07h.312c.34 0 .684 0 1.024.016.468.011.921.027 1.347.039 8.043.3 15.824.117 23.867-.07 6.817.101 13.637-.125 20.27.015-3.664.028-7.29.086-11.066.13.085-.017.128-.032.214-.044-.285.027-.597.07-.925.055-.086-.012.086-.028.199-.043-1.25-.113-3.649.074-4.43-.012-.355.012-.512.055-.312.098-4.606.027-9.536.058-14.235.144-.226-.015-.27-.043-.199-.086-4.008.184-8.21.114-12.316.086-.157.04.414.055.015.098 1.32.059 2.414-.113 3.606-.027l-.157.043c.868.027.172-.114 1.082-.059.356.043-.085.059.07.07 1.848-.011 3.778.032 5.528-.086.426.102 1.988 0 2.668.102.485-.043.953-.027 1.137-.102 6.476.059 13.098-.039 19.73-.039 3.114-.199 6.82.04 10.512-.031.027 0 .016.016 0 .016 1.207-.043 2.957-.07 4.39-.043l1.223-.086c2.739.058 5.508.086 8.282.086h7.144c-.043.015-.172.027-.441.043a12.14 12.14 0 001.422-.028c.054 0 .113-.015.156-.015h.281v-.172c.086-.043-.07-.028 0-.113v-3.422c.059.21-.027.922.074.824.04-.496-.031-.711-.074-.824 0-2.032.016-4.078.016-6.11.015-1.293.015-2.57.027-3.836.07 3.157.016 6.38 0 9.547.043.156.059-.41.102-.015.054-1.32-.114-2.414-.032-3.606l.043.156c.032-.867-.113-.171-.054-1.082.054-.324.07.13.086-.043m-5.286 8.399h.313a1.018 1.018 0 00-.313 0"/></clipPath></defs><g clip-path="url(#a)"><path fill="#fff" d="M0 0h84.75v84.75H0zm0 0"/><path fill="#080232" d="M0 0h84.75v84.75H0zm0 0"/></g><g clip-path="url(#b)"><g clip-path="url(#c)"><path fill="#fff" d="M7.008 6.98H78.03v71.024H7.008zm0 0"/></g></g><path d="M22.162 29.194c-2.75 0-5.707.515-8.503 1.43-.586.214-.82.613-.61 1.222l.985 3.102c.187.61.613.773 1.222.562 2.16-.797 4.414-1.316 6.364-1.316 2.914 0 5.12 1.152 5.12 4.371v1.57c-1.785-.445-3.546-.68-5.214-.68-5.59 0-9.934 2.676-9.934 8.032 0 5.168 3.945 7.633 8.36 7.633 2.68 0 5.66-.891 7.66-3.594l.586 2.21c.117.587.492.845 1.054.845h2.586c.633 0 .961-.329.961-.965V38.303c0-6.644-4.789-9.11-10.637-9.11zm-.753 21.512c-2.02 0-3.758-1.036-3.758-3.313 0-2.629 2.277-3.664 5.285-3.664 1.223 0 2.488.164 3.805.473v1.054c0 4.086-3.102 5.45-5.332 5.45zM63.15 29.194c-3.148 0-6.437 1.383-8.48 3.922-1.434-2.469-4.086-3.922-7.047-3.922-2.512 0-5.14.89-7.61 3.355l-.515-1.996c-.14-.586-.516-.844-1.055-.844h-2.61c-.608 0-.96.352-.96.961v22.946c0 .636.352.965.96.965h4.134c.636 0 .965-.329.965-.965V39.713c0-3.027 1.996-5.214 5.027-5.214 3.098 0 4.555 2.28 4.555 5.308v13.809c0 .636.328.965.96.965h4.137c.633 0 .961-.329.961-.965V39.713c0-3.027 2.043-5.214 5.028-5.214 2.98 0 4.484 2.28 4.484 5.308v13.809c0 .636.352.965.965.965h4.133c.632 0 .96-.329.96-.965V38.799c0-5.402-3.43-9.605-8.992-9.605zM43.663 56.072a1.83 1.83 0 00-1.64 1.035 1.748 1.748 0 00-1.587-1.035 1.73 1.73 0 00-1.476.836v-.742h-.532v4.742h.532v-2.996a1.345 1.345 0 112.691 0v2.996h.539v-2.996c0-.75.598-1.355 1.355-1.355.731 0 1.329.605 1.329 1.355v2.996h.543v-3.043c0-.988-.79-1.793-1.754-1.793zm6.68.094v2.922c0 .785-.645 1.422-1.45 1.422a1.42 1.42 0 01-1.421-1.422v-2.922h-.543v2.969c0 1.035.824 1.867 1.847 1.867.657 0 1.235-.352 1.567-.879v.785h.539v-4.742zm3.487 4.836c.902 0 1.515-.559 1.535-1.29.02-.75-.414-1.081-.93-1.296-.691-.305-1.523-.41-1.488-1.121.02-.559.531-.777.996-.766.352.016.723.16.957.426l.25-.324c-.258-.3-.797-.559-1.32-.559-.645 0-1.364.39-1.395 1.282-.02.644.344.964.778 1.164.71.363 1.687.437 1.652 1.195-.02.543-.524.836-1.074.824-.54-.008-1.098-.3-1.278-.664l-.304.324c.304.473.968.805 1.62.805zm0 0" fill="#fff"/><path d="M57.025 55.256a.43.43 0 00.426-.426.43.43 0 00-.426-.426.422.422 0 00-.426.426c0 .238.188.426.426.426zm-.277 5.652h.543v-4.742h-.543zm4.201.094c.504 0 .89-.16 1.234-.445v-.532c-.305.313-.695.504-1.234.504-1.09 0-1.649-.87-1.649-1.992 0-1.117.559-1.992 1.649-1.992.539 0 .918.191 1.234.516v-.543a1.853 1.853 0 00-1.234-.446c-1.414 0-2.18 1.055-2.18 2.465 0 1.414.766 2.465 2.18 2.465zm6.435-.484c-.246 0-.379-.13-.379-.38v-2.3c0-1.094-.652-1.766-1.808-1.766-1.008 0-1.66.512-1.86 1.262l.485.04c.207-.552.691-.876 1.363-.876.816 0 1.289.484 1.308 1.215-.054.324-.312.398-.605.398h-.856c-1.269 0-1.894.559-1.894 1.442 0 .89.625 1.449 1.527 1.449.711 0 1.336-.352 1.828-.918v.121c.04.457.286.703.739.703h.25v-.39zm-2.586.039c-.644 0-1.101-.399-1.101-1.043 0-.625.425-1.032 1.355-1.032h.855c.2 0 .446-.046.586-.265v1.258c-.378.695-1.05 1.082-1.695 1.082zm5.677-4.485c-1.367 0-2.133 1.07-2.133 2.465 0 1.387.758 2.465 2.16 2.465.856 0 1.555-.406 1.965-1.098l-.484-.086c-.352.485-.89.758-1.508.758-1.043 0-1.566-.777-1.601-1.86h3.64v-.112c.02-1.47-.683-2.532-2.039-2.532zm0 .438c1.016 0 1.488.75 1.535 1.828h-3.136c.035-1.05.586-1.828 1.601-1.828zm-53.798 4.008c-.246 0-.379-.13-.379-.38v-2.3c0-1.094-.652-1.766-1.808-1.766-1.008 0-1.66.512-1.86 1.262l.485.04c.207-.552.691-.876 1.363-.876.816 0 1.289.484 1.308 1.215-.054.324-.312.398-.605.398h-.855c-1.27 0-1.895.559-1.895 1.442 0 .89.625 1.449 1.527 1.449.711 0 1.336-.352 1.828-.918v.121c.04.457.286.703.739.703h.25v-.39zm-2.586.039c-.644 0-1.101-.399-1.101-1.043 0-.625.425-1.032 1.355-1.032h.856c.199 0 .445-.046.585-.265v1.258c-.378.695-1.05 1.082-1.695 1.082zm9.111-4.485a1.83 1.83 0 00-1.64 1.035 1.748 1.748 0 00-1.587-1.035 1.73 1.73 0 00-1.476.836v-.742h-.532v4.742h.532v-2.996a1.345 1.345 0 112.691 0v2.996h.54v-2.996c0-.75.597-1.355 1.355-1.355.73 0 1.328.605 1.328 1.355v2.996h.543v-3.043c0-.988-.79-1.793-1.754-1.793zm3.703-.816a.43.43 0 00.426-.426.43.43 0 00-.426-.426.422.422 0 00-.425.426c0 .238.187.426.425.426zm-.277 5.652h.543v-4.742h-.543zm4.202.094c.503 0 .89-.16 1.233-.445v-.532c-.304.313-.695.504-1.234.504-1.09 0-1.648-.87-1.648-1.992 0-1.117.558-1.992 1.648-1.992.54 0 .918.191 1.234.516v-.543a1.853 1.853 0 00-1.234-.446c-1.414 0-2.18 1.055-2.18 2.465 0 1.414.766 2.465 2.18 2.465zm2.919-5.746a.43.43 0 00.426-.426.43.43 0 00-.426-.426.422.422 0 00-.426.426c0 .238.188.426.426.426zm-.277 5.652h.543v-4.742h-.543zm0 0" fill="#fff"/></svg>