<svg xmlns="http://www.w3.org/2000/svg" width="160" viewBox="0 0 84.75 84.75" height="160" version="1.0"><defs><clipPath id="a"><path d="M0 0h84.5v84.5H0zm0 0"/></clipPath></defs><g clip-path="url(#a)"><path fill="#fff" d="M0 0h84.75v361.5H0zm0 0"/><path fill="#fff" d="M0 0h84.75v84.75H0zm0 0"/><path fill="#080232" d="M0 0h84.75v84.75H0zm0 0"/></g><path d="M22.162 29.194c-2.75 0-5.707.515-8.503 1.43-.586.214-.82.613-.61 1.222l.985 3.102c.187.61.613.773 1.222.562 2.16-.797 4.414-1.316 6.364-1.316 2.914 0 5.12 1.152 5.12 4.371v1.57c-1.785-.445-3.546-.68-5.214-.68-5.59 0-9.934 2.676-9.934 8.032 0 5.168 3.945 7.633 8.36 7.633 2.68 0 5.66-.891 7.66-3.594l.586 2.21c.117.587.492.845 1.054.845h2.586c.633 0 .961-.329.961-.965V38.303c0-6.644-4.789-9.11-10.637-9.11zm-.753 21.512c-2.02 0-3.758-1.036-3.758-3.313 0-2.629 2.277-3.664 5.285-3.664 1.223 0 2.488.164 3.805.473v1.054c0 4.086-3.102 5.45-5.332 5.45zM63.15 29.194c-3.148 0-6.437 1.383-8.48 3.922-1.434-2.469-4.086-3.922-7.047-3.922-2.512 0-5.14.89-7.61 3.355l-.515-1.996c-.14-.586-.516-.844-1.055-.844h-2.61c-.608 0-.96.352-.96.961v22.946c0 .636.352.965.96.965h4.134c.636 0 .965-.329.965-.965V39.713c0-3.027 1.996-5.214 5.027-5.214 3.098 0 4.555 2.28 4.555 5.308v13.809c0 .636.328.965.96.965h4.137c.633 0 .961-.329.961-.965V39.713c0-3.027 2.043-5.214 5.028-5.214 2.98 0 4.484 2.28 4.484 5.308v13.809c0 .636.352.965.965.965h4.133c.632 0 .96-.329.96-.965V38.799c0-5.402-3.43-9.605-8.992-9.605zM43.663 56.072a1.83 1.83 0 00-1.64 1.035 1.748 1.748 0 00-1.587-1.035 1.73 1.73 0 00-1.476.836v-.742h-.532v4.742h.532v-2.996a1.345 1.345 0 112.691 0v2.996h.539v-2.996c0-.75.598-1.355 1.355-1.355.731 0 1.329.605 1.329 1.355v2.996h.543v-3.043c0-.988-.79-1.793-1.754-1.793zm6.68.094v2.922c0 .785-.645 1.422-1.45 1.422a1.42 1.42 0 01-1.421-1.422v-2.922h-.543v2.969c0 1.035.824 1.867 1.847 1.867.657 0 1.235-.352 1.567-.879v.785h.539v-4.742zm3.487 4.836c.902 0 1.515-.559 1.535-1.29.02-.75-.414-1.081-.93-1.296-.691-.305-1.523-.41-1.488-1.121.02-.559.531-.777.996-.766.352.016.723.16.957.426l.25-.324c-.258-.3-.797-.559-1.32-.559-.645 0-1.364.39-1.395 1.282-.02.644.344.964.778 1.164.71.363 1.687.437 1.652 1.195-.02.543-.524.836-1.074.824-.54-.008-1.098-.3-1.278-.664l-.304.324c.304.473.968.805 1.62.805zm0 0" fill="#fff"/><path d="M57.025 55.256a.43.43 0 00.426-.426.43.43 0 00-.426-.426.422.422 0 00-.426.426c0 .238.188.426.426.426zm-.277 5.652h.543v-4.742h-.543zm4.201.094c.504 0 .89-.16 1.234-.445v-.532c-.305.313-.695.504-1.234.504-1.09 0-1.649-.87-1.649-1.992 0-1.117.559-1.992 1.649-1.992.539 0 .918.191 1.234.516v-.543a1.853 1.853 0 00-1.234-.446c-1.414 0-2.18 1.055-2.18 2.465 0 1.414.766 2.465 2.18 2.465zm6.435-.484c-.246 0-.379-.13-.379-.38v-2.3c0-1.094-.652-1.766-1.808-1.766-1.008 0-1.66.512-1.86 1.262l.485.039c.207-.55.691-.875 1.363-.875.816 0 1.289.484 1.308 1.215-.054.324-.312.398-.605.398h-.856c-1.269 0-1.894.559-1.894 1.442 0 .89.625 1.449 1.527 1.449.711 0 1.336-.352 1.828-.918v.121c.04.457.286.703.739.703h.25v-.39zm-2.586.039c-.644 0-1.101-.399-1.101-1.043 0-.625.425-1.032 1.355-1.032h.855c.2 0 .446-.046.586-.265v1.258c-.378.695-1.05 1.082-1.695 1.082zm5.677-4.485c-1.367 0-2.133 1.07-2.133 2.465 0 1.387.758 2.465 2.16 2.465.856 0 1.555-.406 1.965-1.098l-.484-.086c-.352.485-.89.758-1.508.758-1.043 0-1.566-.777-1.601-1.86h3.64v-.112c.02-1.47-.683-2.532-2.039-2.532zm0 .438c1.016 0 1.488.75 1.535 1.828h-3.136c.035-1.05.586-1.828 1.601-1.828zm-53.798 4.008c-.246 0-.379-.13-.379-.38v-2.3c0-1.094-.652-1.766-1.808-1.766-1.008 0-1.66.512-1.86 1.262l.485.039c.207-.55.691-.875 1.363-.875.816 0 1.289.484 1.308 1.215-.054.324-.312.398-.605.398h-.855c-1.27 0-1.895.559-1.895 1.442 0 .89.625 1.449 1.527 1.449.711 0 1.336-.352 1.828-.918v.121c.04.457.286.703.739.703h.25v-.39zm-2.586.039c-.644 0-1.101-.399-1.101-1.043 0-.625.425-1.032 1.355-1.032h.856c.199 0 .445-.046.585-.265v1.258c-.378.695-1.05 1.082-1.695 1.082zm9.111-4.485a1.83 1.83 0 00-1.64 1.035 1.748 1.748 0 00-1.587-1.035 1.73 1.73 0 00-1.476.836v-.742h-.532v4.742h.532v-2.996a1.345 1.345 0 112.691 0v2.996h.54v-2.996c0-.75.597-1.355 1.355-1.355.73 0 1.328.605 1.328 1.355v2.996h.543v-3.043c0-.988-.79-1.793-1.754-1.793zm3.703-.816a.43.43 0 00.426-.426.43.43 0 00-.426-.426.422.422 0 00-.425.426c0 .238.187.426.425.426zm-.277 5.652h.543v-4.742h-.543zm4.202.094c.503 0 .89-.16 1.233-.445v-.532c-.304.313-.695.504-1.234.504-1.09 0-1.648-.87-1.648-1.992 0-1.117.558-1.992 1.648-1.992.54 0 .918.191 1.234.516v-.543a1.853 1.853 0 00-1.234-.446c-1.414 0-2.18 1.055-2.18 2.465 0 1.414.766 2.465 2.18 2.465zm2.919-5.746a.43.43 0 00.426-.426.43.43 0 00-.426-.426.422.422 0 00-.426.426c0 .238.188.426.426.426zm-.277 5.652h.543v-4.742h-.543zm0 0" fill="#fff"/></svg>