<svg version="1.0" xmlns="http://www.w3.org/2000/svg" width="1209.333" height="1209.333" viewBox="0 0 907 907"><g fill="#080232"><path d="M0 453.5V907h907V0H0v453.5zm225.5-170.6c16.2 2.7 28 6.3 40.1 12 33.4 15.9 51.4 39.5 59.1 77.4 1.5 7.3 1.7 20.6 2 118.7.2 87.5.1 111-.9 112.9-.7 1.3-2.6 3.4-4.1 4.5-2.7 2-4.1 2.1-24 2.1-29.3 0-27.8 1-34.2-24l-3.8-15-11.6 11.5c-8 7.9-14.1 13-19.6 16.2-36.5 21.6-85.5 24.4-123.7 7-28.7-13-47-37.2-52.3-69.1-2.3-13.7-1.6-35 1.5-46.6 11.8-44.4 51.1-71.5 110.8-76.4 20-1.6 56.1 1.4 75.3 6.4 3.1.8 6.2 1.5 6.9 1.5 2 0 .7-31.9-1.5-39-5.6-17.9-18.1-29.5-36.9-34.4-9.2-2.4-26.2-3.9-36.1-3.1-19 1.4-44.5 6.9-65.4 14-14.6 4.9-19.9 4.7-22.7-.7-2.6-5-15.4-46.5-15.4-49.8 0-5.2 4.9-9.1 15.4-12.4 23.2-7.2 49.5-12.6 74-15.1 18.3-2 51.2-1.2 67.1 1.4zm317.1-.5c27.1 5.9 49.4 20.3 64.1 41.3l5 7.2 5.1-5.9c2.9-3.2 8.9-8.8 13.4-12.5 39.9-32.1 96.2-41.4 139.7-23.1 12.6 5.3 22.7 12.1 32.7 22.1 14.3 14.2 23.9 30.1 29.9 49.8 6 19.9 5.8 14.5 6.2 132.1.3 79.5.1 108.7-.8 110.7-.6 1.6-2.3 3.6-3.8 4.6-2.4 1.6-5.4 1.8-34.1 1.8-28.4 0-31.9-.2-34.3-1.7-5.4-3.6-5.2 1.2-5.7-107.3l-.5-101-2.8-9c-3.9-12.3-8-19.7-15.3-27-10.8-11-25.2-16.1-42.9-15.2-34.7 1.8-58.4 25.2-61.6 60.7-.4 5.2-.8 51-.9 101.7v92.2l-2.3 2.6c-3.3 3.9-7.8 4.4-36.7 4.4-28.9 0-33.4-.5-36.7-4.4l-2.3-2.6v-91.2c0-50.2-.5-96.4-1-102.7-1.7-20.7-7.1-34.1-18.1-45.3-11.4-11.4-25.5-16.3-44.4-15.4-28.9 1.5-49.2 17.1-58.6 45.2l-2.4 7-.5 101.3-.5 101.4-3.2 2.8c-4.2 3.8-9.4 4.3-41.5 3.8-24.2-.3-25.8-.4-28.5-2.4-1.5-1.1-3.4-3.2-4-4.5-1-1.9-1.2-35.5-1-156.7l.2-154.4 3.3-2.9 3.3-3 23 .3 22.9.3 2.9 3c2.4 2.4 3.7 5.6 6.6 16.5 2 7.4 3.8 14.1 4 14.8.3.8 3.1-1 7.7-5 23.3-20.3 44.7-30.8 72.3-35.4 10-1.7 32.4-1.2 42.1 1zM254.8 610.8c2.6 3.4-.1 8.2-4.8 8.2-3.3 0-5-1.7-5-5.1 0-5.2 6.5-7.2 9.8-3.1zm89 0c2.6 3.4-.1 8.2-4.8 8.2-3.3 0-5-1.7-5-5.1 0-5.2 6.5-7.2 9.8-3.1zm303 0c2.6 3.4-.1 8.2-4.8 8.2-3.3 0-5-1.7-5-5.1 0-5.2 6.5-7.2 9.8-3.1zM97.7 631.5c6 1.8 11.6 7.4 13.2 13.2.6 2.1 1.1 12 1.1 22 0 15.2.3 18.4 1.6 19.7.8.9 2.2 1.6 3 1.6.8 0 1.4 1 1.4 2.5 0 2.2-.4 2.5-3.5 2.5-4 0-8.5-3.6-8.5-6.8 0-3.4-1.2-3.2-5.7.8-15.5 13.6-38.3 6.8-38.3-11.5 0-6.1 2.1-10.7 6.1-13.7 5.1-3.8 6.3-4.1 20.6-4.8 8.3-.4 13.8-1.2 14.8-2 2.3-1.9 1.9-8.1-.8-12.1-6.3-9.5-23.6-9.2-30 .6-1.6 2.6-2.9 3.5-4.9 3.5-3.4 0-3.6-1.9-.7-6.6 5.4-8.8 18.3-12.5 30.6-8.9zm72.2 1.1c3 1.6 6.4 4.3 8 6.4l2.7 3.8 3.3-3.9c4.8-5.8 10.3-8.3 18.2-8.4 5.6 0 7.3.4 11.4 3 3.1 1.9 6.1 4.9 8 7.9l3 4.9.3 23.4.3 23.3h-7l-.3-22.3c-.3-22.3-.3-22.4-3-26.4-6.6-10-22-10-28.6 0-2.7 4-2.7 4.1-3 26.4l-.3 22.3H176v-20.3c0-11.1-.5-21.9-1.1-24-4-14.5-25.7-16.1-32-2.3-1.6 3.6-1.9 6.8-1.9 25.3V693h-7v-62h7v4.7c0 4.7.1 4.7 1.8 2.8 7.2-8.5 17.4-10.7 27.1-5.9zm142.9.3c3.7 1.9 4.2 2.5 4.2 5.7v3.5l-4.6-2.7c-3.7-2.2-6-2.8-10.8-2.8-8.4-.1-14.1 3.2-18.1 10.6-2.7 4.8-3 6.2-3 14.8 0 8.3.3 10.2 2.6 14.5 5.7 11.3 20 15 30.4 7.9l3.6-2.4-.3 3.7c-.3 3.4-.8 4.1-4.8 6-5.3 2.8-14.6 3.1-21.1.8-5.7-2-12.2-8.4-15.1-14.9-1.9-4.3-2.3-6.8-2.3-15.6 0-9.4.3-11.1 2.7-16 3.5-7.2 8.4-11.8 15-14.2 6.7-2.4 15.7-1.9 21.6 1.1zm120.6-1.7c2.6.8 5.9 3 9.1 6.3l5 5.1 2-3c5.3-8 18.1-11.6 27-7.7 5.9 2.6 7.9 4.3 11.4 9.6 2.6 4 2.6 4.1 2.9 27.7l.3 23.8H484v-21c0-22-.6-25.7-4.8-30.3-7.2-8-21.8-6-27.3 3.7-2.3 3.9-2.4 5.1-2.7 25.8l-.3 21.8H442v-21c0-22-.6-25.7-4.8-30.3-7-7.7-20.9-6.2-27.2 3-2.5 3.6-2.5 4.1-2.8 26l-.3 22.3H400v-62h7v9.4l3.9-3.8c6.2-6.1 13.9-7.9 22.5-5.4zm178.2 1.6c5.8 3 6.8 4.5 4.4 6.7-1.8 1.6-2 1.6-4.5-.3-5.2-4.1-15.9-3.7-19.9.7-.9 1-1.9 3.4-2.2 5.3-.9 5.4 2.9 9 13.4 13 14.4 5.5 19.9 12.7 17.2 22.7-2.2 8.4-9.1 13-19.5 13.1-6.8 0-14.4-3-18.4-7.4-2.4-2.5-2.4-2.6-.6-4.6 1.8-2 1.8-1.9 5.1 1 8 6.9 22 6.5 25.8-.9 3.9-7.5 1.1-11.4-12.2-17-5.4-2.3-10.8-4.9-12-5.7-7-4.9-7.3-18.5-.5-24.6 5.6-5.1 16.1-6 23.9-2zm92.5-.1c4.7 2.4 5.4 3.2 5.7 6 .2 1.8.1 3.3-.1 3.3-.3 0-2.4-1.1-4.8-2.4-6.2-3.4-11-4-17.2-2.2-8.8 2.6-14 9.6-15.3 20.8-1.3 11.3 3.8 23.7 11.1 27.2 7.7 3.7 15.7 3.3 21.9-.9 2-1.4 3.9-2.5 4.1-2.5.3 0 .5 1.3.5 2.8 0 5.4-7.3 9.2-17.2 9.2-11.7 0-21.6-7.2-25.5-18.4-2.5-7.2-2.4-20.4.2-27.5 5.6-15.2 22.7-22.4 36.6-15.4zm52.8-1.7c5.6 1.6 10 5.2 12.6 10.4 2.4 4.8 2.5 5.8 2.5 23 0 19.4.7 22.8 4.8 23.4 1.6.2 2.2 1 2.2 2.8 0 2-.5 2.4-3 2.4-6 0-10-3.3-10-8.1 0-1.8-.5-1.6-4.2 1.4-6.4 5.1-10.5 6.9-17.4 7.5-10.1.8-17.1-2.7-20.5-10.2-4-8.9-1-19.1 7-23.5 3.8-2.1 6.4-2.5 18-3.2 12.2-.6 13.7-.9 15.3-2.8 1.9-2.5 1.6-6.8-1-11.3-5.4-9.3-24.7-8.9-30.3.7-1.6 2.7-2.7 3.5-5 3.5-3.5 0-3.6-1-.7-6.1 4.8-8.6 18.5-13.2 29.7-9.9zm73.9 2.7c2.5 1.6 5.9 4.7 7.4 7 3.2 4.7 5.8 13.8 5.8 20v4.3h-47.3l.6 4.5c.8 5.8 3.8 11.6 7.6 14.8 3.8 3.2 12.2 5 17.3 3.8 4.6-1.1 12.7-5.7 13.5-7.7.6-1.6 4.1-1.8 6.3-.4 1.2.7.5 1.8-3.6 5.8-6.7 6.5-12.9 8.6-22.9 8-8.9-.6-15-3.8-19.4-10.1-4.9-7.2-6.4-13.5-5.8-24 .6-10.5 2.2-15 7.4-20.8 6.1-6.8 11.8-9 21.6-8.5 5.3.3 7.7.9 11.5 3.3zM254 662v31h-7v-62h7v31zm89 0v31h-7v-62h7v31zm175.2-8.6l.3 22.4 3.1 3.9c4.4 5.4 8.8 7.7 14.9 7.7 6.2 0 12-3 15.5-8.1 2.5-3.6 2.5-4.1 2.8-26l.3-22.3h6.9v62h-7v-9.4l-3.2 3.4c-12.1 12.3-32.5 7.9-39.4-8.5-1.1-2.6-1.4-8.5-1.4-25.5v-22h6.9l.3 22.4zM646 662v31h-7v-62h7v31z"/><path d="M185 470c-30 3.1-48 14.4-53.6 33.8-2.3 7.6-1.5 22.7 1.5 30.4 5.7 14.8 20.8 24.3 40.8 25.5 29.4 1.9 55.6-12.4 66.9-36.2 5.1-10.7 6.5-17.4 7.1-33.6l.6-14.6-8.4-1.6c-19.2-3.7-41.1-5.2-54.9-3.7zm-81.2 189.6c-.4.6-5.5 1.3-12.1 1.7-12.4.6-17.6 2.1-20.2 6-4 6.2-2.3 15 3.7 18.7 7.3 4.5 20.4 1 27-7.1 2.7-3.4 2.9-4 2.6-12-.2-4.6-.6-7.9-1-7.3zm659.8.2c-.3.5-5.7 1.2-12.1 1.5-17 .9-21.7 3.9-21.7 13.7 0 8.4 5 13 14.2 13 6.7 0 13-3.1 18-8.8 3.9-4.4 4-4.6 4-12.3 0-7-.9-9.6-2.4-7.1zm44.3-21.5c-5.4 2.9-9.6 9.3-10.5 15.9l-.7 4.8h40.6l-.6-4.5c-1.2-8.1-6-15.1-12-17.4-4.8-1.9-12-1.3-16.8 1.2z"/></g></svg>