<svg id="Layer_1" data-name="Layer 1" xmlns="http://www.w3.org/2000/svg" viewBox="0 0 595.28 370"><defs><style>.cls-3{fill:#f7f7f8}.cls-6{fill:#f6f5f7}</style></defs><path d="M271.71 465.9H.66v-595.27h595.27V465.9H271.71M399.18 83.49A63.31 63.31 0 00367.23 59c-27.16-9.32-52.28-4.3-75.55 11.64-5.17 3.54-9.81 7.84-14.87 11.93-1.44-5.48-2.82-11-4.34-16.4-1.47-5.27-4-7.17-9.47-7.27-7-.07-14 0-21 0-6.6 0-9 2.53-9 9.18v193.91c0 6.87 2.32 9.24 9.28 9.31 7.44.08 14.88 0 22.31 0 4.59 0 9.19 0 13.77-.25 3.38-.16 5.39-2.22 6.07-5.44a23.35 23.35 0 00.35-4.88V142.94c0-19.92 12-40 37.21-42.93 17.33-2 33.28 4.15 40.67 22.59 3.17 7.94 3.93 16.32 3.94 24.77q.06 56.43 0 112.87c0 1.42 0 2.84.12 4.26.34 4 2.43 6.33 6.37 6.55 5 .28 10.05.26 15.08.25 7.87 0 15.75 0 23.61-.26 3.79-.13 5.93-2.5 6.35-6.23a43.91 43.91 0 00.17-4.59v-54.13c0-21.44-.12-42.87.17-64.31.26-19.62 12.84-38.9 37.08-41.73 15-1.76 27.78 2.35 36.41 15.53 5.16 7.87 7.35 16.84 7.39 26.14.17 39.48.13 79 .17 118.44 0 1.21 0 2.42.07 3.61.41 4.77 2.65 7.19 7.47 7.38 6.11.25 12.24.16 18.36.15 6.34 0 12.69.06 19-.22 4.41-.2 6.6-2.78 6.83-7.22v-1.64c0-41.66.15-83.33-.12-125a110.59 110.59 0 00-2.73-23.7c-5.08-22.24-17-39.88-37.55-50.65-16.26-8.51-33.71-10.13-51.64-7.14-22 3.66-40.69 13.35-55.5 30.18a12.22 12.22 0 00-1.28 2.52c-1.48-2.21-2.27-3.39-3.36-4.94M106.3 142.6c-7.71 1.45-15.61 2.27-23.1 4.49-18.11 5.34-33.07 15.2-42.15 32.43-7 13.37-8.34 27.71-6.22 42.4C37.89 243.11 49 258.65 68.4 268c14.58 7.07 30.08 8.95 46 7.46 21.89-2.06 40.62-10.58 54.68-28.05a21.32 21.32 0 011.9-1.84c1.72 6.52 3.33 12.63 4.95 18.73 1.17 4.38 3.33 6.6 7.72 6.72 8.3.24 16.61.2 24.91 0 3.75-.1 6-2.47 6.54-6.14a30.23 30.23 0 00.14-4.26V137.24a149.12 149.12 0 00-1.35-20.24C211 96.47 201.5 79.94 183.6 68.76c-14.15-8.85-29.86-12.49-46.26-13.86a175.72 175.72 0 00-46.72 2.37c-13 2.4-25.7 5.93-38.43 9.38-6 1.64-7.43 5.06-5.53 11.07 2.56 8.11 5.16 16.2 7.74 24.31 2.23 7 4.71 8.29 11.7 6.11 5.93-1.85 11.78-4 17.79-5.53 16-4.15 32.25-7.16 48.92-4.24 14.29 2.51 25.55 9.2 28.91 24.22 1.82 8.07 1.61 16.6 2.36 25.43-19.45-4.88-38.15-7-57.78-5.42m189.19 175.3c0-5.91-.14-11.82.05-17.72.23-7.09 5.31-12 11.81-11.81s10.93 5.19 11 12.25c.05 5.47 0 10.94 0 16.41v8.21h4.59c0-9.07.14-17.93-.05-26.78a14.79 14.79 0 00-10.16-13.55 15.36 15.36 0 00-16.59 4.81c-.72.86-1.39 1.78-2.2 2.81-3-5-7-7.94-12.53-8.37s-9.72 2.26-13.73 6.79V285h-4.24v40.27h4.42v-7.36c0-6-.16-12 .06-18.05.24-6.81 5.43-11.7 11.8-11.5s10.94 5.09 11 11.87c.07 4.37 0 8.75 0 13.12v11.92h4.69v-7.37m-179.36 0v7.39h4.64c0-8.36-.06-16.55 0-24.73.06-7.12 4.85-12.16 11.42-12.22s11.3 5.05 11.45 12.21c.08 4.16 0 8.31 0 12.47v12.24h4.59c0-9 .22-17.89-.07-26.72-.19-6.05-3.39-10.58-8.94-13.08s-10.94-1.58-15.68 2.19a42.77 42.77 0 00-4.46 4.8c-2.65-4.78-6.62-7.73-12.14-8.26s-9.93 2.1-13.68 6.38L93 285h-4.25v40.28h4.42v-24.4c0-7.36 4.76-12.48 11.45-12.53s11.4 5.11 11.48 12.5c.07 5.47 0 10.93 0 17.06m-41.87-7.23v-10.81c-.17-11.06-7.07-17-18.11-15.63-7 .88-12 5-12.79 10.57 2.4 1 3.75.22 5.18-2 4-6.22 15-6.86 19-1a11.06 11.06 0 011.56 7.53c-.17 1-3.74 1.7-5.85 2.13-1.68.35-3.5-.09-5.23.11a48.58 48.58 0 00-9.29 1.54c-5.25 1.72-7.61 5.68-7.45 11.35.15 5.42 3.06 9.54 8.09 11.05 6.37 1.9 12.06.28 17.16-3.77 1-.78 1.91-1.63 3.12-2.67.64 3.27 1.73 5.86 5.13 6.32a27 27 0 003.49 0v-3.2c-3.79.11-4.11-2.42-4-5.3.07-1.85 0-3.71 0-6.22m425.66-20.16c2.42 2.36 4 5.31 2.81 8.51-1.23 3.44-4.77 2.2-7.47 2.48h-.66c-4.09.45-8.33.42-12.26 1.5-5.44 1.49-8 5.78-7.78 11.46.19 5.5 3.25 9.61 8.5 11.1 5.75 1.63 11 .35 15.79-3.1 1.38-1 2.66-2.15 4.05-3.28 1.41 5 6.05 8.09 8.73 5.86v-2.68c-3.69-1-3.91-1.28-4-5-.1-6.88 0-13.77-.3-20.64a11.73 11.73 0 00-6.31-10.41 18.5 18.5 0 00-19.31.77c-2.78 1.74-4.68 4.32-5.45 8.77 2.1-.82 4-1 4.68-1.94 4.71-6.5 11.75-8 18.95-3.4m26.77-3.19c-9.7 7-9.36 24.21-3.76 31.91 7.48 10.27 25.08 9.13 30.84-2.19-3.23-1.13-3.23-1.13-5.58 1.12-4.63 4.43-12 5.68-17.31 2.93-4.67-2.43-7.57-8.36-6.81-14.31h30.53c0-8.1-1.15-15.56-8.32-20.12-6.26-4-12.88-3.44-19.59.66m-156.89 34.36V285H365v3.39c0 7.21.1 14.42-.06 21.63a12 12 0 01-15.12 11.54c-5.45-1.27-9.15-6-9.21-12-.08-8.16 0-16.33 0-24.57h-4.51c0 9.32-.35 18.49.11 27.61.37 7.2 7 12.94 14.2 13.52 5.93.48 10.48-2 14.47-6.77.1 2.31.19 4.09.27 5.95h4.6v-3.65m32.67-16.39c-3.81-1.63-7.67-3.15-11.4-4.94a5.74 5.74 0 01-3.6-6.07c.34-3.05 2.13-4.87 5.06-5.74 4.44-1.32 8.1.36 11.67 3l2.49-3.38c-3.47-1.44-6.41-3.15-9.58-3.86-6-1.34-12.05 2.26-13.62 7.56-1.8 6.09.58 10.72 7.06 13.54 2.9 1.27 5.89 2.32 8.75 3.65s4.75 3.23 4.34 6.6-2.51 5.29-5.63 6.06c-5.77 1.41-10.51-.49-14.5-5l-2.31 2.57a16.72 16.72 0 0018.45 6.25c4.56-1.42 7.58-4.31 8.27-9.16.67-4.65-.95-8.36-5.45-11.11m40.7-8c1.42-3.59 3.61-6.48 7.3-7.95 5.78-2.29 11-.87 15.76 2.82 1.14-3.54-.51-5.16-3.2-6.43a18.14 18.14 0 00-19.53 3c-7.23 6.82-8.45 21.23-2.55 30a17.83 17.83 0 0022.06 6c2.73-1.3 4.42-3 3.17-6.48-.69.5-1.27 1-1.88 1.37-8.16 5.51-18.35 2-21.37-7.35a23.7 23.7 0 01.24-15M181 296.84a28.91 28.91 0 00-.36 15.52c2.75 11.4 15 17.29 25.1 12.26 2.72-1.34 4-3.08 2.86-6.29-.66.48-1.23.92-1.82 1.33-8.17 5.48-18.62 2-21.3-7.47a27.71 27.71 0 01-.77-10.65c1-8.16 5.94-13.3 12.91-13.14 3.78.08 7.52 1.79 11.19 2.74.35-3.58.33-3.62-3.26-5.38-9.42-4.65-19.94-.09-24.55 11.08m-18.41 23.6v4.89h4.52V285h-4.52v35.44M221 297.56v27.76h4.52V285H221v12.55m203.57 9.19V285H420v40.3h4.54v-18.5m-5.75-31.9c.94 2 2.66 2.89 4.53 2a4.6 4.6 0 002.34-3.38 4.73 4.73 0 00-2.54-3.26c-2.43-1.12-4.25.74-4.33 4.68m-195.4 2.29c3-1 4.46-2.83 3.23-4.77a5.2 5.2 0 00-3.77-2.27c-1 0-2.59 1.65-2.93 2.84-.64 2.21.63 3.74 3.47 4.2m-55.49-5.66c-1.63-1.86-3.69-2.4-5.34-.52-.84 1-1.25 3.43-.61 4.28a5 5 0 004.36 1.46c2.1-.67 2.87-2.64 1.61-5.31z" fill="#080232"/><path d="M399.33 83.68c.94 1.36 1.73 2.54 3.21 4.75a12.22 12.22 0 011.28-2.52c14.81-16.83 33.54-26.52 55.5-30.18 17.93-3 35.38-1.37 51.64 7.14 20.58 10.77 32.47 28.41 37.55 50.65a110.59 110.59 0 012.73 23.7c.27 41.67.13 83.34.12 125v1.64c-.23 4.44-2.42 7-6.83 7.22-6.33.28-12.68.21-19 .22-6.12 0-12.25.1-18.36-.15-4.82-.19-7.06-2.61-7.47-7.38-.11-1.19-.06-2.4-.07-3.61 0-39.48 0-79-.17-118.44 0-9.3-2.23-18.27-7.39-26.14-8.63-13.18-21.44-17.29-36.41-15.53-24.24 2.83-36.82 22.11-37.08 41.73-.29 21.44-.14 42.87-.17 64.31v54.13a43.91 43.91 0 01-.17 4.59c-.42 3.73-2.56 6.1-6.35 6.23-7.86.27-15.74.24-23.61.26-5 0-10.06 0-15.08-.25-3.94-.22-6-2.58-6.37-6.55-.12-1.42-.12-2.84-.12-4.26V147.37c0-8.45-.77-16.83-3.94-24.77C355.3 104.16 339.35 98 322 100c-25.21 2.92-37.18 23-37.21 42.93q-.06 58.89 0 117.79a23.35 23.35 0 01-.35 4.88c-.68 3.22-2.69 5.28-6.07 5.44-4.58.21-9.18.23-13.77.25-7.43 0-14.87.07-22.31 0-7-.07-9.28-2.44-9.28-9.31V68.07c0-6.65 2.44-9.13 9-9.18 7 0 14-.06 21 0 5.44.05 8 2 9.44 7.26 1.52 5.44 2.9 10.92 4.34 16.4 5.06-4.09 9.7-8.39 14.87-11.93C315 54.69 340.07 49.67 367.23 59c13.31 4.56 23.91 12.92 32.1 24.68zM106.6 142.56c19.33-1.51 38 .58 57.48 5.46-.75-8.83-.54-17.36-2.36-25.43-3.36-15-14.62-21.71-28.91-24.22-16.67-2.92-32.87.09-48.92 4.24-6 1.55-11.86 3.68-17.79 5.53-7 2.18-9.47.87-11.7-6.11-2.58-8.11-5.18-16.2-7.74-24.31-1.9-6-.52-9.43 5.53-11.07 12.73-3.45 25.48-7 38.43-9.38a175.72 175.72 0 0146.72-2.37c16.4 1.37 32.11 5 46.26 13.86C201.5 79.94 211 96.47 213.89 117a149.12 149.12 0 011.29 20.27q.16 61.68 0 123.38a30.23 30.23 0 01-.14 4.26c-.55 3.67-2.79 6-6.54 6.14-8.3.21-16.61.25-24.91 0-4.39-.12-6.55-2.34-7.72-6.72-1.62-6.1-3.23-12.21-4.95-18.73a21.32 21.32 0 00-1.9 1.84c-14.06 17.47-32.79 26-54.68 28.05C98.48 277 83 275.11 68.4 268c-19.4-9.39-30.51-24.93-33.57-46.12-2.12-14.69-.83-29 6.22-42.4 9.08-17.23 24-27.09 42.15-32.43 7.49-2.22 15.39-3 23.4-4.53m3.37 95c32.88 5.73 58-20.23 53.15-55.13-4.46-.8-8.93-1.8-13.46-2.39-14.49-1.88-28.93-2.46-43.12 2.15-16.38 5.33-24.27 19.83-19.6 36.39 3.2 11.38 11.65 16.6 23.06 19.02z" fill="#fefefe"/><path class="cls-3" d="M295.49 318.22v7h-4.69v-11.87c0-4.37.05-8.75 0-13.12-.11-6.78-4.7-11.66-11-11.87s-11.56 4.69-11.8 11.5c-.22 6-.06 12-.06 18.05v7.36h-4.42V285h4.24v6c4-4.53 8.2-7.22 13.73-6.79s9.56 3.32 12.53 8.37c.81-1 1.48-1.95 2.2-2.81a15.36 15.36 0 0116.59-4.81 14.79 14.79 0 0110.16 13.55c.19 8.85.05 17.71.05 26.78h-4.59v-24.7c-.06-7.06-4.56-12-11-12.25s-11.58 4.72-11.81 11.81c-.27 5.93-.13 11.85-.13 18.07z"/><path d="M116.13 317.57c0-5.8.05-11.26 0-16.73-.08-7.39-4.87-12.56-11.48-12.5s-11.41 5.17-11.45 12.53v24.4h-4.45V285H93l.27 5.58c3.75-4.28 8.07-6.93 13.68-6.38s9.49 3.48 12.14 8.26a42.77 42.77 0 014.46-4.8c4.74-3.77 10.09-4.7 15.68-2.19s8.75 7 8.94 13.08c.29 8.83.07 17.68.07 26.72h-4.59V313c0-4.16.07-8.31 0-12.47-.15-7.16-5-12.28-11.45-12.21s-11.36 5.1-11.42 12.22c-.08 8.18 0 16.37 0 24.73h-4.64z" fill="#f9f9fa"/><path d="M74.26 311c0 2.18.06 4 0 5.89-.1 2.88.22 5.41 4 5.3v3.2a27 27 0 01-3.49 0c-3.4-.46-4.49-3.05-5.13-6.32-1.21 1-2.14 1.89-3.12 2.67-5.1 4-10.79 5.67-17.16 3.77-5-1.51-7.94-5.63-8.09-11.05-.16-5.67 2.2-9.63 7.45-11.35a48.58 48.58 0 019.28-1.56c1.73-.2 3.55.24 5.23-.11 2.11-.43 5.68-1.09 5.85-2.13a11.06 11.06 0 00-1.56-7.53c-4-5.85-15-5.21-19 1-1.43 2.23-2.78 3-5.18 2 .8-5.55 5.81-9.69 12.79-10.57 11-1.38 17.94 4.57 18.11 15.63.06 3.6 0 7.21 0 11.14m-7 5.83c4.16-3.91 2-8.81 2.48-12.95-2.55.32-4.76.66-7 .86-3.57.32-7.23.15-10.69.94-4.36 1-6.46 4.57-6 8.85a8.32 8.32 0 007.97 7.75c5.16.48 9.36-1.5 13.26-5.43z" fill="#f5f5f7"/><path class="cls-6" d="M499.72 290.35c-7-4.45-14.06-2.93-18.77 3.57-.71 1-2.58 1.12-4.68 1.94.77-4.45 2.67-7 5.45-8.77a18.5 18.5 0 0119.31-.77 11.73 11.73 0 016.32 10.45c.27 6.87.2 13.76.3 20.64.05 3.69.27 3.95 4 5v2.68c-2.68 2.23-7.32-.89-8.73-5.86-1.39 1.13-2.67 2.28-4.05 3.28-4.77 3.45-10 4.73-15.79 3.1-5.25-1.49-8.31-5.6-8.5-11.1-.19-5.68 2.34-10 7.78-11.46 3.93-1.08 8.17-1 12.26-1.5h.66c2.7-.28 6.24 1 7.47-2.48 1.15-3.2-.39-6.15-3-8.68m-11.05 32c10.79-.66 15.55-6.94 14.38-18.47-2.55.29-5.09.65-7.63.84s-5 .07-7.53.33c-5.43.55-8.55 3.76-8.51 8.57.01 5.01 3.07 8.07 9.26 8.69z"/><path d="M526.86 287.18c6.52-3.95 13.14-4.5 19.4-.51 7.17 4.56 8.32 12 8.32 20.12h-30.53c-.76 5.95 2.14 11.88 6.81 14.31 5.3 2.75 12.68 1.5 17.31-2.93 2.35-2.25 2.35-2.25 5.58-1.12-5.76 11.32-23.36 12.46-30.84 2.19-5.6-7.7-5.94-24.93 4-32.06m-1.33 7.82c-.78 2.63-1.56 5.27-2.43 8.23h26.7c.36-7.06-2.94-12.75-8.33-14.56-6.2-2.07-11.83.03-15.94 6.33z" fill="#eeeef1"/><path class="cls-3" d="M369.75 322v3.34h-4.6c-.08-1.86-.17-3.64-.27-5.95-4 4.78-8.54 7.25-14.47 6.77-7.19-.58-13.83-6.32-14.2-13.52-.46-9.12-.11-18.29-.11-27.61h4.51c0 8.24-.06 16.41 0 24.57.06 6 3.76 10.72 9.21 12A12 12 0 00365 310.05c.16-7.21.05-14.42.06-21.63V285h4.73z"/><path class="cls-6" d="M402.62 305.43c4.3 2.62 5.92 6.33 5.25 11-.69 4.85-3.71 7.74-8.27 9.16a16.72 16.72 0 01-18.45-6.25l2.31-2.57c4 4.51 8.73 6.41 14.5 5 3.12-.77 5.22-2.73 5.63-6.06s-1.6-5.33-4.34-6.6-5.85-2.38-8.75-3.65c-6.48-2.82-8.86-7.45-7.06-13.54 1.57-5.3 7.6-8.9 13.62-7.56 3.17.71 6.11 2.42 9.58 3.86l-2.49 3.38c-3.57-2.67-7.23-4.35-11.67-3-2.93.87-4.72 2.69-5.06 5.74a5.74 5.74 0 003.6 6.07c3.73 1.74 7.59 3.26 11.6 5.02z"/><path d="M443.05 297.53a23.39 23.39 0 00-.17 14.74c3 9.39 13.21 12.86 21.37 7.35.61-.41 1.19-.87 1.88-1.37 1.25 3.51-.44 5.18-3.17 6.48a17.83 17.83 0 01-22.06-6c-5.9-8.78-4.68-23.19 2.55-30a18.14 18.14 0 0119.53-3c2.69 1.27 4.34 2.89 3.2 6.43-4.75-3.69-10-5.11-15.76-2.82-3.69 1.46-5.88 4.35-7.37 8.19z" fill="#f4f4f6"/><path d="M181.07 296.59c4.53-10.92 15.05-15.48 24.47-10.83 3.59 1.76 3.61 1.8 3.26 5.38-3.67-.95-7.41-2.66-11.19-2.74-7-.16-11.9 5-12.91 13.14a27.71 27.71 0 00.77 10.65c2.68 9.45 13.13 12.95 21.3 7.47.59-.41 1.16-.85 1.82-1.33 1.18 3.21-.14 4.95-2.86 6.29-10.15 5-22.35-.86-25.1-12.26a29.11 29.11 0 01.44-15.77zm-18.49 23.53V285h4.52v40.33h-4.52zM221 297.23V285h4.52v40.31H221zm203.56 9.85v18.17H420V285h4.54z" fill="#f6f6f8"/><path d="M418.76 274.6c.13-3.69 1.95-5.55 4.38-4.43a4.73 4.73 0 012.54 3.26 4.6 4.6 0 01-2.34 3.38c-1.87.93-3.59.02-4.58-2.21zm-195.59 2.51c-2.6-.43-3.87-2-3.23-4.17.34-1.19 1.89-2.81 2.93-2.84a5.2 5.2 0 013.77 2.27c1.23 1.94-.22 3.81-3.47 4.74zM168 271.7c1.14 2.45.37 4.42-1.71 5a5 5 0 01-4.36-1.46c-.64-.85-.23-3.32.61-4.28 1.69-1.88 3.75-1.34 5.46.74z" fill="#f3f3f5"/><path d="M109.69 237.53c-11.1-2.39-19.55-7.61-22.75-18.95-4.67-16.56 3.22-31.06 19.6-36.39 14.19-4.61 28.63-4 43.12-2.15 4.53.59 9 1.59 13.46 2.39 4.82 34.9-20.27 60.86-53.43 55.1z" fill="#090333"/><path d="M67.09 317c-3.73 3.75-7.93 5.73-13.09 5.25a8.32 8.32 0 01-7.92-7.73c-.48-4.28 1.62-7.86 6-8.85 3.46-.79 7.12-.62 10.69-.94 2.23-.2 4.44-.54 7-.86-.47 4.13 1.65 9.05-2.68 13.13z" fill="#0d0736"/><path d="M488.38 322.33c-5.9-.6-9-3.66-9-8.71 0-4.81 3.08-8 8.51-8.57 2.49-.26 5-.14 7.53-.33s5.08-.55 7.63-.84c1.17 11.53-3.59 17.81-14.67 18.45z" fill="#0e0837"/><path d="M525.68 294.77c4-6.07 9.64-8.17 15.84-6.1 5.39 1.81 8.69 7.5 8.33 14.56h-26.7c.85-2.96 1.65-5.6 2.53-8.46z" fill="#0a0534"/></svg>