<svg id="Layer_1" data-name="Layer 1" xmlns="http://www.w3.org/2000/svg" viewBox="0 0 496.34 302.34"><defs><style>.cls-1{fill:#f1f1f3}.cls-2{fill:#676481}.cls-3{fill:#aba9b9}.cls-4{fill:#c2c0cc}.cls-5{fill:#090333}.cls-6{fill:#1e1944}.cls-7{fill:#363158}.cls-9{fill:#f7f7f8}.cls-11{fill:#f6f5f7}.cls-13{fill:#f4f4f6}</style></defs><path class="cls-1" d="M495.16 693.14v28.65c-3.11.14-6 .4-8.94.38q-39.64-.27-79.28-.62c-7.44-.06-14.88-.34-22.31-.27-14.6.15-29.19.65-43.78.69-19.71 0-39.42-.37-59.13-.28-49.55.21-99.1.59-148.9.76-.25-.14-.28-.37 0-.41 34.22-.49 68.18-.95 102.14-1.41a2.26 2.26 0 00-1.81-.7q-44.07.35-88.13.73c-5.55.05-11.1.19-16.65.38-.5 0-1 .69-1.53 1-.06-.12-.31-.12-.31-.12s-.11.23.06 0a2.38 2.38 0 00-1.6-.82c-3.36 0-6.73.09-10.34.08-4.94.06-9.64.19-14.34.31-19.72-.15-39.43-.2-59.15-.49-12.72-.19-25.43-.74-38.27-1.13l-1 2.41a8.31 8.31 0 01-.57-9.58 7.38 7.38 0 00.63-3.59c-.13-9.95-.36-19.89-.48-29.84-.12-9.49-.14-19-.19-28.46C1.12 633.84.92 616.92 1 600c.07-19.27.53-38.53.52-57.8 0-17.74-.58-35.48-.6-53.22 0-21.33.3-42.65.47-64v-2.53l493.8-1.45v4c-.15 29.13-.36 58.25-.42 87.38 0 7.78.49 15.57.62 23.35.07 4.21-.26 8.42-.2 12.63.23 17.55.59 35.11.8 52.66.08 6.9-.19 13.8-.12 20.7.08 8.74.35 17.48.32 26.44-.35.22-.48.22-.76.11a.39.39 0 00-.37.35q0 22.27.1 44.55m-180.93 26.35h-13.86l-2.26.13v.6a29.73 29.73 0 013.14.13c4.52-.13 9-.27 14-.32h6.84v-.52h-7.93m59.54-294.18c-9.83-.21-19.65-.55-29.48-.61-16.66-.1-33.31-.06-50 0-21.6.05-43.2.22-64.79.27q-63.94.15-127.89.21c-12.71 0-25.41-.51-38.11-.58-5.88 0-11.77.46-17.65.69-5.71.23-11.42.56-17.13.64-8.14.11-16.28 0-24.58 0A8.48 8.48 0 004 427.3q0 34.82.14 69.63c0 8.31.33 16.61.46 24.92.07 3.93.07 7.85 0 11.78 0 2.45-.2 4.91-.22 7.36 0 1.7.18 3.41.16 5.11-.08 6.89-.34 13.78-.28 20.68.07 8.76.5 17.52.58 26.28.06 6.05-.27 12.11-.31 18.16 0 3.38.36 6.77.2 10.14-.24 5.13-.89 10.24-1.19 15.38-.18 3.12-.11 6.27 0 9.4.31 13.25.85 26.5.94 39.75.07 9.94-.41 19.89-.64 29.83v2.69c.85.06 1.46.13 2.07.14 9.68.1 19.36.32 29 .26 20.59-.12 41.18-.38 61.76-.61 7.88-.08 15.76-.24 23.64-.31 9.94-.1 19.88-.24 29.82-.19 5.59 0 11.19.59 16.79.57 18.36 0 36.72-.3 55.08-.4 4.39 0 8.78.39 13.16.33 14.24-.19 28.48-.73 42.72-.71 15.47 0 30.94.72 46.41.81 11.89.06 23.79-.38 35.68-.57 1.61 0 3.23 0 4.84.1 10.79.3 21.59.83 32.38.86 21.55 0 43.1-.18 64.65-.31a186.51 186.51 0 0128.34 1.53c1.42.21 2.79 0 2.78-2.19 0-11.9.06-23.8.12-35.7q.15-28.87.32-57.75c0-3.84.45-7.69.34-11.53-.17-6.14-.9-12.26-.93-18.39 0-10.27.41-20.55.45-30.82.05-15.13 0-30.26-.13-45.4-.07-12.16-.22-24.33-.31-36.49q-.19-27.42-.37-54.85c0-.76-.1-1.53-.14-2.08l-118.63.65M250.45 720.88c1.78 0 3.55.06 5.33 0q18.54-.24 37.08-.52c.79 0 1.59-.13 2.39-.19l-.06-.38h-49.34v.55c1.36.21 2.75.39 4.6.54z" transform="translate(0 -421.01)"/><path class="cls-2" d="M495.35 693.08c-.23-14.79-.27-29.64-.29-44.49 0-.16.14-.31.32-.1.09 2.76 0 5.14.11 7.53.07 1.61.4 3.21.62 4.82.06 8.5.18 17 .15 25.49a37.06 37.06 0 01-.91 6.75z" transform="translate(0 -421.01)"/><path class="cls-3" d="M66.4 722.36h27.43v.83c-8.25 0-16.5.09-24.75-.05-3.19 0-6.58 1-9.54-1.24-.34-.26-1.12.07-1.68.45z" transform="translate(0 -421.01)"/><path class="cls-1" d="M115.83 723c-5.31-.25-10.62-.5-15.51-.8 5.1-.24 9.78-.43 14.51-.46.38.25.7.34 1 .57.02.32.01.5 0 .69z" transform="translate(0 -421.01)"/><path class="cls-3" d="M34.72 723.15h-5.13v-.88h15.92v.24z" transform="translate(0 -421.01)"/><path class="cls-4" d="M116.08 723.07c-.24-.26-.23-.44 0-.8 3.6-.17 6.94-.17 10.29-.17l.11-.23a2.61 2.61 0 01.57.08c2 .1 3.76.11 5.47.13v.34c-5.37.32-10.78.52-16.44.65z" transform="translate(0 -421.01)"/><path class="cls-2" d="M114.78 721.57c-4.68.19-9.36.38-14.28.52-.23-.15-.21-.25-.21-.5 4.69-.27 9.39-.4 14.36-.35.27.17.13.33.13.33z" transform="translate(0 -421.01)"/><path class="cls-3" d="M496.26 660.67a22.93 22.93 0 01-.77-4.65c-.11-2.39 0-4.77 0-7.41.18-.26.31-.26.63-.23.25 4.07.27 8.09.14 12.29z" transform="translate(0 -421.01)"/><path class="cls-5" d="M374 425.36l118.36-.65c0 .55.14 1.32.14 2.08q.19 27.43.37 54.85c.09 12.16.24 24.33.31 36.49.08 15.14.18 30.27.13 45.4 0 10.27-.48 20.55-.45 30.82 0 6.13.76 12.25.93 18.39.11 3.84-.31 7.69-.34 11.53q-.19 28.88-.32 57.75c-.06 11.9-.13 23.8-.12 35.7 0 2.16-1.36 2.4-2.78 2.19a186.51 186.51 0 00-28.34-1.53c-21.55.13-43.1.36-64.65.31-10.79 0-21.59-.56-32.38-.86-1.61-.05-3.23-.13-4.84-.1-11.89.19-23.79.63-35.68.57-15.47-.09-30.94-.78-46.41-.81-14.24 0-28.48.52-42.72.71-4.38.06-8.77-.35-13.16-.33-18.36.1-36.72.35-55.08.4-5.6 0-11.2-.54-16.79-.57-9.94-.05-19.88.09-29.82.19-7.88.07-15.76.23-23.64.31-20.58.23-41.17.49-61.76.61-9.67.06-19.35-.16-29-.26-.61 0-1.22-.08-2.07-.14v-2.69c.23-9.94.71-19.89.64-29.83-.09-13.25-.63-26.5-.94-39.75-.08-3.13-.15-6.28 0-9.4.3-5.14.95-10.25 1.19-15.38.16-3.37-.23-6.76-.2-10.14 0-6.05.37-12.11.31-18.16-.08-8.76-.51-17.52-.58-26.28-.06-6.9.2-13.79.28-20.68 0-1.7-.18-3.41-.16-5.11 0-2.45.2-4.91.22-7.36v-11.78c-.13-8.31-.42-16.61-.46-24.92Q4 462.12 4 427.3a8.48 8.48 0 01.1-1.3c8.3 0 16.44.08 24.58 0 5.71-.08 11.42-.41 17.13-.64 5.88-.23 11.77-.72 17.65-.69 12.7.07 25.4.57 38.11.58q63.94 0 127.89-.21c21.59-.05 43.19-.22 64.79-.27 16.66-.05 33.31-.09 50 0 9.83.06 19.65.4 29.75.61m-146.29 46.46c-1.55-5.41-3.18-7.26-7.19-7.34-6.62-.14-13.26-.11-19.89 0-3.24.06-5.28 2.15-5.65 5.37a24.17 24.17 0 00-.06 2.95v158.65c.07 4.63 2 6.78 6.65 6.93 5.19.16 10.4.07 15.59.06 4.75 0 9.51.06 14.25-.15 3.78-.17 5.62-2.2 5.91-6 .07-1 0-2 0-3v-96c0-16.44 9.89-32.86 30.38-35.28 15.4-1.83 29.47 4.4 34.19 21.22a68.39 68.39 0 012.39 17.73c.22 30.92.1 61.84.1 92.76 0 7.1 1.54 8.61 8.71 8.62h17.48c3.67 0 7.35 0 11-.23 2.93-.19 4.67-2.07 5-5a31.27 31.27 0 00.16-3.75v-44.1c0-17.74-.13-35.49.15-53.23.26-15.89 10.42-31.73 30.57-34 12.16-1.39 22.59 2 29.61 12.71a38.69 38.69 0 016.07 21.42c.15 32.35.11 64.7.15 97.06a28.84 28.84 0 00.11 3.48c.43 3.49 2.23 5.36 5.76 5.52 4.74.21 9.49.16 14.24.15 5.64 0 11.29 0 16.93-.2 3.3-.14 5.11-2.27 5.34-5.59v-1.88c0-34 .12-67.94-.1-101.9a91.8 91.8 0 00-2.24-19.69c-4.15-18.23-13.9-32.68-30.76-41.51-13.42-7-27.82-8.33-42.59-5.81-17.87 3.05-33.14 11-45.23 24.69-.43.49-.94.91-1.5 1.44-6.86-11.19-16.13-19.25-28.35-23.46-22.23-7.68-42.83-3.59-61.92 9.45-4.26 2.91-8.08 6.45-12.25 9.83-1-3.81-2-7.68-3.12-12m-160.33-6.68c-6.89 1.9-13.82 3.64-20.64 5.75-4.74 1.47-5.9 4.06-4.46 8.66 2.11 6.73 4.26 13.45 6.4 20.17 1.86 5.86 3.91 6.92 9.77 5.07 4.76-1.5 9.48-3.2 14.31-4.45 13.15-3.42 26.41-5.87 40.07-3.53 7.22 1.24 13.82 3.77 18.7 9.54 7.72 9.12 6.46 20.07 6.44 30.68-6.7-1.15-13.1-2.48-19.56-3.31-15.5-2-30.93-1.66-46 2.93-14.9 4.54-27.25 12.58-34.7 26.78-5.74 11-6.78 22.73-5 34.75 2.55 17.35 11.69 30.06 27.59 37.72 12 5.76 24.66 7.27 37.69 6 15.41-1.45 29.17-6.86 40.26-18.06 2-2 3.81-4.16 5.95-6.5 1.35 5 2.62 9.75 3.88 14.46 1.4 5.2 3.11 6.6 8.5 6.66s10.93.07 16.39 0c5.63-.07 7.54-2 7.54-7.7 0-35.13.06-70.25 0-105.37 0-10.72-1.51-21.24-6.25-31-8.19-16.95-22.52-26-40.09-30.33-22.13-5.51-44.25-3.56-66.73 1.08m200.5 217.75c.3-.42.87-.83.88-1.25 0-7.17.21-14.35-.14-21.5-.36-7.35-7.84-12.47-15-10.76a13.71 13.71 0 00-8.51 6.46c-5-7.52-13.61-9.83-21.45-1.74-.07-1.5-.13-2.88-.19-4.32h-3.48v33h3.58v-20.19c.05-5 2.88-8.83 7.16-9.83a9.23 9.23 0 0111.57 9c.13 7 0 13.92 0 21h3.86v-8.09c.07-4.83-.12-9.7.35-14.49.43-4.43 4.22-7.44 8.69-7.68a9 9 0 019.21 6.72 17.78 17.78 0 01.46 4.5c.05 6.33 0 12.67 0 19.15h2.91m-168.61-21v20.82H103v-20c0-6 3.91-10.23 9.39-10.27s9.28 4.23 9.36 10.3v19.95h3.8v-20c0-.63 0-1.26-.05-1.88-.45-4.84-2.76-8.51-7.16-10.59s-8.72-1.46-12.68 1.38c-1.59 1.15-3.13 2.38-4.5 3.42a11.78 11.78 0 00-9.54-5.94c-4.56-.43-8.09 1.72-11.43 5.52v-4.85h-3.43v33h3.6V662.9c0-6 3.47-10.06 8.9-10.42 5.09-.35 8.86 3.07 9.89 9.39m-59.66 17.4c5.2 6.09 11.67 5.67 21.46-1.41 1.53 3.95 5.55 6.59 7.12 4.66v-2.37c-2.56-.06-3.25-1.53-3.22-3.74q.09-7.26 0-14.51c-.12-9.09-5.76-14-14.81-12.85-5.73.71-9.83 4.09-10.51 8.66 2.66.51 2.65.5 4.19-1.69 2.53-3.59 6.21-4.32 10.23-3.83a7.59 7.59 0 016.75 5.34c1.26 3.72.12 5.47-3.81 5.66-3 .14-6.1 0-9.12.3-8.59.84-12.34 7.74-8.29 15.78m377-.11c1.28 3 5 4.86 6.73 3.31v-2.27c-3 0-3.33-2-3.3-4.35.06-4.75.14-9.5 0-14.24-.29-8.9-5.67-13.48-14.57-12.58-5.79.58-10 4-10.77 8.67 1.95.83 3.08.25 4.26-1.64 2.47-3.91 6.52-4.46 10.7-3.79a7.45 7.45 0 016.38 5.76c.9 3.43-.14 4.93-3.68 5.13-3 .17-6.09 0-9.11.31-4.39.44-8.27 1.95-9.77 6.64a9.76 9.76 0 002.12 10.24c3.16 3.35 7.35 3.88 11.42 2.65 2.88-.88 5.41-2.94 8.09-4.48.57-.34 1.24-1.65 1.52.64m15.15-2.7c3.41 5.64 8.56 7.62 14.87 6.89a14.81 14.81 0 0011.42-7.35c-2-.93-3.41-1-4.71.73a8 8 0 01-2.75 2.1c-4.28 2.17-8.67 2.51-12.7-.35-3.61-2.57-4.66-6.46-4.67-11h25.5c-.3-2.56-.4-4.89-.87-7.15-1.33-6.43-6-10.76-12-11.31-6.89-.63-12.45 2.58-15 8.92a22 22 0 00.86 18.54m-147.59 4.1a12.75 12.75 0 009.77 2.82c3.74-.39 6.56-2.44 9.31-5.71v5.05h3.65v-33h-3.7c0 6.88.07 13.59 0 20.29a10 10 0 11-19.94-.07c-.09-5.64 0-11.28 0-16.92v-3.29h-3.8v20.86a12.87 12.87 0 004.75 9.94m49-30.33c-.94-.31-1.86-.67-2.81-.92-5.15-1.34-10.32 1.12-11.92 5.63-1.81 5.1.17 9.14 5.7 11.54 2.13.92 4.34 1.67 6.45 2.62 3.35 1.5 4.62 3.45 4.15 6.1s-2.95 4.71-6.25 4.93a11.63 11.63 0 01-10.23-4.47c-.7.83-1.31 1.54-1.89 2.21a13.79 13.79 0 0014.95 5.07 11.44 11.44 0 002.93-1.28 8.81 8.81 0 00-.44-15.28c-3.06-1.64-6.41-2.73-9.54-4.24a4.59 4.59 0 01-2.76-4.81 5.18 5.18 0 013.86-4.65c3.72-1.23 6.83.09 9.82 2.39l1.62-2.15a8.08 8.08 0 00-1-1.06c-.73-.51-1.51-.94-2.62-1.63M379.31 680c-6.52.47-10.62-2.18-12.47-8.11a18.64 18.64 0 010-11.35c1.94-6.13 6.7-9.12 13-7.86 2.17.43 4.19 1.66 6.23 2.51.81-2.51-.48-3.85-2.7-4.9a14.88 14.88 0 00-16 2.39c-6 5.65-7 17.59-2 24.81a14.66 14.66 0 0018.16 4.64c2.18-1.08 3.31-2.5 2.55-4.8-2.13.88-4.24 1.75-6.79 2.67m-223.67-18.29c.84-3.78 2.68-6.87 6.37-8.41 4.68-1.95 9-.94 12.95 2.2.95-2.74-.21-4.13-2.44-5.19a14.84 14.84 0 00-16 2.36c-6 5.67-7 17.57-2 24.8a14.65 14.65 0 0017.92 4.78c2.3-1.08 3.6-2.48 2.53-5.26-.62.45-1.15.88-1.73 1.26-6.47 4.16-14.76 1.53-17-5.84-.95-3.2-.5-6.82-.61-10.7M137.23 651v31.71h3.66V649.1a11.92 11.92 0 00-3.66 1.86m47.86 12.78v19h3.7v-33h-3.7v14M348 657.82v24.89h3.7v-33H348v8.12m3.77-15.25c1.41-1.32 1.73-3 .27-4.18a3.84 3.84 0 00-3.51-.54 3.76 3.76 0 00-1.31 3.3c.5 2.17 2.28 2.48 4.55 1.42m-211.06-4.8c-2.49-.73-4.27-.11-4.34 1.82a4.18 4.18 0 001.54 3.23 3.66 3.66 0 003.31-.6c1.45-1.24 1.19-2.86-.51-4.45m43.4 1.94c.65 1.12 1 2.71 2 3.25a2.34 2.34 0 003.53-1.68 4.3 4.3 0 00-1.36-3.52c-1.64-1.19-3.17-.28-4.14 1.94z" transform="translate(0 -421.01)"/><path class="cls-6" d="M132.79 722h-5.66c.23-.33.71-1 1.21-1 5.55-.19 11.1-.33 16.65-.38q44.07-.39 88.13-.73a2.26 2.26 0 011.81.7c-33.93.5-67.93.96-102.14 1.41z" transform="translate(0 -421.01)"/><path class="cls-7" d="M250.22 720.89c-1.62-.16-3-.34-4.39-.51v-.55h49.34l.06.38c-.8.06-1.6.18-2.39.19q-18.54.29-37.08.52c-1.76.02-3.53-.03-5.54-.03z" transform="translate(0 -421.01)"/><path class="cls-2" d="M314.85 719.94c-4.52.13-9 .27-13.84.22-.27-.33-.24-.48-.2-.63 4.47 0 8.95 0 13.69.09a.56.56 0 01.35.32z" transform="translate(0 -421.01)"/><path class="cls-6" d="M114.83 721.73c0-.16.09-.32.06-.43 3.34-.16 6.71-.25 10.07-.25a2.38 2.38 0 011.6.82c-3.52.23-6.86.23-10.46.27a2.62 2.62 0 01-1.27-.41z" transform="translate(0 -421.01)"/><path class="cls-4" d="M315.09 720a.45.45 0 01-.34-.37c2.45-.11 4.93-.11 7.41-.11v.52c-2.26-.04-4.54-.04-7.07-.04z" transform="translate(0 -421.01)"/><path class="cls-7" d="M300.59 719.5c.18.18.15.33.17.6a20.48 20.48 0 01-2.61.11v-.6c.71-.05 1.47-.09 2.44-.11z" transform="translate(0 -421.01)"/><path d="M227.74 472.06c1.06 4.08 2.08 7.95 3.09 11.76 4.17-3.38 8-6.92 12.25-9.83 19.09-13 39.69-17.13 61.92-9.45 12.22 4.21 21.49 12.27 28.35 23.46.56-.53 1.07-.95 1.5-1.44 12.09-13.71 27.36-21.64 45.23-24.69 14.77-2.52 29.17-1.21 42.59 5.81 16.86 8.83 26.61 23.28 30.76 41.51a91.8 91.8 0 012.24 19.69c.22 34 .11 67.93.1 101.9v1.88c-.23 3.32-2 5.45-5.34 5.59-5.64.23-11.29.19-16.93.2-4.75 0-9.5.06-14.24-.15-3.53-.16-5.33-2-5.76-5.52a28.84 28.84 0 01-.11-3.48c0-32.36 0-64.71-.15-97.06a38.69 38.69 0 00-6.07-21.42c-7-10.7-17.45-14.1-29.61-12.71-20.15 2.3-30.31 18.14-30.57 34-.28 17.74-.13 35.49-.15 53.23v44.1a31.27 31.27 0 01-.16 3.75c-.33 2.93-2.07 4.81-5 5-3.66.24-7.34.21-11 .23H313.2c-7.17 0-8.71-1.52-8.71-8.62 0-30.92.12-61.84-.1-92.76a68.39 68.39 0 00-2.39-17.73c-4.72-16.82-18.79-23.05-34.19-21.22-20.49 2.42-30.37 18.84-30.38 35.28v99c-.29 3.76-2.13 5.79-5.91 6-4.74.21-9.5.14-14.25.15-5.19 0-10.4.1-15.59-.06-4.65-.15-6.58-2.3-6.65-6.93V472.84a24.17 24.17 0 01.06-2.95c.37-3.22 2.41-5.31 5.65-5.37 6.63-.13 13.27-.16 19.89 0 3.9.06 5.53 1.91 7.11 7.54zm-160.25-7.01c22.26-4.61 44.38-6.56 66.51-1.05 17.57 4.37 31.9 13.38 40.09 30.33 4.74 9.8 6.22 20.32 6.25 31 .09 35.12 0 70.24 0 105.37 0 5.66-1.91 7.63-7.54 7.7-5.46.08-10.93.07-16.39 0s-7.1-1.46-8.5-6.66c-1.26-4.71-2.53-9.41-3.88-14.46-2.14 2.34-4 4.5-5.95 6.5C127 635 113.26 640.44 97.85 641.89c-13 1.22-25.73-.29-37.69-6-15.9-7.66-25-20.37-27.59-37.72-1.76-12-.72-23.79 5-34.75 7.45-14.2 19.8-22.24 34.7-26.78 15.08-4.59 30.51-4.92 46-2.93 6.46.83 12.86 2.16 19.56 3.31 0-10.61 1.28-21.56-6.44-30.68-4.88-5.77-11.48-8.3-18.7-9.54-13.66-2.34-26.92.11-40.07 3.53-4.83 1.25-9.55 3-14.31 4.45-5.86 1.85-7.91.79-9.77-5.07-2.14-6.72-4.29-13.44-6.4-20.17-1.44-4.6-.28-7.19 4.46-8.66 6.82-2.11 13.75-3.85 20.86-5.78m39.8 97.62c-3.64.45-7.32.65-10.89 1.4-15.55 3.29-22.83 12.08-21.92 26.52.52 8.26 4.57 14.35 12.15 17.88 6.81 3.18 14 3.61 21.24 2.21 14-2.7 23.86-10.44 28.27-24.34 2.11-6.68 1.9-13.58 1.71-20.56a115.46 115.46 0 00-30.53-3.16z" transform="translate(0 -421.01)" fill="#fefefe"/><path class="cls-9" d="M267.51 682.83h-2.65v-19.15a17.78 17.78 0 00-.46-4.5 9 9 0 00-9.21-6.72c-4.47.24-8.26 3.25-8.69 7.68-.47 4.79-.28 9.66-.35 14.49v8.09h-3.86c0-7.06.1-14 0-21a9.23 9.23 0 00-11.57-9c-4.28 1-7.11 4.8-7.16 9.83-.06 5.82 0 11.65 0 17.47v2.71h-3.58v-33h3.48c.06 1.44.12 2.82.19 4.32 7.84-8.09 16.48-5.78 21.45 1.74a13.71 13.71 0 018.51-6.46c7.13-1.71 14.61 3.41 15 10.76.35 7.15.16 14.33.14 21.5-.11.41-.68.82-1.24 1.24z" transform="translate(0 -421.01)"/><path d="M99.14 661.62c-1-6.08-4.78-9.5-9.87-9.15-5.43.36-8.88 4.38-8.9 10.42v19.77h-3.6v-33h3.43v4.85c3.34-3.8 6.87-5.95 11.43-5.52a11.78 11.78 0 019.53 5.93c1.37-1 2.91-2.27 4.5-3.42 4-2.84 8.25-3.47 12.68-1.38s6.71 5.75 7.16 10.59c.06.62.05 1.25.05 1.88v20h-3.8v-19.88c-.08-6.07-4-10.34-9.36-10.3s-9.39 4.23-9.39 10.27v20h-3.84c0-6.91 0-13.87-.02-21.06z" transform="translate(0 -421.01)" fill="#f9f9fa"/><path class="cls-11" d="M39.39 679.1c-4-7.87-.2-14.77 8.39-15.61 3-.3 6.09-.16 9.12-.3 3.93-.19 5.07-1.94 3.81-5.66a7.59 7.59 0 00-6.71-5.34c-4-.49-7.7.24-10.23 3.83-1.54 2.19-1.53 2.2-4.19 1.69.68-4.57 4.78-8 10.51-8.66 9.05-1.11 14.69 3.76 14.81 12.85q.09 7.26 0 14.51c0 2.21.66 3.68 3.22 3.74v2.37c-1.57 1.93-5.59-.71-7.12-4.66-9.79 7.08-16.26 7.5-21.56 1.24m7.77 1c1.86-.09 3.91.31 5.54-.34 7.57-3 9.45-5.59 8.37-14.56-2.08.23-4.16.51-6.24.67s-4.11.06-6.15.26c-4 .41-6.39 2.54-6.88 5.95s1.15 6.25 5.31 8zm369.26-1.1c-.25-2.08-.92-.77-1.49-.43-2.68 1.54-5.21 3.6-8.09 4.48-4.07 1.23-8.26.7-11.42-2.65a9.76 9.76 0 01-2.12-10.24c1.5-4.69 5.38-6.2 9.77-6.64 3-.3 6.08-.14 9.11-.31 3.54-.2 4.58-1.7 3.68-5.13a7.45 7.45 0 00-6.38-5.76c-4.18-.67-8.23-.12-10.7 3.79-1.18 1.89-2.31 2.47-4.26 1.64.73-4.66 5-8.09 10.77-8.67 8.9-.9 14.28 3.68 14.57 12.58.16 4.74.08 9.49 0 14.24 0 2.36.26 4.37 3.3 4.35v2.27c-1.74 1.55-5.45-.29-6.76-3.52m-12.55-12.88a10 10 0 00-1.34.18c-4.19 1.07-6.18 3.8-5.69 7.79s3.19 6.22 7.43 6.22c5.13 0 8.8-2.58 11.49-6.74a4.1 4.1 0 00.5-2c.06-2.23 0-4.46 0-6.16z" transform="translate(0 -421.01)"/><path d="M431.56 676.29a21.94 21.94 0 01-.77-18.37c2.51-6.34 8.07-9.55 15-8.92 6 .55 10.66 4.88 12 11.31.47 2.26.57 4.59.87 7.15h-25.5c0 4.54 1.06 8.43 4.67 11 4 2.86 8.42 2.52 12.7.35a8 8 0 002.75-2.1c1.3-1.74 2.75-1.66 4.71-.73a14.81 14.81 0 01-11.42 7.37c-6.31.73-11.46-1.25-15-7.06m3.25-18.8c-.69 2.31-1.39 4.61-2.13 7.08h21.95c0-6.16-2.6-10.48-7-11.91-4.97-1.59-9.46.01-12.83 4.83z" transform="translate(0 -421.01)" fill="#eeeef1"/><path class="cls-9" d="M283.92 680.43a12.72 12.72 0 01-4.61-9.81v-20.86h3.8v3.29c0 5.64-.07 11.28 0 16.92a10 10 0 1019.94.07c.1-6.7 0-13.41 0-20.29h3.7v33h-3.65v-5.05c-2.75 3.27-5.57 5.32-9.31 5.71a12.81 12.81 0 01-9.87-2.98z" transform="translate(0 -421.01)"/><path class="cls-11" d="M333.27 650.34c.94.58 1.72 1 2.45 1.52a8.08 8.08 0 011 1.06l-1.62 2.15c-3-2.3-6.1-3.62-9.82-2.39a5.18 5.18 0 00-3.86 4.65 4.59 4.59 0 002.76 4.81c3.13 1.51 6.48 2.6 9.54 4.24a8.81 8.81 0 01.44 15.28 11.44 11.44 0 01-2.93 1.28 13.79 13.79 0 01-14.95-5.07c.58-.67 1.19-1.38 1.89-2.21a11.63 11.63 0 0010.23 4.47c3.3-.22 5.77-2.22 6.25-4.93s-.8-4.6-4.15-6.1c-2.11-1-4.32-1.7-6.45-2.62-5.53-2.4-7.51-6.44-5.7-11.54 1.6-4.51 6.77-7 11.92-5.63a30.51 30.51 0 013 1.03z" transform="translate(0 -421.01)"/><path class="cls-13" d="M379.53 680c2.33-.89 4.44-1.76 6.57-2.64.76 2.3-.37 3.72-2.55 4.8a14.66 14.66 0 01-18.16-4.64c-5-7.22-4-19.16 2-24.81a14.88 14.88 0 0116-2.39c2.22 1.05 3.51 2.39 2.7 4.9-2-.85-4.06-2.08-6.23-2.51-6.3-1.26-11.06 1.73-13 7.86a18.64 18.64 0 000 11.35c1.83 5.9 5.93 8.55 12.67 8.08z" transform="translate(0 -421.01)"/><path d="M155.58 661.93c.15 3.66-.3 7.28.65 10.48 2.19 7.37 10.48 10 17 5.84.58-.38 1.11-.81 1.73-1.26 1.07 2.78-.23 4.18-2.53 5.26a14.65 14.65 0 01-17.92-4.78c-5-7.23-4-19.13 2-24.8a14.84 14.84 0 0116-2.36c2.23 1.06 3.39 2.45 2.44 5.19-3.93-3.14-8.27-4.15-12.95-2.2-3.7 1.54-5.54 4.63-6.42 8.63zm-18.34-11.22a21.83 21.83 0 013.65-1.61v33.57h-3.66c0-10.53 0-21.12.01-31.96zm47.85 12.76v-13.76h3.7v33h-3.7zM348 657.55v-7.85h3.7v33H348z" transform="translate(0 -421.01)" fill="#f6f6f8"/><path class="cls-13" d="M351.64 642.69c-2.11.94-3.89.63-4.39-1.54a3.76 3.76 0 011.31-3.3 3.84 3.84 0 013.51.54c1.46 1.22 1.14 2.86-.43 4.3zm-210.75-4.8c1.55 1.47 1.81 3.09.36 4.33a3.66 3.66 0 01-3.31.6 4.18 4.18 0 01-1.54-3.23c.07-1.93 1.85-2.59 4.49-1.7zm43.29 1.61c.93-2 2.46-2.92 4.13-1.74a4.3 4.3 0 011.36 3.52 2.34 2.34 0 01-3.53 1.68c-.97-.54-1.35-2.13-1.96-3.46z" transform="translate(0 -421.01)"/><path class="cls-5" d="M107.54 562.64a115.94 115.94 0 0130.31 3.14c.19 7 .4 13.88-1.71 20.56-4.41 13.9-14.25 21.64-28.27 24.34-7.25 1.4-14.43 1-21.24-2.21-7.58-3.53-11.63-9.62-12.15-17.88-.91-14.44 6.37-23.23 21.92-26.52 3.6-.75 7.25-.95 11.14-1.43z" transform="translate(0 -421.01)"/><path d="M47 680c-4-1.69-5.67-4.42-5.15-8s2.88-5.54 6.88-5.95c2-.2 4.11-.11 6.15-.26s4.16-.44 6.24-.67c1.08 9-.8 11.57-8.37 14.56-1.68.71-3.75.32-5.75.32z" transform="translate(0 -421.01)" fill="#0d0736"/><path d="M404.15 666.05l12.18-.72v6.16a4.1 4.1 0 01-.5 2c-2.69 4.16-6.36 6.75-11.49 6.74-4.24 0-6.94-2.31-7.43-6.22s1.5-6.72 5.69-7.79a11.79 11.79 0 011.55-.17z" transform="translate(0 -421.01)" fill="#0e0837"/><path d="M434.91 657.32c3.27-4.65 7.76-6.25 12.68-4.66 4.44 1.43 7 5.75 7 11.91h-21.91c.74-2.47 1.44-4.77 2.23-7.25z" transform="translate(0 -421.01)" fill="#0a0534"/></svg>