<svg xmlns="http://www.w3.org/2000/svg" xmlns:xlink="http://www.w3.org/1999/xlink" xmlns:svgjs="http://svgjs.com/svgjs" height="364"><svg version="1.1" id="SvgjsSvg1000" xmlns="http://www.w3.org/2000/svg" x="0" y="0" width="100%" viewBox="0 0 828 364" xml:space="preserve"><path fill="#090332" d="M568 365H1V1h828v364H568M296.159 120.23c-.384-3.64-.64-7.3-1.173-10.919-4.012-27.256-15.506-50.464-37.665-67.493-22.373-17.195-48.503-24.269-76.09-26.81-28.741-2.648-57.28-.398-85.46 5.3-15.76 3.187-31.276 7.68-46.773 12.043-9.299 2.618-11.798 7.982-8.934 17.131A5944.543 5944.543 0 0052.1 87.473c3.054 9.533 6.849 11.536 16.527 8.628 9.366-2.814 18.588-6.158 28.045-8.607 24.443-6.328 49.073-10.702 74.518-6.59 23.937 3.869 40.473 17.063 44.552 38.223 2.307 11.968 2.159 24.41 3.146 37.014-10.947-2.04-20.654-4.143-30.456-5.62-29.918-4.51-59.74-4.559-89.14 3.531-22.605 6.22-42.661 16.96-57.745 35.424-16.414 20.094-21.523 43.555-20.649 69.057 1.388 40.49 26.745 74.282 65.362 86.426 21.371 6.721 43.102 8.278 65.118 4.953 29.85-4.508 55.336-17.265 74.646-41.088.969-1.195 2.058-2.292 3.378-3.752 2.566 9.61 5.135 18.381 7.196 27.27 1.21 5.214 3.648 9.144 8.601 12.353.809.428 1.615 1.225 2.427 1.23 12.54.084 25.08.118 37.618-.012 1.254-.013 2.495-1.168 4.384-2.07 5.25-2.24 7.278-6.44 7.307-11.903.019-3.653.127-7.304.713-11.6.118-1.978.339-3.957.34-5.935.018-54.532-.01-109.064.056-163.596.006-4.948.913-9.904.79-14.841-.082-3.34-1.237-6.654-2.245-10.716-.009-1.066-.018-2.132.4-3.41-.19-.287-.38-.574-.831-1.612m230.144 21.463c-.102.82-.294 1.64-.294 2.46-.013 59.805-.02 119.61.046 179.414.002 1.517.815 3.032 1.552 5.29-.174 6.053.449 11.758 6.116 15.372l-.107 1.205c.484-.2.968-.4 2.318-.479 2.014-.036 4.029-.072 6.603.525.8.172 1.6.493 2.402.495 15.16.03 30.32.05 45.48-.027 1.202-.007 2.4-.734 4.27-1.507 8.968-1.216 11.703-4.323 11.754-13.998.093-17.49.016-34.982.03-52.473.036-43.476-.155-86.955.208-130.428.253-30.232 19.598-59.797 57.047-64.107 25.072-2.886 48.435 6.887 59.4 32.146 5.559 12.803 7.081 26.205 7.078 39.94-.01 57.97.016 115.94-.037 173.91-.006 6.399 1.175 11.94 8.054 15.443.855.37 1.709 1.062 2.565 1.065 19.262.065 38.524.088 57.786-.026 1.143-.007 2.278-1.226 3.908-2.362 5.793-2.655 6.635-7.648 6.63-13.308-.054-63.157.182-126.315-.217-189.47-.077-12.222-1.33-24.72-4.153-36.589-9.454-39.733-31.577-69.83-71.356-83.066-46.869-15.594-90.252-5.817-129.668 22.819-8.121 5.9-15.044 13.45-22.544 20.262-9.783-15.653-22.395-29.03-39.49-37.33-45.66-22.166-88.698-15.12-129.458 12.71-7.472 5.102-14.122 11.406-21.433 17.385-2.26-8.534-4.402-17.037-6.78-25.472-2.102-7.462-6.008-10.478-13.692-10.576-10.497-.135-20.996-.107-31.494-.066-11.494.045-14.825 3.432-14.826 14.947-.006 97.985-.008 195.97-.008 293.955 0 11.12 3.372 14.62 14.614 14.751 10.83.126 21.663.052 32.495.002 7.16-.033 14.337.08 21.477-.352 6.002-.364 9.33-3.822 10.135-9.737.29-2.133.195-4.324.195-6.489.008-57.99-.02-115.982.048-173.973.006-5.473.15-11.019 1.005-16.408 8.254-52.074 60.902-64.397 92.86-48.008 20.622 10.575 27.742 29.785 29.481 52.155z"/><path fill="#FEFEFE" d="M541.977 344.846c-2.014.037-4.029.073-6.525-.187-.636-.636-.898-.784-1.27-.741-6.126-3.303-6.749-9.008-6.58-15.82.01-58.385.046-116.011.005-173.637-.004-4.482-.546-8.964-.838-13.446-2.205-21.692-9.325-40.902-29.947-51.477-31.958-16.39-84.606-4.066-92.86 48.008-.854 5.39-.999 10.935-1.005 16.408-.068 57.991-.04 115.982-.048 173.973 0 2.165.096 4.356-.195 6.489-.805 5.915-4.133 9.373-10.135 9.737-7.14.433-14.316.32-21.477.352-10.832.05-21.665.124-32.495-.002-11.242-.13-14.614-3.631-14.614-14.751 0-97.985.002-195.97.008-293.955.001-11.515 3.332-14.902 14.826-14.947 10.498-.041 20.997-.069 31.494.066 7.684.098 11.59 3.114 13.693 10.576 2.377 8.435 4.519 16.938 6.779 25.472 7.31-5.979 13.961-12.283 21.433-17.385 40.76-27.83 83.799-34.876 129.459-12.71 17.094 8.3 29.706 21.677 39.489 37.33 7.5-6.812 14.423-14.362 22.544-20.262 39.416-28.636 82.8-38.413 129.668-22.819 39.78 13.235 61.902 43.333 71.356 83.066 2.824 11.869 4.076 24.367 4.153 36.59.4 63.154.163 126.312.217 189.47.005 5.659-.837 10.652-7.318 13.523-21.724.257-42.76.3-63.795.342-6.655-2.738-7.836-8.279-7.83-14.677.053-57.97.027-115.94.037-173.91.003-13.736-1.52-27.138-7.077-39.941-10.966-25.26-34.33-35.032-59.4-32.146-37.45 4.31-56.795 33.875-57.048 64.107-.363 43.473-.172 86.952-.208 130.428-.014 17.491.063 34.982-.03 52.473-.051 9.675-2.786 12.782-12.545 14.07-17.834.158-34.878.246-51.921.333zm-296.938-.951c-4.792-2.409-7.23-6.34-8.44-11.554-2.061-8.888-4.63-17.659-7.196-27.269-1.32 1.46-2.41 2.557-3.378 3.752-19.31 23.823-44.797 36.58-74.646 41.088-22.016 3.325-43.747 1.768-65.118-4.953-38.617-12.144-63.974-45.935-65.362-86.426-.874-25.502 4.235-48.963 20.65-69.057 15.083-18.464 35.14-29.204 57.745-35.424 29.399-8.09 59.221-8.04 89.14-3.532 9.8 1.478 19.508 3.58 30.455 5.62-.987-12.603-.84-25.045-3.146-37.013-4.08-21.16-20.615-34.354-44.552-38.223-25.445-4.112-50.075.262-74.518 6.59-9.457 2.449-18.68 5.793-28.045 8.607-9.678 2.908-13.473.905-16.527-8.628a5944.543 5944.543 0 01-12.037-37.991c-2.864-9.15-.365-14.513 8.934-17.13 15.497-4.364 31.012-8.857 46.773-12.044 28.18-5.698 56.719-7.948 85.46-5.3 27.587 2.541 53.717 9.615 76.09 26.81 22.159 17.029 33.653 40.237 37.665 67.493.533 3.619.789 7.278 1.24 11.576.156.827.247.997.337 1.167.01 1.066.018 2.132.113 4.03.151 61.7.213 122.57.288 183.438.005 3.82.109 7.64.167 11.461-.068 3.653-.176 7.304-.195 10.957-.03 5.463-2.057 9.662-8.095 12.005-15.126.052-29.464 0-43.802-.05m-31.467-92.932c4.875-13.444 4.732-27.393 4.3-41.58-17.607-4.226-35.37-6.426-53.363-6.013-13.341.306-26.551 2.015-38.918 7.567-18.622 8.359-26.85 22.93-25.602 45.112.953 16.955 11.733 29.821 30.128 35.535 10.366 3.22 21.007 3.344 31.596 1.324 24.392-4.655 42.457-17.358 51.859-41.945z"/><path fill="#080224" d="M526.536 141.354c.525 4.143 1.067 8.625 1.07 13.107.042 57.626.006 115.252-.156 173.266-.58-1.128-1.393-2.643-1.395-4.16-.065-59.804-.059-119.609-.046-179.414 0-.82.192-1.64.527-2.8z"/><path fill="#080421" d="M297.39 320.662c-.317-3.5-.421-7.32-.426-11.14-.075-60.869-.137-121.737-.121-183.07.755 2.862 1.91 6.176 1.993 9.516.122 4.937-.785 9.893-.791 14.841-.066 54.532-.038 109.064-.056 163.596-.001 1.978-.222 3.957-.6 6.257z"/><path fill="#0E0B27" d="M245.12 344.295c14.257-.35 28.595-.298 43.4-.211-.78.66-2.021 1.816-3.275 1.829-12.538.13-25.079.096-37.618.012-.812-.005-1.618-.802-2.508-1.63z"/><path fill="#070420" d="M738.111 344.491c20.924-.424 41.96-.467 63.438-.484-.697.68-1.832 1.9-2.975 1.906-19.262.114-38.524.09-57.786.026-.856-.003-1.71-.695-2.677-1.448z"/><path fill="#070421" d="M542.257 345.163c16.763-.404 33.807-.492 51.306-.46-.744.51-1.942 1.238-3.145 1.245-15.16.077-30.32.057-45.48.027-.8-.002-1.6-.323-2.68-.812zm-8.304-1.09c.6-.198.863-.05 1.066.527-.435.435-.92.634-1.403.834.035-.402.071-.803.337-1.36z"/><path fill="#080421" d="M296.776 121.948c-.303-.064-.394-.234-.42-.686.253.006.443.293.42.686z"/><path fill="#090332" d="M213.398 251.315c-9.228 24.235-27.293 36.938-51.685 41.593-10.589 2.02-21.23 1.896-31.596-1.324-18.395-5.714-29.175-18.58-30.128-35.535-1.247-22.183 6.98-36.753 25.602-45.112 12.367-5.552 25.577-7.261 38.918-7.567 17.992-.413 35.756 1.787 53.363 6.012.432 14.188.575 28.137-4.474 41.933z"/></svg><style>@media (prefers-color-scheme:light){:root{filter:none}}</style></svg>