<svg version="1.0" xmlns="http://www.w3.org/2000/svg" width="133.333" height="133.333" viewBox="0 0 100 100"><path d="M0 50v50h100V0H0v50zm30.7-16.4c5.1 3.2 5.8 5.8 5.8 20.4v13.5l-3.1.3c-2.5.2-3.3-.1-3.7-1.8-.5-2-.6-2-4.3.5C17 72.2 6 67.3 6 57.9c0-7.6 8.2-12.9 17.7-11.4 3.7.5 4.3.4 4.3-1.2 0-1-.7-2.9-1.6-4.2-1.5-2.1-2.2-2.3-7.8-1.8-3.4.2-6.7.6-7.5.8-1.7.5-3.7-4.9-2.4-6.2 2.9-2.9 17.7-3.1 22-.3zm31.6-1.3c1.8.8 3.8 2.1 4.6 3.1 1.3 1.6 1.5 1.5 3.5-.3 3-2.8 9.5-4.3 13.6-3.1 7.8 2.2 10.3 8.6 9.8 25.6l-.3 9.9-4.2.3-4.3.3V56.2c0-10.6-.2-12.2-2.1-14.6-2.6-3.3-6.2-3.4-9.4-.1-2.4 2.3-2.5 3-2.5 14.5v12h-9V55.5c0-11.2-.2-12.7-2-14.5-2.5-2.5-6.1-2.6-9.1-.1-2.3 1.8-2.4 2.7-2.7 14.5L47.8 68H40V32h2.9c2.1 0 3.2.6 3.6 2.1.6 1.9.8 1.9 2.5.4s6-3.2 8.8-3.4c.7-.1 2.7.5 4.5 1.2z"/><path d="M19.5 52.7c-3 .8-4.5 2.3-4.5 4.7 0 5.2 7.4 6.5 10.9 2 2.3-3 2.8-6.4.9-6.4-.7 0-2.2-.2-3.3-.4-1.1-.2-2.9-.2-4 .1z"/></svg>