<svg id="Layer_1" data-name="Layer 1" xmlns="http://www.w3.org/2000/svg" viewBox="0 0 496.34 302.34"><defs><style>.cls-1{fill:#f1f1f3;}.cls-2{fill:#676481;}.cls-3{fill:#aba9b9;}.cls-4{fill:#c2c0cc;}.cls-5{fill:#090333;}.cls-6{fill:#1e1944;}.cls-7{fill:#363158;}.cls-8{fill:#fefefe;}.cls-9{fill:#f7f7f8;}.cls-10{fill:#f9f9fa;}.cls-11{fill:#f6f5f7;}.cls-12{fill:#eeeef1;}.cls-13{fill:#f4f4f6;}.cls-14{fill:#f6f6f8;}.cls-15{fill:#0d0736;}.cls-16{fill:#0e0837;}.cls-17{fill:#0a0534;}</style></defs><path class="cls-1" d="M495.16,693.14v28.65c-3.11.14-6,.4-8.94.38q-39.64-.27-79.28-.62c-7.44-.06-14.88-.34-22.31-.27-14.6.15-29.19.65-43.78.69-19.71,0-39.42-.37-59.13-.28-49.55.21-99.1.59-148.9.76-.25-.14-.28-.37,0-.41,34.22-.49,68.18-.95,102.14-1.41a2.26,2.26,0,0,0-1.81-.7q-44.07.35-88.13.73c-5.55.05-11.1.19-16.65.38-.5,0-1,.69-1.53,1-.06-.12-.31-.12-.31-.12s-.11.23.06,0a2.38,2.38,0,0,0-1.6-.82c-3.36,0-6.73.09-10.34.08-4.94.06-9.64.19-14.34.31-19.72-.15-39.43-.2-59.15-.49-12.72-.19-25.43-.74-38.27-1.13l-1,2.41a8.31,8.31,0,0,1-.57-9.58,7.38,7.38,0,0,0,.63-3.59c-.13-9.95-.36-19.89-.48-29.84-.12-9.49-.14-19-.19-28.46C1.12,633.84.92,616.92,1,600c.07-19.27.53-38.53.52-57.8,0-17.74-.58-35.48-.6-53.22,0-21.33.3-42.65.47-64,0-.62,0-1.24,0-2.53L495.19,421c0,1.84,0,2.9,0,4-.15,29.13-.36,58.25-.42,87.38,0,7.78.49,15.57.62,23.35.07,4.21-.26,8.42-.2,12.63.23,17.55.59,35.11.8,52.66.08,6.9-.19,13.8-.12,20.7.08,8.74.35,17.48.32,26.44-.35.22-.48.22-.76.11a.39.39,0,0,0-.37.35q0,22.27.1,44.55M314.23,719.52c-4.47,0-9,0-13.86,0l-2.26.13,0,.6a29.73,29.73,0,0,1,3.14.13c4.52-.13,9-.27,14-.32h6.84l0-.52c-2.48,0-5,0-7.93,0M373.7,425.36c-9.83-.21-19.65-.55-29.48-.61-16.66-.1-33.31-.06-50,0-21.6.05-43.2.22-64.79.27q-63.94.15-127.89.21c-12.71,0-25.41-.51-38.11-.58-5.88,0-11.77.46-17.65.69-5.71.23-11.42.56-17.13.64-8.14.11-16.28,0-24.58,0A8.48,8.48,0,0,0,4,427.3q0,34.82.14,69.63c0,8.31.33,16.61.46,24.92.07,3.93.07,7.85,0,11.78,0,2.45-.2,4.91-.22,7.36,0,1.7.18,3.41.16,5.11-.08,6.89-.34,13.78-.28,20.68.07,8.76.5,17.52.58,26.28.06,6.05-.27,12.11-.31,18.16,0,3.38.36,6.77.2,10.14-.24,5.13-.89,10.24-1.19,15.38-.18,3.12-.11,6.27,0,9.4.31,13.25.85,26.5.94,39.75.07,9.94-.41,19.89-.64,29.83,0,.86,0,1.72,0,2.69.85.06,1.46.13,2.07.14,9.68.1,19.36.32,29,.26,20.59-.12,41.18-.38,61.76-.61,7.88-.08,15.76-.24,23.64-.31,9.94-.1,19.88-.24,29.82-.19,5.59,0,11.19.59,16.79.57,18.36,0,36.72-.3,55.08-.4,4.39,0,8.78.39,13.16.33,14.24-.19,28.48-.73,42.72-.71,15.47,0,30.94.72,46.41.81,11.89.06,23.79-.38,35.68-.57,1.61,0,3.23,0,4.84.1,10.79.3,21.59.83,32.38.86,21.55,0,43.1-.18,64.65-.31a186.51,186.51,0,0,1,28.34,1.53c1.42.21,2.79,0,2.78-2.19,0-11.9.06-23.8.12-35.7q.15-28.87.32-57.75c0-3.84.45-7.69.34-11.53-.17-6.14-.9-12.26-.93-18.39,0-10.27.41-20.55.45-30.82.05-15.13,0-30.26-.13-45.4-.07-12.16-.22-24.33-.31-36.49q-.19-27.42-.37-54.85c0-.76-.1-1.53-.14-2.08l-118.63.65M250.45,720.88c1.78,0,3.55.06,5.33,0q18.54-.24,37.08-.52c.79,0,1.59-.13,2.39-.19l-.06-.38H245.85l0,.55C247.21,720.55,248.6,720.73,250.45,720.88Z" transform="translate(0 -421.01)"/><path class="cls-2" d="M495.35,693.08c-.23-14.79-.27-29.64-.29-44.49,0-.16.14-.31.32-.1.09,2.76,0,5.14.11,7.53.07,1.61.4,3.21.62,4.82.06,8.5.18,17,.15,25.49A37.06,37.06,0,0,1,495.35,693.08Z" transform="translate(0 -421.01)"/><path class="cls-3" d="M66.4,722.36H93.83v.83c-8.25,0-16.5.09-24.75-.05-3.19,0-6.58,1-9.54-1.24-.34-.26-1.12.07-1.68.45Z" transform="translate(0 -421.01)"/><path class="cls-1" d="M115.83,723c-5.31-.25-10.62-.5-15.51-.8,5.1-.24,9.78-.43,14.51-.46.38.25.7.34,1,.57C115.85,722.63,115.84,722.81,115.83,723Z" transform="translate(0 -421.01)"/><path class="cls-3" d="M34.72,723.15H29.59v-.88H45.51l0,.24Z" transform="translate(0 -421.01)"/><path class="cls-4" d="M116.08,723.07c-.24-.26-.23-.44,0-.8,3.6-.17,6.94-.17,10.29-.17l.11-.23a2.61,2.61,0,0,1,.57.08c2,.1,3.76.11,5.47.13,0,0,0,.23,0,.34C127.15,722.74,121.74,722.94,116.08,723.07Z" transform="translate(0 -421.01)"/><path class="cls-2" d="M114.78,721.57c-4.68.19-9.36.38-14.28.52-.23-.15-.21-.25-.21-.5,4.69-.27,9.39-.4,14.36-.35C114.92,721.41,114.78,721.57,114.78,721.57Z" transform="translate(0 -421.01)"/><path class="cls-3" d="M496.26,660.67a22.93,22.93,0,0,1-.77-4.65c-.11-2.39,0-4.77,0-7.41.18-.26.31-.26.63-.23C496.37,652.45,496.39,656.47,496.26,660.67Z" transform="translate(0 -421.01)"/><path class="cls-5" d="M374,425.36l118.36-.65c0,.55.14,1.32.14,2.08q.19,27.43.37,54.85c.09,12.16.24,24.33.31,36.49.08,15.14.18,30.27.13,45.4,0,10.27-.48,20.55-.45,30.82,0,6.13.76,12.25.93,18.39.11,3.84-.31,7.69-.34,11.53q-.19,28.88-.32,57.75c-.06,11.9-.13,23.8-.12,35.7,0,2.16-1.36,2.4-2.78,2.19a186.51,186.51,0,0,0-28.34-1.53c-21.55.13-43.1.36-64.65.31-10.79,0-21.59-.56-32.38-.86-1.61-.05-3.23-.13-4.84-.1-11.89.19-23.79.63-35.68.57-15.47-.09-30.94-.78-46.41-.81-14.24,0-28.48.52-42.72.71-4.38.06-8.77-.35-13.16-.33-18.36.1-36.72.35-55.08.4-5.6,0-11.2-.54-16.79-.57-9.94-.05-19.88.09-29.82.19-7.88.07-15.76.23-23.64.31-20.58.23-41.17.49-61.76.61-9.67.06-19.35-.16-29-.26-.61,0-1.22-.08-2.07-.14,0-1,0-1.83,0-2.69.23-9.94.71-19.89.64-29.83-.09-13.25-.63-26.5-.94-39.75-.08-3.13-.15-6.28,0-9.4.3-5.14.95-10.25,1.19-15.38.16-3.37-.23-6.76-.2-10.14,0-6.05.37-12.11.31-18.16-.08-8.76-.51-17.52-.58-26.28-.06-6.9.2-13.79.28-20.68,0-1.7-.18-3.41-.16-5.11,0-2.45.2-4.91.22-7.36,0-3.93,0-7.85,0-11.78-.13-8.31-.42-16.61-.46-24.92Q4,462.12,4,427.3A8.48,8.48,0,0,1,4.1,426c8.3,0,16.44.08,24.58,0,5.71-.08,11.42-.41,17.13-.64,5.88-.23,11.77-.72,17.65-.69,12.7.07,25.4.57,38.11.58q63.94,0,127.89-.21c21.59-.05,43.19-.22,64.79-.27,16.66-.05,33.31-.09,50,0,9.83.06,19.65.4,29.75.61M227.71,471.84c-1.55-5.41-3.18-7.26-7.19-7.34-6.62-.14-13.26-.11-19.89,0-3.24.06-5.28,2.15-5.65,5.37a24.17,24.17,0,0,0-.06,2.95V626.36c0,1.71,0,3.41,0,5.11.07,4.63,2,6.78,6.65,6.93,5.19.16,10.4.07,15.59.06,4.75,0,9.51.06,14.25-.15,3.78-.17,5.62-2.2,5.91-6,.07-1,0-2,0-3q0-48,0-96c0-16.44,9.89-32.86,30.38-35.28,15.4-1.83,29.47,4.4,34.19,21.22a68.39,68.39,0,0,1,2.39,17.73c.22,30.92.1,61.84.1,92.76,0,7.1,1.54,8.61,8.71,8.62,5.83,0,11.65,0,17.48,0,3.67,0,7.35,0,11-.23,2.93-.19,4.67-2.07,5-5a31.27,31.27,0,0,0,.16-3.75q0-22.05,0-44.1c0-17.74-.13-35.49.15-53.23.26-15.89,10.42-31.73,30.57-34,12.16-1.39,22.59,2,29.61,12.71a38.69,38.69,0,0,1,6.07,21.42c.15,32.35.11,64.7.15,97.06a28.84,28.84,0,0,0,.11,3.48c.43,3.49,2.23,5.36,5.76,5.52,4.74.21,9.49.16,14.24.15,5.64,0,11.29,0,16.93-.2,3.3-.14,5.11-2.27,5.34-5.59,0-.63,0-1.25,0-1.88,0-34,.12-67.94-.1-101.9a91.8,91.8,0,0,0-2.24-19.69c-4.15-18.23-13.9-32.68-30.76-41.51-13.42-7-27.82-8.33-42.59-5.81-17.87,3.05-33.14,11-45.23,24.69-.43.49-.94.91-1.5,1.44-6.86-11.19-16.13-19.25-28.35-23.46-22.23-7.68-42.83-3.59-61.92,9.45-4.26,2.91-8.08,6.45-12.25,9.83-1-3.81-2-7.68-3.12-12M67.27,465.08c-6.89,1.9-13.82,3.64-20.64,5.75-4.74,1.47-5.9,4.06-4.46,8.66,2.11,6.73,4.26,13.45,6.4,20.17,1.86,5.86,3.91,6.92,9.77,5.07,4.76-1.5,9.48-3.2,14.31-4.45,13.15-3.42,26.41-5.87,40.07-3.53,7.22,1.24,13.82,3.77,18.7,9.54,7.72,9.12,6.46,20.07,6.44,30.68-6.7-1.15-13.1-2.48-19.56-3.31-15.5-2-30.93-1.66-46,2.93-14.9,4.54-27.25,12.58-34.7,26.78-5.74,11-6.78,22.73-5,34.75,2.55,17.35,11.69,30.06,27.59,37.72,12,5.76,24.66,7.27,37.69,6,15.41-1.45,29.17-6.86,40.26-18.06,2-2,3.81-4.16,5.95-6.5,1.35,5,2.62,9.75,3.88,14.46,1.4,5.2,3.11,6.6,8.5,6.66s10.93.07,16.39,0c5.63-.07,7.54-2,7.54-7.7,0-35.13.06-70.25,0-105.37,0-10.72-1.51-21.24-6.25-31-8.19-16.95-22.52-26-40.09-30.33-22.13-5.51-44.25-3.56-66.73,1.08m200.5,217.75c.3-.42.87-.83.88-1.25,0-7.17.21-14.35-.14-21.5-.36-7.35-7.84-12.47-15-10.76a13.71,13.71,0,0,0-8.51,6.46c-5-7.52-13.61-9.83-21.45-1.74-.07-1.5-.13-2.88-.19-4.32h-3.48v33h3.58V680c0-5.82,0-11.65,0-17.47.05-5,2.88-8.83,7.16-9.83a9.23,9.23,0,0,1,11.57,9c.13,7,0,13.92,0,21h3.86c0-2.76,0-5.43,0-8.09.07-4.83-.12-9.7.35-14.49.43-4.43,4.22-7.44,8.69-7.68a9,9,0,0,1,9.21,6.72,17.78,17.78,0,0,1,.46,4.5c.05,6.33,0,12.67,0,19.15h2.91m-168.61-21v20.82H103c0-6.76,0-13.38,0-20,0-6,3.91-10.23,9.39-10.27s9.28,4.23,9.36,10.3c0,2.87,0,5.74,0,8.6v11.35h3.8v-20c0-.63,0-1.26-.05-1.88-.45-4.84-2.76-8.51-7.16-10.59s-8.72-1.46-12.68,1.38c-1.59,1.15-3.13,2.38-4.5,3.42A11.78,11.78,0,0,0,91.62,649c-4.56-.43-8.09,1.72-11.43,5.52v-4.85H76.76v33h3.6c0-6.71,0-13.24,0-19.77,0-6,3.47-10.06,8.9-10.42,5.09-.35,8.86,3.07,9.89,9.39M39.49,679.27c5.2,6.09,11.67,5.67,21.46-1.41,1.53,3.95,5.55,6.59,7.12,4.66v-2.37c-2.56-.06-3.25-1.53-3.22-3.74q.09-7.26,0-14.51c-.12-9.09-5.76-14-14.81-12.85-5.73.71-9.83,4.09-10.51,8.66,2.66.51,2.65.5,4.19-1.69,2.53-3.59,6.21-4.32,10.23-3.83a7.59,7.59,0,0,1,6.75,5.34c1.26,3.72.12,5.47-3.81,5.66-3,.14-6.1,0-9.12.3-8.59.84-12.34,7.74-8.29,15.78m377-.11c1.28,3,5,4.86,6.73,3.31V680.2c-3,0-3.33-2-3.3-4.35.06-4.75.14-9.5,0-14.24-.29-8.9-5.67-13.48-14.57-12.58-5.79.58-10,4-10.77,8.67,1.95.83,3.08.25,4.26-1.64,2.47-3.91,6.52-4.46,10.7-3.79a7.45,7.45,0,0,1,6.38,5.76c.9,3.43-.14,4.93-3.68,5.13-3,.17-6.09,0-9.11.31-4.39.44-8.27,1.95-9.77,6.64a9.76,9.76,0,0,0,2.12,10.24c3.16,3.35,7.35,3.88,11.42,2.65,2.88-.88,5.41-2.94,8.09-4.48.57-.34,1.24-1.65,1.52.64m15.15-2.7c3.41,5.64,8.56,7.62,14.87,6.89A14.81,14.81,0,0,0,457.94,676c-2-.93-3.41-1-4.71.73a8,8,0,0,1-2.75,2.1c-4.28,2.17-8.67,2.51-12.7-.35-3.61-2.57-4.66-6.46-4.67-11h25.5c-.3-2.56-.4-4.89-.87-7.15-1.33-6.43-6-10.76-12-11.31-6.89-.63-12.45,2.58-15,8.92a22,22,0,0,0,.86,18.54m-147.59,4.1a12.75,12.75,0,0,0,9.77,2.82c3.74-.39,6.56-2.44,9.31-5.71v5.05h3.65v-33h-3.7c0,6.88.07,13.59,0,20.29a10,10,0,1,1-19.94-.07c-.09-5.64,0-11.28,0-16.92v-3.29h-3.8c0,7.08,0,14,0,20.86a12.87,12.87,0,0,0,4.75,9.94m49-30.33c-.94-.31-1.86-.67-2.81-.92-5.15-1.34-10.32,1.12-11.92,5.63-1.81,5.1.17,9.14,5.7,11.54,2.13.92,4.34,1.67,6.45,2.62,3.35,1.5,4.62,3.45,4.15,6.1s-2.95,4.71-6.25,4.93a11.63,11.63,0,0,1-10.23-4.47c-.7.83-1.31,1.54-1.89,2.21a13.79,13.79,0,0,0,14.95,5.07,11.44,11.44,0,0,0,2.93-1.28,8.81,8.81,0,0,0-.44-15.28c-3.06-1.64-6.41-2.73-9.54-4.24a4.59,4.59,0,0,1-2.76-4.81,5.18,5.18,0,0,1,3.86-4.65c3.72-1.23,6.83.09,9.82,2.39l1.62-2.15a8.08,8.08,0,0,0-1-1.06c-.73-.51-1.51-.94-2.62-1.63M379.31,680c-6.52.47-10.62-2.18-12.47-8.11a18.64,18.64,0,0,1,0-11.35c1.94-6.13,6.7-9.12,13-7.86,2.17.43,4.19,1.66,6.23,2.51.81-2.51-.48-3.85-2.7-4.9a14.88,14.88,0,0,0-16,2.39c-6,5.65-7,17.59-2,24.81a14.66,14.66,0,0,0,18.16,4.64c2.18-1.08,3.31-2.5,2.55-4.8-2.13.88-4.24,1.75-6.79,2.67M155.62,661.71c.84-3.78,2.68-6.87,6.37-8.41,4.68-1.95,9-.94,12.95,2.2.95-2.74-.21-4.13-2.44-5.19a14.84,14.84,0,0,0-16,2.36c-6,5.67-7,17.57-2,24.8a14.65,14.65,0,0,0,17.92,4.78c2.3-1.08,3.6-2.48,2.53-5.26-.62.45-1.15.88-1.73,1.26-6.47,4.16-14.76,1.53-17-5.84-.95-3.2-.5-6.82-.61-10.7M137.23,651v31.71h3.66V649.1a11.92,11.92,0,0,0-3.66,1.86m47.86,12.78v19h3.7v-33h-3.7v14M348,657.82v24.89h3.7v-33H348v8.12m3.77-15.25c1.41-1.32,1.73-3,.27-4.18a3.84,3.84,0,0,0-3.51-.54,3.76,3.76,0,0,0-1.31,3.3c.5,2.17,2.28,2.48,4.55,1.42m-211.06-4.8c-2.49-.73-4.27-.11-4.34,1.82a4.18,4.18,0,0,0,1.54,3.23,3.66,3.66,0,0,0,3.31-.6c1.45-1.24,1.19-2.86-.51-4.45m43.4,1.94c.65,1.12,1,2.71,2,3.25a2.34,2.34,0,0,0,3.53-1.68,4.3,4.3,0,0,0-1.36-3.52C186.64,636.58,185.11,637.49,184.14,639.71Z" transform="translate(0 -421.01)"/><path class="cls-6" d="M132.79,722c-2,0-3.68,0-5.66,0,.23-.33.71-1,1.21-1,5.55-.19,11.1-.33,16.65-.38q44.07-.39,88.13-.73a2.26,2.26,0,0,1,1.81.7C201,721.09,167,721.55,132.79,722Z" transform="translate(0 -421.01)"/><path class="cls-7" d="M250.22,720.89c-1.62-.16-3-.34-4.39-.51l0-.55h49.34l.06.38c-.8.06-1.6.18-2.39.19q-18.54.29-37.08.52C254,720.94,252.23,720.89,250.22,720.89Z" transform="translate(0 -421.01)"/><path class="cls-2" d="M314.85,719.94c-4.52.13-9,.27-13.84.22-.27-.33-.24-.48-.2-.63,4.47,0,8.95,0,13.69.09A.56.56,0,0,1,314.85,719.94Z" transform="translate(0 -421.01)"/><path class="cls-6" d="M114.83,721.73c0-.16.09-.32.06-.43,3.34-.16,6.71-.25,10.07-.25a2.38,2.38,0,0,1,1.6.82c-3.52.23-6.86.23-10.46.27A2.62,2.62,0,0,1,114.83,721.73Z" transform="translate(0 -421.01)"/><path class="cls-4" d="M315.09,720a.45.45,0,0,1-.34-.37c2.45-.11,4.93-.11,7.41-.11l0,.52C319.9,720,317.62,720,315.09,720Z" transform="translate(0 -421.01)"/><path class="cls-7" d="M300.59,719.5c.18.18.15.33.17.6a20.48,20.48,0,0,1-2.61.11l0-.6C298.86,719.56,299.62,719.52,300.59,719.5Z" transform="translate(0 -421.01)"/><path class="cls-8" d="M227.74,472.06c1.06,4.08,2.08,7.95,3.09,11.76,4.17-3.38,8-6.92,12.25-9.83,19.09-13,39.69-17.13,61.92-9.45,12.22,4.21,21.49,12.27,28.35,23.46.56-.53,1.07-.95,1.5-1.44,12.09-13.71,27.36-21.64,45.23-24.69,14.77-2.52,29.17-1.21,42.59,5.81,16.86,8.83,26.61,23.28,30.76,41.51a91.8,91.8,0,0,1,2.24,19.69c.22,34,.11,67.93.1,101.9,0,.63,0,1.25,0,1.88-.23,3.32-2,5.45-5.34,5.59-5.64.23-11.29.19-16.93.2-4.75,0-9.5.06-14.24-.15-3.53-.16-5.33-2-5.76-5.52a28.84,28.84,0,0,1-.11-3.48c0-32.36,0-64.71-.15-97.06a38.69,38.69,0,0,0-6.07-21.42c-7-10.7-17.45-14.1-29.61-12.71-20.15,2.3-30.31,18.14-30.57,34-.28,17.74-.13,35.49-.15,53.23q0,22.05,0,44.1a31.27,31.27,0,0,1-.16,3.75c-.33,2.93-2.07,4.81-5,5-3.66.24-7.34.21-11,.23-5.83,0-11.65,0-17.48,0-7.17,0-8.71-1.52-8.71-8.62,0-30.92.12-61.84-.1-92.76a68.39,68.39,0,0,0-2.39-17.73c-4.72-16.82-18.79-23.05-34.19-21.22-20.49,2.42-30.37,18.84-30.38,35.28q0,48,0,96c0,1,0,2,0,3-.29,3.76-2.13,5.79-5.91,6-4.74.21-9.5.14-14.25.15-5.19,0-10.4.1-15.59-.06-4.65-.15-6.58-2.3-6.65-6.93,0-1.7,0-3.4,0-5.11V472.84a24.17,24.17,0,0,1,.06-2.95c.37-3.22,2.41-5.31,5.65-5.37,6.63-.13,13.27-.16,19.89,0C224.53,464.58,226.16,466.43,227.74,472.06Z" transform="translate(0 -421.01)"/><path class="cls-8" d="M67.49,465.05c22.26-4.61,44.38-6.56,66.51-1.05,17.57,4.37,31.9,13.38,40.09,30.33,4.74,9.8,6.22,20.32,6.25,31,.09,35.12,0,70.24,0,105.37,0,5.66-1.91,7.63-7.54,7.7-5.46.08-10.93.07-16.39,0s-7.1-1.46-8.5-6.66c-1.26-4.71-2.53-9.41-3.88-14.46-2.14,2.34-4,4.5-5.95,6.5C127,635,113.26,640.44,97.85,641.89c-13,1.22-25.73-.29-37.69-6-15.9-7.66-25-20.37-27.59-37.72-1.76-12-.72-23.79,5-34.75,7.45-14.2,19.8-22.24,34.7-26.78,15.08-4.59,30.51-4.92,46-2.93,6.46.83,12.86,2.16,19.56,3.31,0-10.61,1.28-21.56-6.44-30.68-4.88-5.77-11.48-8.3-18.7-9.54-13.66-2.34-26.92.11-40.07,3.53-4.83,1.25-9.55,3-14.31,4.45-5.86,1.85-7.91.79-9.77-5.07-2.14-6.72-4.29-13.44-6.4-20.17-1.44-4.6-.28-7.19,4.46-8.66,6.82-2.11,13.75-3.85,20.86-5.78m39.8,97.62c-3.64.45-7.32.65-10.89,1.4-15.55,3.29-22.83,12.08-21.92,26.52.52,8.26,4.57,14.35,12.15,17.88,6.81,3.18,14,3.61,21.24,2.21,14-2.7,23.86-10.44,28.27-24.34,2.11-6.68,1.9-13.58,1.71-20.56A115.46,115.46,0,0,0,107.29,562.67Z" transform="translate(0 -421.01)"/><path class="cls-9" d="M267.51,682.83h-2.65c0-6.48,0-12.82,0-19.15a17.78,17.78,0,0,0-.46-4.5,9,9,0,0,0-9.21-6.72c-4.47.24-8.26,3.25-8.69,7.68-.47,4.79-.28,9.66-.35,14.49,0,2.66,0,5.33,0,8.09h-3.86c0-7.06.1-14,0-21a9.23,9.23,0,0,0-11.57-9c-4.28,1-7.11,4.8-7.16,9.83-.06,5.82,0,11.65,0,17.47v2.71h-3.58v-33h3.48c.06,1.44.12,2.82.19,4.32,7.84-8.09,16.48-5.78,21.45,1.74a13.71,13.71,0,0,1,8.51-6.46c7.13-1.71,14.61,3.41,15,10.76.35,7.15.16,14.33.14,21.5C268.64,682,268.07,682.41,267.51,682.83Z" transform="translate(0 -421.01)"/><path class="cls-10" d="M99.14,661.62c-1-6.08-4.78-9.5-9.87-9.15-5.43.36-8.88,4.38-8.9,10.42,0,6.53,0,13.06,0,19.77h-3.6v-33h3.43v4.85c3.34-3.8,6.87-5.95,11.43-5.52a11.78,11.78,0,0,1,9.53,5.93c1.37-1,2.91-2.27,4.5-3.42,4-2.84,8.25-3.47,12.68-1.38s6.71,5.75,7.16,10.59c.06.62.05,1.25.05,1.88v20h-3.8V671.31c0-2.86,0-5.73,0-8.6-.08-6.07-4-10.34-9.36-10.3S103,656.64,103,662.68c0,6.62,0,13.24,0,20H99.16C99.16,675.77,99.16,668.81,99.14,661.62Z" transform="translate(0 -421.01)"/><path class="cls-11" d="M39.39,679.1c-4-7.87-.2-14.77,8.39-15.61,3-.3,6.09-.16,9.12-.3,3.93-.19,5.07-1.94,3.81-5.66A7.59,7.59,0,0,0,54,652.19c-4-.49-7.7.24-10.23,3.83-1.54,2.19-1.53,2.2-4.19,1.69.68-4.57,4.78-8,10.51-8.66,9.05-1.11,14.69,3.76,14.81,12.85q.09,7.26,0,14.51c0,2.21.66,3.68,3.22,3.74v2.37c-1.57,1.93-5.59-.71-7.12-4.66-9.79,7.08-16.26,7.5-21.56,1.24m7.77,1c1.86-.09,3.91.31,5.54-.34,7.57-3,9.45-5.59,8.37-14.56-2.08.23-4.16.51-6.24.67s-4.11.06-6.15.26c-4,.41-6.39,2.54-6.88,5.95S43,678.33,47.16,680.08Z" transform="translate(0 -421.01)"/><path class="cls-11" d="M416.47,679c-.25-2.08-.92-.77-1.49-.43-2.68,1.54-5.21,3.6-8.09,4.48-4.07,1.23-8.26.7-11.42-2.65a9.76,9.76,0,0,1-2.12-10.24c1.5-4.69,5.38-6.2,9.77-6.64,3-.3,6.08-.14,9.11-.31,3.54-.2,4.58-1.7,3.68-5.13a7.45,7.45,0,0,0-6.38-5.76c-4.18-.67-8.23-.12-10.7,3.79-1.18,1.89-2.31,2.47-4.26,1.64.73-4.66,5-8.09,10.77-8.67,8.9-.9,14.28,3.68,14.57,12.58.16,4.74.08,9.49,0,14.24,0,2.36.26,4.37,3.3,4.35v2.27c-1.74,1.55-5.45-.29-6.76-3.52m-12.55-12.88a10,10,0,0,0-1.34.18c-4.19,1.07-6.18,3.8-5.69,7.79s3.19,6.22,7.43,6.22c5.13,0,8.8-2.58,11.49-6.74a4.1,4.1,0,0,0,.5-2c.06-2.23,0-4.46,0-6.16Z" transform="translate(0 -421.01)"/><path class="cls-12" d="M431.56,676.29a21.94,21.94,0,0,1-.77-18.37c2.51-6.34,8.07-9.55,15-8.92,6,.55,10.66,4.88,12,11.31.47,2.26.57,4.59.87,7.15h-25.5c0,4.54,1.06,8.43,4.67,11,4,2.86,8.42,2.52,12.7.35a8,8,0,0,0,2.75-2.1c1.3-1.74,2.75-1.66,4.71-.73a14.81,14.81,0,0,1-11.42,7.37c-6.31.73-11.46-1.25-15-7.06m3.25-18.8c-.69,2.31-1.39,4.61-2.13,7.08h21.95c0-6.16-2.6-10.48-7-11.91C442.67,651.07,438.18,652.67,434.81,657.49Z" transform="translate(0 -421.01)"/><path class="cls-9" d="M283.92,680.43a12.72,12.72,0,0,1-4.61-9.81c0-6.89,0-13.78,0-20.86h3.8v3.29c0,5.64-.07,11.28,0,16.92a10,10,0,1,0,19.94.07c.1-6.7,0-13.41,0-20.29h3.7v33h-3.65v-5.05c-2.75,3.27-5.57,5.32-9.31,5.71A12.81,12.81,0,0,1,283.92,680.43Z" transform="translate(0 -421.01)"/><path class="cls-11" d="M333.27,650.34c.94.58,1.72,1,2.45,1.52a8.08,8.08,0,0,1,1,1.06l-1.62,2.15c-3-2.3-6.1-3.62-9.82-2.39a5.18,5.18,0,0,0-3.86,4.65,4.59,4.59,0,0,0,2.76,4.81c3.13,1.51,6.48,2.6,9.54,4.24a8.81,8.81,0,0,1,.44,15.28,11.44,11.44,0,0,1-2.93,1.28,13.79,13.79,0,0,1-14.95-5.07c.58-.67,1.19-1.38,1.89-2.21a11.63,11.63,0,0,0,10.23,4.47c3.3-.22,5.77-2.22,6.25-4.93s-.8-4.6-4.15-6.1c-2.11-1-4.32-1.7-6.45-2.62-5.53-2.4-7.51-6.44-5.7-11.54,1.6-4.51,6.77-7,11.92-5.63A30.51,30.51,0,0,1,333.27,650.34Z" transform="translate(0 -421.01)"/><path class="cls-13" d="M379.53,680c2.33-.89,4.44-1.76,6.57-2.64.76,2.3-.37,3.72-2.55,4.8a14.66,14.66,0,0,1-18.16-4.64c-5-7.22-4-19.16,2-24.81a14.88,14.88,0,0,1,16-2.39c2.22,1.05,3.51,2.39,2.7,4.9-2-.85-4.06-2.08-6.23-2.51-6.3-1.26-11.06,1.73-13,7.86a18.64,18.64,0,0,0,0,11.35C368.69,677.82,372.79,680.47,379.53,680Z" transform="translate(0 -421.01)"/><path class="cls-14" d="M155.58,661.93c.15,3.66-.3,7.28.65,10.48,2.19,7.37,10.48,10,17,5.84.58-.38,1.11-.81,1.73-1.26,1.07,2.78-.23,4.18-2.53,5.26a14.65,14.65,0,0,1-17.92-4.78c-5-7.23-4-19.13,2-24.8a14.84,14.84,0,0,1,16-2.36c2.23,1.06,3.39,2.45,2.44,5.19-3.93-3.14-8.27-4.15-12.95-2.2C158.3,654.84,156.46,657.93,155.58,661.93Z" transform="translate(0 -421.01)"/><path class="cls-14" d="M137.24,650.71a21.83,21.83,0,0,1,3.65-1.61v33.57h-3.66C137.23,672.14,137.23,661.55,137.24,650.71Z" transform="translate(0 -421.01)"/><path class="cls-14" d="M185.09,663.47V649.71h3.7v33h-3.7Z" transform="translate(0 -421.01)"/><path class="cls-14" d="M348,657.55V649.7h3.7v33H348Z" transform="translate(0 -421.01)"/><path class="cls-13" d="M351.64,642.69c-2.11.94-3.89.63-4.39-1.54a3.76,3.76,0,0,1,1.31-3.3,3.84,3.84,0,0,1,3.51.54C353.53,639.61,353.21,641.25,351.64,642.69Z" transform="translate(0 -421.01)"/><path class="cls-13" d="M140.89,637.89c1.55,1.47,1.81,3.09.36,4.33a3.66,3.66,0,0,1-3.31.6,4.18,4.18,0,0,1-1.54-3.23C136.47,637.66,138.25,637,140.89,637.89Z" transform="translate(0 -421.01)"/><path class="cls-13" d="M184.18,639.5c.93-2,2.46-2.92,4.13-1.74a4.3,4.3,0,0,1,1.36,3.52,2.34,2.34,0,0,1-3.53,1.68C185.17,642.42,184.79,640.83,184.18,639.5Z" transform="translate(0 -421.01)"/><path class="cls-5" d="M107.54,562.64a115.94,115.94,0,0,1,30.31,3.14c.19,7,.4,13.88-1.71,20.56-4.41,13.9-14.25,21.64-28.27,24.34-7.25,1.4-14.43,1-21.24-2.21-7.58-3.53-11.63-9.62-12.15-17.88-.91-14.44,6.37-23.23,21.92-26.52C100,563.32,103.65,563.12,107.54,562.64Z" transform="translate(0 -421.01)"/><path class="cls-15" d="M47,680c-4-1.69-5.67-4.42-5.15-8s2.88-5.54,6.88-5.95c2-.2,4.11-.11,6.15-.26s4.16-.44,6.24-.67c1.08,9-.8,11.57-8.37,14.56C51.07,680.39,49,680,47,680Z" transform="translate(0 -421.01)"/><path class="cls-16" d="M404.15,666.05l12.18-.72c0,1.7,0,3.93,0,6.16a4.1,4.1,0,0,1-.5,2c-2.69,4.16-6.36,6.75-11.49,6.74-4.24,0-6.94-2.31-7.43-6.22s1.5-6.72,5.69-7.79A11.79,11.79,0,0,1,404.15,666.05Z" transform="translate(0 -421.01)"/><path class="cls-17" d="M434.91,657.32c3.27-4.65,7.76-6.25,12.68-4.66,4.44,1.43,7,5.75,7,11.91H432.68C433.42,662.1,434.12,659.8,434.91,657.32Z" transform="translate(0 -421.01)"/></svg>