<?xml version="1.0" standalone="no"?>
<!DOCTYPE svg PUBLIC "-//W3C//DTD SVG 20010904//EN"
 "http://www.w3.org/TR/2001/REC-SVG-20010904/DTD/svg10.dtd">
<svg version="1.0" xmlns="http://www.w3.org/2000/svg"
 width="907.000000pt" height="907.000000pt" viewBox="0 0 907.000000 907.000000"
 preserveAspectRatio="xMidYMid meet">

<g transform="translate(0.000000,907.000000) scale(0.100000,-0.100000)"
fill="#080232" stroke="none">
<path d="M0 4535 l0 -4535 4535 0 4535 0 0 4535 0 4535 -4535 0 -4535 0 0
-4535z m2255 1706 c162 -27 280 -63 401 -120 334 -159 514 -395 591 -774 15
-73 17 -206 20 -1187 2 -875 1 -1110 -9 -1129 -7 -13 -26 -34 -41 -45 -27 -20
-41 -21 -240 -21 -293 0 -278 -10 -342 240 l-38 150 -116 -115 c-80 -79 -141
-130 -196 -162 -365 -216 -855 -244 -1237 -70 -287 130 -470 372 -523 691 -23
137 -16 350 15 466 118 444 511 715 1108 764 200 16 561 -14 753 -64 31 -8 62
-15 69 -15 20 0 7 319 -15 390 -56 179 -181 295 -369 344 -92 24 -262 39 -361
31 -190 -14 -445 -69 -654 -140 -146 -49 -199 -47 -227 7 -26 50 -154 465
-154 498 0 52 49 91 154 124 232 72 495 126 740 151 183 20 512 12 671 -14z
m3171 5 c271 -59 494 -203 641 -413 l50 -72 51 59 c29 32 89 88 134 125 399
321 962 414 1397 231 126 -53 227 -121 327 -221 143 -142 239 -301 299 -498
60 -199 58 -145 62 -1321 3 -795 1 -1087 -8 -1107 -6 -16 -23 -36 -38 -46 -24
-16 -54 -18 -341 -18 -284 0 -319 2 -343 17 -54 36 -52 -12 -57 1073 l-5 1010
-28 90 c-39 123 -80 197 -153 270 -108 110 -252 161 -429 152 -347 -18 -584
-252 -616 -607 -4 -52 -8 -510 -9 -1017 l0 -922 -23 -26 c-33 -39 -78 -44
-367 -44 -289 0 -334 5 -367 44 l-23 26 0 912 c0 502 -5 964 -10 1027 -17 207
-71 341 -181 453 -114 114 -255 163 -444 154 -289 -15 -492 -171 -586 -452
l-24 -70 -5 -1013 -5 -1014 -32 -28 c-42 -38 -94 -43 -415 -38 -242 3 -258 4
-285 24 -15 11 -34 32 -40 45 -10 19 -12 355 -10 1567 l2 1544 33 29 33 30
230 -3 229 -3 29 -30 c24 -24 37 -56 66 -165 20 -74 38 -141 40 -148 3 -8 31
10 77 50 233 203 447 308 723 354 100 17 324 12 421 -10z m-2878 -3284 c26
-34 -1 -82 -48 -82 -33 0 -50 17 -50 51 0 52 65 72 98 31z m890 0 c26 -34 -1
-82 -48 -82 -33 0 -50 17 -50 51 0 52 65 72 98 31z m3030 0 c26 -34 -1 -82
-48 -82 -33 0 -50 17 -50 51 0 52 65 72 98 31z m-5491 -207 c60 -18 116 -74
132 -132 6 -21 11 -120 11 -220 0 -152 3 -184 16 -197 8 -9 22 -16 30 -16 8 0
14 -10 14 -25 0 -22 -4 -25 -35 -25 -40 0 -85 36 -85 68 0 34 -12 32 -57 -8
-155 -136 -383 -68 -383 115 0 61 21 107 61 137 51 38 63 41 206 48 83 4 138
12 148 20 23 19 19 81 -8 121 -63 95 -236 92 -300 -6 -16 -26 -29 -35 -49 -35
-34 0 -36 19 -7 66 54 88 183 125 306 89z m722 -11 c30 -16 64 -43 80 -64 l27
-38 33 39 c48 58 103 83 182 84 56 0 73 -4 114 -30 31 -19 61 -49 80 -79 l30
-49 3 -234 3 -233 -35 0 -35 0 -3 223 c-3 223 -3 224 -30 264 -66 100 -220
100 -286 0 -27 -40 -27 -41 -30 -264 l-3 -223 -35 0 -34 0 0 203 c0 111 -5
219 -11 240 -40 145 -257 161 -320 23 -16 -36 -19 -68 -19 -253 l0 -213 -35 0
-35 0 0 310 0 310 35 0 35 0 0 -47 c0 -47 1 -47 18 -28 72 85 174 107 271 59z
m1429 -3 c37 -19 42 -25 42 -57 l0 -35 -46 27 c-37 22 -60 28 -108 28 -84 1
-141 -32 -181 -106 -27 -48 -30 -62 -30 -148 0 -83 3 -102 26 -145 57 -113
200 -150 304 -79 l36 24 -3 -37 c-3 -34 -8 -41 -48 -60 -53 -28 -146 -31 -211
-8 -57 20 -122 84 -151 149 -19 43 -23 68 -23 156 0 94 3 111 27 160 35 72 84
118 150 142 67 24 157 19 216 -11z m1206 17 c26 -8 59 -30 91 -63 l50 -51 20
30 c53 80 181 116 270 77 59 -26 79 -43 114 -96 26 -40 26 -41 29 -277 l3
-238 -35 0 -36 0 0 210 c0 220 -6 257 -48 303 -72 80 -218 60 -273 -37 -23
-39 -24 -51 -27 -258 l-3 -218 -35 0 -34 0 0 210 c0 220 -6 257 -48 303 -70
77 -209 62 -272 -30 -25 -36 -25 -41 -28 -260 l-3 -223 -35 0 -34 0 0 310 0
310 35 0 35 0 0 -47 0 -47 39 38 c62 61 139 79 225 54z m1782 -16 c58 -30 68
-45 44 -67 -18 -16 -20 -16 -45 3 -52 41 -159 37 -199 -7 -9 -10 -19 -34 -22
-53 -9 -54 29 -90 134 -130 144 -55 199 -127 172 -227 -22 -84 -91 -130 -195
-131 -68 0 -144 30 -184 74 -24 25 -24 26 -6 46 18 20 18 19 51 -10 80 -69
220 -65 258 9 39 75 11 114 -122 170 -54 23 -108 49 -120 57 -70 49 -73 185
-5 246 56 51 161 60 239 20z m925 1 c47 -24 54 -32 57 -60 2 -18 1 -33 -1 -33
-3 0 -24 11 -48 24 -62 34 -110 40 -172 22 -88 -26 -140 -96 -153 -208 -13
-113 38 -237 111 -272 77 -37 157 -33 219 9 20 14 39 25 41 25 3 0 5 -13 5
-28 0 -54 -73 -92 -172 -92 -117 0 -216 72 -255 184 -25 72 -24 204 2 275 56
152 227 224 366 154z m528 17 c56 -16 100 -52 126 -104 24 -48 25 -58 25 -230
0 -194 7 -228 48 -234 16 -2 22 -10 22 -28 0 -20 -5 -24 -30 -24 -60 0 -100
33 -100 81 0 18 -5 16 -42 -14 -64 -51 -105 -69 -174 -75 -101 -8 -171 27
-205 102 -40 89 -10 191 70 235 38 21 64 25 180 32 122 6 137 9 153 28 19 25
16 68 -10 113 -54 93 -247 89 -303 -7 -16 -27 -27 -35 -50 -35 -35 0 -36 10
-7 61 48 86 185 132 297 99z m739 -27 c25 -16 59 -47 74 -70 32 -47 58 -138
58 -200 l0 -43 -236 0 -237 0 6 -45 c8 -58 38 -116 76 -148 38 -32 122 -50
173 -38 46 11 127 57 135 77 6 16 41 18 63 4 12 -7 5 -18 -36 -58 -67 -65
-129 -86 -229 -80 -89 6 -150 38 -194 101 -49 72 -64 135 -58 240 6 105 22
150 74 208 61 68 118 90 216 85 53 -3 77 -9 115 -33z m-5768 -283 l0 -310 -35
0 -35 0 0 310 0 310 35 0 35 0 0 -310z m890 0 l0 -310 -35 0 -35 0 0 310 0
310 35 0 35 0 0 -310z m1752 86 l3 -224 31 -39 c44 -54 88 -77 149 -77 62 0
120 30 155 81 25 36 25 41 28 260 l3 223 35 0 34 0 0 -310 0 -310 -35 0 -35 0
0 47 0 47 -32 -34 c-121 -123 -325 -79 -394 85 -11 26 -14 85 -14 255 l0 220
34 0 35 0 3 -224z m1278 -86 l0 -310 -35 0 -35 0 0 310 0 310 35 0 35 0 0
-310z"/>
<path d="M1850 4370 c-300 -31 -480 -144 -536 -338 -23 -76 -15 -227 15 -304
57 -148 208 -243 408 -255 294 -19 556 124 669 362 51 107 65 174 71 336 l6
146 -84 16 c-192 37 -411 52 -549 37z" />
<path d="M1038 2474 c-4 -6 -55 -13 -121 -17 -124 -6 -176 -21 -202 -60 -40
-62 -23 -150 37 -187 73 -45 204 -10 270 71 27 34 29 40 26 120 -2 46 -6 79
-10 73z"/>
<path d="M7636 2472 c-3 -5 -57 -12 -121 -15 -170 -9 -217 -39 -217 -137 0
-84 50 -130 142 -130 67 0 130 31 180 88 39 44 40 46 40 123 0 70 -9 96 -24
71z"/>
<path d="M8079 2687 c-54 -29 -96 -93 -105 -159 l-7 -48 203 0 203 0 -6 45
c-12 81 -60 151 -120 174 -48 19 -120 13 -168 -12z" />
</g>
</svg>
