<svg xmlns="http://www.w3.org/2000/svg" xmlns:xlink="http://www.w3.org/1999/xlink" width="160" zoomAndPan="magnify" viewBox="0 0 84.75 84.749997" height="160" preserveAspectRatio="xMidYMid meet" version="1.0"><defs><g/><clipPath id="da69be1b60"><path d="M 0 0 L 84.5 0 L 84.5 84.5 L 0 84.5 Z M 0 0 " clip-rule="nonzero"/></clipPath></defs><g clip-path="url(#da69be1b60)"><path fill="#ffffff" d="M 0 0 L 84.75 0 L 84.75 361.5 L 0 361.5 Z M 0 0 " fill-opacity="1" fill-rule="nonzero"/><path fill="#ffffff" d="M 0 0 L 84.75 0 L 84.75 84.75 L 0 84.75 Z M 0 0 " fill-opacity="1" fill-rule="nonzero"/><path fill="#080232" d="M 0 0 L 84.75 0 L 84.75 84.75 L 0 84.75 Z M 0 0 " fill-opacity="1" fill-rule="nonzero"/></g><g fill="#ffffff" fill-opacity="1"><g transform="translate(9.502322, 54.580578)"><g><path d="M 12.660156 -25.386719 C 9.910156 -25.386719 6.953125 -24.871094 4.15625 -23.957031 C 3.570312 -23.742188 3.335938 -23.34375 3.546875 -22.734375 L 4.53125 -19.632812 C 4.71875 -19.023438 5.144531 -18.859375 5.753906 -19.070312 C 7.914062 -19.867188 10.167969 -20.386719 12.117188 -20.386719 C 15.03125 -20.386719 17.238281 -19.234375 17.238281 -16.015625 L 17.238281 -14.445312 C 15.453125 -14.890625 13.691406 -15.125 12.023438 -15.125 C 6.433594 -15.125 2.089844 -12.449219 2.089844 -7.09375 C 2.089844 -1.925781 6.035156 0.539062 10.449219 0.539062 C 13.128906 0.539062 16.109375 -0.351562 18.109375 -3.054688 L 18.695312 -0.84375 C 18.8125 -0.257812 19.1875 0 19.75 0 L 22.335938 0 C 22.96875 0 23.296875 -0.328125 23.296875 -0.964844 L 23.296875 -16.277344 C 23.296875 -22.921875 18.507812 -25.386719 12.660156 -25.386719 Z M 11.90625 -3.875 C 9.886719 -3.875 8.148438 -4.910156 8.148438 -7.1875 C 8.148438 -9.816406 10.425781 -10.851562 13.433594 -10.851562 C 14.65625 -10.851562 15.921875 -10.6875 17.238281 -10.378906 L 17.238281 -9.324219 C 17.238281 -5.238281 14.136719 -3.875 11.90625 -3.875 Z M 11.90625 -3.875 "/></g></g></g><g fill="#ffffff" fill-opacity="1"><g transform="translate(31.654255, 54.580578)"><g><path d="M 31.496094 -25.386719 C 28.347656 -25.386719 25.058594 -24.003906 23.015625 -21.464844 C 21.582031 -23.933594 18.929688 -25.386719 15.96875 -25.386719 C 13.457031 -25.386719 10.828125 -24.496094 8.359375 -22.03125 L 7.84375 -24.027344 C 7.703125 -24.613281 7.328125 -24.871094 6.789062 -24.871094 L 4.179688 -24.871094 C 3.570312 -24.871094 3.21875 -24.519531 3.21875 -23.910156 L 3.21875 -0.964844 C 3.21875 -0.328125 3.570312 0 4.179688 0 L 8.3125 0 C 8.949219 0 9.277344 -0.328125 9.277344 -0.964844 L 9.277344 -14.867188 C 9.277344 -17.894531 11.273438 -20.082031 14.304688 -20.082031 C 17.402344 -20.082031 18.859375 -17.800781 18.859375 -14.773438 L 18.859375 -0.964844 C 18.859375 -0.328125 19.1875 0 19.820312 0 L 23.957031 0 C 24.589844 0 24.917969 -0.328125 24.917969 -0.964844 L 24.917969 -14.867188 C 24.917969 -17.894531 26.960938 -20.082031 29.945312 -20.082031 C 32.925781 -20.082031 34.429688 -17.800781 34.429688 -14.773438 L 34.429688 -0.964844 C 34.429688 -0.328125 34.78125 0 35.394531 0 L 39.527344 0 C 40.160156 0 40.488281 -0.328125 40.488281 -0.964844 L 40.488281 -15.78125 C 40.488281 -21.183594 37.058594 -25.386719 31.496094 -25.386719 Z M 31.496094 -25.386719 "/></g></g></g><g fill="#ffffff" fill-opacity="1"><g transform="translate(37.545488, 60.908203)"><g><path d="M 6.117188 -4.835938 C 5.40625 -4.835938 4.777344 -4.417969 4.476562 -3.800781 C 4.199219 -4.410156 3.59375 -4.835938 2.890625 -4.835938 C 2.265625 -4.835938 1.726562 -4.503906 1.414062 -4 L 1.414062 -4.742188 L 0.882812 -4.742188 L 0.882812 0 L 1.414062 0 L 1.414062 -2.996094 C 1.414062 -3.746094 2.019531 -4.351562 2.769531 -4.351562 C 3.507812 -4.351562 4.105469 -3.746094 4.105469 -2.996094 L 4.105469 0 L 4.644531 0 L 4.644531 -2.996094 C 4.644531 -3.746094 5.242188 -4.351562 6 -4.351562 C 6.730469 -4.351562 7.328125 -3.746094 7.328125 -2.996094 L 7.328125 0 L 7.871094 0 L 7.871094 -3.042969 C 7.871094 -4.03125 7.082031 -4.835938 6.117188 -4.835938 Z M 6.117188 -4.835938 "/></g></g></g><g fill="#ffffff" fill-opacity="1"><g transform="translate(46.170966, 60.908203)"><g><path d="M 4.171875 -4.742188 L 4.171875 -1.820312 C 4.171875 -1.035156 3.527344 -0.398438 2.722656 -0.398438 C 1.933594 -0.398438 1.300781 -1.035156 1.300781 -1.820312 L 1.300781 -4.742188 L 0.757812 -4.742188 L 0.757812 -1.773438 C 0.757812 -0.738281 1.582031 0.09375 2.605469 0.09375 C 3.261719 0.09375 3.839844 -0.257812 4.171875 -0.785156 L 4.171875 0 L 4.710938 0 L 4.710938 -4.742188 Z M 4.171875 -4.742188 "/></g></g></g><g fill="#ffffff" fill-opacity="1"><g transform="translate(51.76331, 60.908203)"><g><path d="M 2.066406 0.09375 C 2.96875 0.09375 3.582031 -0.464844 3.601562 -1.195312 C 3.621094 -1.945312 3.1875 -2.277344 2.671875 -2.492188 C 1.980469 -2.796875 1.148438 -2.902344 1.183594 -3.613281 C 1.203125 -4.171875 1.714844 -4.390625 2.179688 -4.378906 C 2.53125 -4.363281 2.902344 -4.21875 3.136719 -3.953125 L 3.386719 -4.277344 C 3.128906 -4.578125 2.589844 -4.835938 2.066406 -4.835938 C 1.421875 -4.835938 0.703125 -4.445312 0.671875 -3.554688 C 0.652344 -2.910156 1.015625 -2.589844 1.449219 -2.390625 C 2.160156 -2.027344 3.136719 -1.953125 3.101562 -1.195312 C 3.082031 -0.652344 2.578125 -0.359375 2.027344 -0.371094 C 1.488281 -0.378906 0.929688 -0.671875 0.75 -1.035156 L 0.445312 -0.710938 C 0.75 -0.238281 1.414062 0.09375 2.066406 0.09375 Z M 2.066406 0.09375 "/></g></g></g><g fill="#ffffff" fill-opacity="1"><g transform="translate(55.829605, 60.908203)"><g><path d="M 1.195312 -5.652344 C 1.421875 -5.652344 1.621094 -5.839844 1.621094 -6.078125 C 1.621094 -6.316406 1.421875 -6.503906 1.195312 -6.503906 C 0.957031 -6.503906 0.769531 -6.316406 0.769531 -6.078125 C 0.769531 -5.839844 0.957031 -5.652344 1.195312 -5.652344 Z M 0.917969 0 L 1.460938 0 L 1.460938 -4.742188 L 0.917969 -4.742188 Z M 0.917969 0 "/></g></g></g><g fill="#ffffff" fill-opacity="1"><g transform="translate(58.218199, 60.908203)"><g><path d="M 2.730469 0.09375 C 3.234375 0.09375 3.621094 -0.0664062 3.964844 -0.351562 L 3.964844 -0.882812 C 3.660156 -0.570312 3.269531 -0.378906 2.730469 -0.378906 C 1.640625 -0.378906 1.082031 -1.25 1.082031 -2.371094 C 1.082031 -3.488281 1.640625 -4.363281 2.730469 -4.363281 C 3.269531 -4.363281 3.648438 -4.171875 3.964844 -3.847656 L 3.964844 -4.390625 C 3.613281 -4.675781 3.234375 -4.835938 2.730469 -4.835938 C 1.316406 -4.835938 0.550781 -3.78125 0.550781 -2.371094 C 0.550781 -0.957031 1.316406 0.09375 2.730469 0.09375 Z M 2.730469 0.09375 "/></g></g></g><g fill="#ffffff" fill-opacity="1"><g transform="translate(62.673117, 60.908203)"><g><path d="M 4.710938 -0.390625 C 4.464844 -0.390625 4.332031 -0.519531 4.332031 -0.769531 L 4.332031 -3.070312 C 4.332031 -4.164062 3.679688 -4.835938 2.523438 -4.835938 C 1.515625 -4.835938 0.863281 -4.324219 0.664062 -3.574219 L 1.148438 -3.535156 C 1.355469 -4.085938 1.839844 -4.410156 2.511719 -4.410156 C 3.328125 -4.410156 3.800781 -3.925781 3.820312 -3.195312 C 3.765625 -2.871094 3.507812 -2.796875 3.214844 -2.796875 L 2.359375 -2.796875 C 1.089844 -2.796875 0.464844 -2.238281 0.464844 -1.355469 C 0.464844 -0.464844 1.089844 0.09375 1.992188 0.09375 C 2.703125 0.09375 3.328125 -0.257812 3.820312 -0.824219 L 3.820312 -0.703125 C 3.859375 -0.246094 4.105469 0 4.558594 0 L 4.808594 0 L 4.808594 -0.390625 Z M 2.125 -0.351562 C 1.480469 -0.351562 1.023438 -0.75 1.023438 -1.394531 C 1.023438 -2.019531 1.449219 -2.425781 2.378906 -2.425781 L 3.234375 -2.425781 C 3.433594 -2.425781 3.679688 -2.472656 3.820312 -2.691406 L 3.820312 -1.433594 C 3.441406 -0.738281 2.769531 -0.351562 2.125 -0.351562 Z M 2.125 -0.351562 "/></g></g></g><g fill="#ffffff" fill-opacity="1"><g transform="translate(67.791531, 60.908203)"><g><path d="M 2.683594 -4.835938 C 1.316406 -4.835938 0.550781 -3.765625 0.550781 -2.371094 C 0.550781 -0.984375 1.308594 0.09375 2.710938 0.09375 C 3.566406 0.09375 4.265625 -0.3125 4.675781 -1.003906 L 4.191406 -1.089844 C 3.839844 -0.605469 3.300781 -0.332031 2.683594 -0.332031 C 1.640625 -0.332031 1.117188 -1.109375 1.082031 -2.191406 L 4.722656 -2.191406 L 4.722656 -2.304688 C 4.742188 -3.773438 4.039062 -4.835938 2.683594 -4.835938 Z M 2.683594 -4.398438 C 3.699219 -4.398438 4.171875 -3.648438 4.21875 -2.570312 L 1.082031 -2.570312 C 1.117188 -3.621094 1.667969 -4.398438 2.683594 -4.398438 Z M 2.683594 -4.398438 "/></g></g></g><g fill="#ffffff" fill-opacity="1"><g transform="translate(11.966162, 60.908203)"><g><path d="M 4.710938 -0.390625 C 4.464844 -0.390625 4.332031 -0.519531 4.332031 -0.769531 L 4.332031 -3.070312 C 4.332031 -4.164062 3.679688 -4.835938 2.523438 -4.835938 C 1.515625 -4.835938 0.863281 -4.324219 0.664062 -3.574219 L 1.148438 -3.535156 C 1.355469 -4.085938 1.839844 -4.410156 2.511719 -4.410156 C 3.328125 -4.410156 3.800781 -3.925781 3.820312 -3.195312 C 3.765625 -2.871094 3.507812 -2.796875 3.214844 -2.796875 L 2.359375 -2.796875 C 1.089844 -2.796875 0.464844 -2.238281 0.464844 -1.355469 C 0.464844 -0.464844 1.089844 0.09375 1.992188 0.09375 C 2.703125 0.09375 3.328125 -0.257812 3.820312 -0.824219 L 3.820312 -0.703125 C 3.859375 -0.246094 4.105469 0 4.558594 0 L 4.808594 0 L 4.808594 -0.390625 Z M 2.125 -0.351562 C 1.480469 -0.351562 1.023438 -0.75 1.023438 -1.394531 C 1.023438 -2.019531 1.449219 -2.425781 2.378906 -2.425781 L 3.234375 -2.425781 C 3.433594 -2.425781 3.679688 -2.472656 3.820312 -2.691406 L 3.820312 -1.433594 C 3.441406 -0.738281 2.769531 -0.351562 2.125 -0.351562 Z M 2.125 -0.351562 "/></g></g></g><g fill="#ffffff" fill-opacity="1"><g transform="translate(17.084576, 60.908203)"><g><path d="M 6.117188 -4.835938 C 5.40625 -4.835938 4.777344 -4.417969 4.476562 -3.800781 C 4.199219 -4.410156 3.59375 -4.835938 2.890625 -4.835938 C 2.265625 -4.835938 1.726562 -4.503906 1.414062 -4 L 1.414062 -4.742188 L 0.882812 -4.742188 L 0.882812 0 L 1.414062 0 L 1.414062 -2.996094 C 1.414062 -3.746094 2.019531 -4.351562 2.769531 -4.351562 C 3.507812 -4.351562 4.105469 -3.746094 4.105469 -2.996094 L 4.105469 0 L 4.644531 0 L 4.644531 -2.996094 C 4.644531 -3.746094 5.242188 -4.351562 6 -4.351562 C 6.730469 -4.351562 7.328125 -3.746094 7.328125 -2.996094 L 7.328125 0 L 7.871094 0 L 7.871094 -3.042969 C 7.871094 -4.03125 7.082031 -4.835938 6.117188 -4.835938 Z M 6.117188 -4.835938 "/></g></g></g><g fill="#ffffff" fill-opacity="1"><g transform="translate(25.710054, 60.908203)"><g><path d="M 1.195312 -5.652344 C 1.421875 -5.652344 1.621094 -5.839844 1.621094 -6.078125 C 1.621094 -6.316406 1.421875 -6.503906 1.195312 -6.503906 C 0.957031 -6.503906 0.769531 -6.316406 0.769531 -6.078125 C 0.769531 -5.839844 0.957031 -5.652344 1.195312 -5.652344 Z M 0.917969 0 L 1.460938 0 L 1.460938 -4.742188 L 0.917969 -4.742188 Z M 0.917969 0 "/></g></g></g><g fill="#ffffff" fill-opacity="1"><g transform="translate(28.098648, 60.908203)"><g><path d="M 2.730469 0.09375 C 3.234375 0.09375 3.621094 -0.0664062 3.964844 -0.351562 L 3.964844 -0.882812 C 3.660156 -0.570312 3.269531 -0.378906 2.730469 -0.378906 C 1.640625 -0.378906 1.082031 -1.25 1.082031 -2.371094 C 1.082031 -3.488281 1.640625 -4.363281 2.730469 -4.363281 C 3.269531 -4.363281 3.648438 -4.171875 3.964844 -3.847656 L 3.964844 -4.390625 C 3.613281 -4.675781 3.234375 -4.835938 2.730469 -4.835938 C 1.316406 -4.835938 0.550781 -3.78125 0.550781 -2.371094 C 0.550781 -0.957031 1.316406 0.09375 2.730469 0.09375 Z M 2.730469 0.09375 "/></g></g></g><g fill="#ffffff" fill-opacity="1"><g transform="translate(32.553566, 60.908203)"><g><path d="M 1.195312 -5.652344 C 1.421875 -5.652344 1.621094 -5.839844 1.621094 -6.078125 C 1.621094 -6.316406 1.421875 -6.503906 1.195312 -6.503906 C 0.957031 -6.503906 0.769531 -6.316406 0.769531 -6.078125 C 0.769531 -5.839844 0.957031 -5.652344 1.195312 -5.652344 Z M 0.917969 0 L 1.460938 0 L 1.460938 -4.742188 L 0.917969 -4.742188 Z M 0.917969 0 "/></g></g></g></svg>