<svg version="1.1" id="Layer_1" xmlns="http://www.w3.org/2000/svg" xmlns:xlink="http://www.w3.org/1999/xlink" x="0px" y="0px"
	 width="100%" viewBox="0 0 828 364" enable-background="new 0 0 828 364" xml:space="preserve">
<path fill="#090332" opacity="1.000000" stroke="none" 
	d="
M568.000000,365.000000 
	C378.666656,365.000000 189.833328,365.000000 1.000000,365.000000 
	C1.000000,243.666672 1.000000,122.333336 1.000000,1.000000 
	C277.000000,1.000000 553.000000,1.000000 829.000000,1.000000 
	C829.000000,122.333336 829.000000,243.666672 829.000000,365.000000 
	C742.166687,365.000000 655.333313,365.000000 568.000000,365.000000 
M296.158691,120.229774 
	C295.774597,116.589294 295.518707,112.929939 294.986053,109.311333 
	C290.973724,82.054932 279.479797,58.846840 257.321442,41.817558 
	C234.947571,24.622639 208.818100,17.549210 181.231781,15.007600 
	C152.489746,12.359511 123.951820,14.609931 95.771004,20.308285 
	C80.010208,23.495224 64.494576,27.988163 48.997646,32.351429 
	C39.699223,34.969460 37.200348,40.332706 40.063919,49.482025 
	C44.031765,62.159588 48.047844,74.822273 52.100597,87.472969 
	C55.154560,97.005936 58.949501,99.009438 68.627892,96.101044 
	C77.993599,93.286621 87.215889,89.942657 96.672806,87.494225 
	C121.115883,81.165810 145.745743,76.792191 171.191010,80.904259 
	C195.127914,84.772568 211.663681,97.966995 215.742661,119.126747 
	C218.049820,131.095093 217.901825,143.536728 218.889069,156.140503 
	C207.941666,154.100601 198.234558,151.997574 188.433136,150.520370 
	C158.515274,146.011398 128.692886,145.962296 99.293694,154.052002 
	C76.688065,160.272339 56.631615,171.012131 41.548199,189.476379 
	C25.133848,209.569901 20.025217,233.030991 20.899111,258.532654 
	C22.286655,299.023651 47.643906,332.815094 86.260582,344.959290 
	C107.632233,351.680298 129.362732,353.237488 151.379044,349.912354 
	C181.228073,345.404205 206.715469,332.646851 226.025406,308.823608 
	C226.993942,307.628693 228.083359,306.531738 229.402985,305.072357 
	C231.969162,314.682098 234.537567,323.453003 236.598923,332.341492 
	C237.808167,337.555817 240.247055,341.485992 245.200073,344.695160 
	C246.009018,345.123474 246.815491,345.919647 247.627243,345.925049 
	C260.166321,346.008881 272.706604,346.043060 285.244812,345.913025 
	C286.498566,345.899994 287.740479,344.744904 289.629395,343.843018 
	C294.878571,341.602051 296.906860,337.402710 296.935638,331.939819 
	C296.954865,328.287445 297.062561,324.635559 297.648682,320.340149 
	C297.766998,318.361694 297.988007,316.383270 297.988678,314.404785 
	C298.007385,259.872955 297.979370,205.341095 298.044769,150.809341 
	C298.050720,145.860962 298.957916,140.905212 298.835541,135.968048 
	C298.752777,132.627853 297.598175,129.314224 296.590424,125.251999 
	C296.581329,124.186073 296.572235,123.120155 296.989258,121.842453 
	C296.799194,121.555161 296.609131,121.267876 296.158691,120.229774 
M526.303101,141.693161 
	C526.200867,142.513275 526.009216,143.333359 526.009033,144.153488 
	C525.996460,203.958115 525.989502,263.762726 526.055054,323.567291 
	C526.056702,325.083801 526.869507,326.599396 527.607178,328.856110 
	C527.433228,334.909515 528.056030,340.615112 533.723083,344.228912 
	C533.687256,344.630524 533.651428,345.032166 533.615662,345.433746 
	C534.099609,345.234344 534.583557,345.034943 535.933594,344.955292 
	C537.948059,344.918945 539.962524,344.882599 542.537292,345.480316 
	C543.337708,345.652496 544.137878,345.973267 544.938660,345.974854 
	C560.098511,346.005249 575.258606,346.024536 590.418152,345.947540 
	C591.620605,345.941467 592.819397,345.213654 594.689331,344.441498 
	C603.656921,343.224762 606.391724,340.117950 606.443115,330.442902 
	C606.536133,312.952454 606.458801,295.461151 606.473206,277.970184 
	C606.509094,234.493759 606.317627,191.015335 606.681152,147.541595 
	C606.933960,117.309502 626.278748,87.745361 663.728088,83.434624 
	C688.799805,80.548653 712.163269,90.321907 723.128540,115.580688 
	C728.686646,128.384079 730.208984,141.785751 730.206421,155.521667 
	C730.195557,213.491684 730.222412,271.461731 730.169189,329.431671 
	C730.163269,335.830017 731.343872,341.371490 738.223083,344.873627 
	C739.077820,345.244324 739.931519,345.935730 740.787537,345.938629 
	C760.049561,346.003754 779.312073,346.026703 798.573669,345.912994 
	C799.716675,345.906250 800.852417,344.687317 802.482483,343.551208 
	C808.274719,340.896179 809.117004,335.902985 809.112122,330.243195 
	C809.057556,267.086273 809.294250,203.927887 808.895081,140.773422 
	C808.817810,128.551483 807.565674,116.052589 804.741882,104.184311 
	C795.288208,64.450775 773.165344,34.353085 733.386230,21.117970 
	C686.517395,5.524013 643.134399,15.301052 603.718384,43.937046 
	C595.596802,49.837399 588.673523,57.387127 581.173767,64.198593 
	C571.390808,48.545982 558.779358,35.168869 541.684875,26.869770 
	C496.024933,4.702627 452.986389,11.748832 412.226105,39.579460 
	C404.754364,44.681061 398.103760,50.985233 390.792877,56.964317 
	C388.532593,48.429588 386.391266,39.927299 384.013794,31.491556 
	C381.911011,24.030466 378.005371,21.014194 370.321167,20.915646 
	C359.824371,20.781021 349.324799,20.808640 338.826752,20.850042 
	C327.332977,20.895370 324.001953,24.282074 324.001160,35.796642 
	C323.994507,133.781631 323.992645,231.766632 323.992798,329.751617 
	C323.992828,340.871918 327.365295,344.372345 338.607147,344.503174 
	C349.437286,344.629272 360.270294,344.555115 371.101746,344.505341 
	C378.262573,344.472443 385.438507,344.585815 392.578522,344.152771 
	C398.581177,343.788666 401.908875,340.330841 402.714203,334.415588 
	C403.004517,332.283203 402.909027,330.091827 402.909302,327.927368 
	C402.917297,269.936249 402.888672,211.945099 402.956665,153.954056 
	C402.963074,148.480682 403.107941,142.935455 403.962128,137.546219 
	C412.216064,85.472206 464.863556,73.148590 496.822052,89.537575 
	C517.443542,100.112701 524.564270,119.322502 526.303101,141.693161 
z"/>
<path fill="#FEFEFE" opacity="1.000000" stroke="none" 
	d="
M541.976990,344.846252 
	C539.962524,344.882599 537.948059,344.918945 535.452026,344.659485 
	C534.816406,344.023163 534.553833,343.874603 534.182617,343.917908 
	C528.056030,340.615112 527.433228,334.909515 527.601807,328.097290 
	C527.612488,269.712646 527.648071,212.086792 527.606689,154.460999 
	C527.603455,149.978638 527.060730,145.496658 526.768799,141.014511 
	C524.564270,119.322502 517.443542,100.112701 496.822052,89.537575 
	C464.863556,73.148590 412.216064,85.472206 403.962128,137.546219 
	C403.107941,142.935455 402.963074,148.480682 402.956665,153.954056 
	C402.888672,211.945099 402.917297,269.936249 402.909302,327.927368 
	C402.909027,330.091827 403.004517,332.283203 402.714203,334.415588 
	C401.908875,340.330841 398.581177,343.788666 392.578522,344.152771 
	C385.438507,344.585815 378.262573,344.472443 371.101746,344.505341 
	C360.270294,344.555115 349.437286,344.629272 338.607147,344.503174 
	C327.365295,344.372345 323.992828,340.871918 323.992798,329.751617 
	C323.992645,231.766632 323.994507,133.781631 324.001160,35.796642 
	C324.001953,24.282074 327.332977,20.895370 338.826752,20.850042 
	C349.324799,20.808640 359.824371,20.781021 370.321167,20.915646 
	C378.005371,21.014194 381.911011,24.030466 384.013794,31.491556 
	C386.391266,39.927299 388.532593,48.429588 390.792877,56.964317 
	C398.103760,50.985233 404.754364,44.681061 412.226105,39.579460 
	C452.986389,11.748832 496.024933,4.702627 541.684875,26.869770 
	C558.779358,35.168869 571.390808,48.545982 581.173767,64.198593 
	C588.673523,57.387127 595.596802,49.837399 603.718384,43.937046 
	C643.134399,15.301052 686.517395,5.524013 733.386230,21.117970 
	C773.165344,34.353085 795.288208,64.450775 804.741882,104.184311 
	C807.565674,116.052589 808.817810,128.551483 808.895081,140.773422 
	C809.294250,203.927887 809.057556,267.086273 809.112122,330.243195 
	C809.117004,335.902985 808.274719,340.896179 801.794312,343.766602 
	C780.070312,344.024384 759.034546,344.066803 737.998779,344.109253 
	C731.343872,341.371490 730.163269,335.830017 730.169189,329.431671 
	C730.222412,271.461731 730.195557,213.491684 730.206421,155.521667 
	C730.208984,141.785751 728.686646,128.384079 723.128540,115.580688 
	C712.163269,90.321907 688.799805,80.548653 663.728088,83.434624 
	C626.278748,87.745361 606.933960,117.309502 606.681152,147.541595 
	C606.317627,191.015335 606.509094,234.493759 606.473206,277.970184 
	C606.458801,295.461151 606.536133,312.952454 606.443115,330.442902 
	C606.391724,340.117950 603.656921,343.224762 593.898132,344.512726 
	C576.063599,344.671387 559.020325,344.758820 541.976990,344.846252 
z"/>
<path fill="#FEFEFE" opacity="1.000000" stroke="none" 
	d="
M245.038910,343.894592 
	C240.247055,341.485992 237.808167,337.555817 236.598923,332.341492 
	C234.537567,323.453003 231.969162,314.682098 229.402985,305.072357 
	C228.083359,306.531738 226.993942,307.628693 226.025406,308.823608 
	C206.715469,332.646851 181.228073,345.404205 151.379044,349.912354 
	C129.362732,353.237488 107.632233,351.680298 86.260582,344.959290 
	C47.643906,332.815094 22.286655,299.023651 20.899111,258.532654 
	C20.025217,233.030991 25.133848,209.569901 41.548199,189.476379 
	C56.631615,171.012131 76.688065,160.272339 99.293694,154.052002 
	C128.692886,145.962296 158.515274,146.011398 188.433136,150.520370 
	C198.234558,151.997574 207.941666,154.100601 218.889069,156.140503 
	C217.901825,143.536728 218.049820,131.095093 215.742661,119.126747 
	C211.663681,97.966995 195.127914,84.772568 171.191010,80.904259 
	C145.745743,76.792191 121.115883,81.165810 96.672806,87.494225 
	C87.215889,89.942657 77.993599,93.286621 68.627892,96.101044 
	C58.949501,99.009438 55.154560,97.005936 52.100597,87.472969 
	C48.047844,74.822273 44.031765,62.159588 40.063919,49.482025 
	C37.200348,40.332706 39.699223,34.969460 48.997646,32.351429 
	C64.494576,27.988163 80.010208,23.495224 95.771004,20.308285 
	C123.951820,14.609931 152.489746,12.359511 181.231781,15.007600 
	C208.818100,17.549210 234.947571,24.622639 257.321442,41.817558 
	C279.479797,58.846840 290.973724,82.054932 294.986053,109.311333 
	C295.518707,112.929939 295.774597,116.589294 296.225189,120.887024 
	C296.382172,121.714264 296.472626,121.884247 296.563110,122.054230 
	C296.572235,123.120155 296.581329,124.186073 296.676453,126.083954 
	C296.827301,187.784500 296.889221,248.653076 296.963837,309.521667 
	C296.968506,313.342316 297.072754,317.162872 297.130676,320.983459 
	C297.062561,324.635559 296.954865,328.287445 296.935638,331.939819 
	C296.906860,337.402710 294.878571,341.602051 288.840912,343.945496 
	C273.714600,343.996857 259.376740,343.945709 245.038910,343.894592 
M213.571793,250.963486 
	C218.446579,237.519043 218.303970,223.570236 217.872406,209.382339 
	C200.265106,205.157455 182.501114,202.956848 164.509308,203.369812 
	C151.167542,203.676025 137.957809,205.385498 125.590660,210.936920 
	C106.968735,219.296036 98.741577,233.866196 99.988525,256.049042 
	C100.941605,273.003967 111.722252,285.870148 130.117218,291.584167 
	C140.482803,294.804047 151.124466,294.928345 161.713196,292.907593 
	C186.104996,288.252716 204.170288,275.550415 213.571793,250.963486 
z"/>
<path fill="#080224" opacity="1.000000" stroke="none" 
	d="
M526.535950,141.353836 
	C527.060730,145.496658 527.603455,149.978638 527.606689,154.460999 
	C527.648071,212.086792 527.612488,269.712646 527.450195,327.726929 
	C526.869507,326.599396 526.056702,325.083801 526.055054,323.567291 
	C525.989502,263.762726 525.996460,203.958115 526.009033,144.153488 
	C526.009216,143.333359 526.200867,142.513275 526.535950,141.353836 
z"/>
<path fill="#080421" opacity="1.000000" stroke="none" 
	d="
M297.389679,320.661804 
	C297.072754,317.162872 296.968506,313.342316 296.963837,309.521667 
	C296.889221,248.653076 296.827301,187.784500 296.842773,126.452316 
	C297.598175,129.314224 298.752777,132.627853 298.835541,135.968048 
	C298.957916,140.905212 298.050720,145.860962 298.044769,150.809341 
	C297.979370,205.341095 298.007385,259.872955 297.988678,314.404785 
	C297.988007,316.383270 297.766998,318.361694 297.389679,320.661804 
z"/>
<path fill="#0E0B27" opacity="1.000000" stroke="none" 
	d="
M245.119492,344.294861 
	C259.376740,343.945709 273.714600,343.996857 288.520142,344.083923 
	C287.740479,344.744904 286.498566,345.899994 285.244812,345.913025 
	C272.706604,346.043060 260.166321,346.008881 247.627243,345.925049 
	C246.815491,345.919647 246.009018,345.123474 245.119492,344.294861 
z"/>
<path fill="#070420" opacity="1.000000" stroke="none" 
	d="
M738.110962,344.491455 
	C759.034546,344.066803 780.070312,344.024384 801.548828,344.007202 
	C800.852417,344.687317 799.716675,345.906250 798.573669,345.912994 
	C779.312073,346.026703 760.049561,346.003754 740.787537,345.938629 
	C739.931519,345.935730 739.077820,345.244324 738.110962,344.491455 
z"/>
<path fill="#070421" opacity="1.000000" stroke="none" 
	d="
M542.257141,345.163269 
	C559.020325,344.758820 576.063599,344.671387 593.563416,344.702606 
	C592.819397,345.213654 591.620605,345.941467 590.418152,345.947540 
	C575.258606,346.024536 560.098511,346.005249 544.938660,345.974854 
	C544.137878,345.973267 543.337708,345.652496 542.257141,345.163269 
z"/>
<path fill="#070421" opacity="1.000000" stroke="none" 
	d="
M533.952881,344.073425 
	C534.553833,343.874603 534.816406,344.023163 535.018982,344.599609 
	C534.583557,345.034943 534.099609,345.234344 533.615601,345.433777 
	C533.651428,345.032166 533.687256,344.630524 533.952881,344.073425 
z"/>
<path fill="#080421" opacity="1.000000" stroke="none" 
	d="
M296.776184,121.948341 
	C296.472626,121.884247 296.382172,121.714264 296.355408,121.262436 
	C296.609131,121.267876 296.799194,121.555161 296.776184,121.948341 
z"/>
<path fill="#090332" opacity="1.000000" stroke="none" 
	d="
M213.398346,251.315460 
	C204.170288,275.550415 186.104996,288.252716 161.713196,292.907593 
	C151.124466,294.928345 140.482803,294.804047 130.117218,291.584167 
	C111.722252,285.870148 100.941605,273.003967 99.988525,256.049042 
	C98.741577,233.866196 106.968735,219.296036 125.590660,210.936920 
	C137.957809,205.385498 151.167542,203.676025 164.509308,203.369812 
	C182.501114,202.956848 200.265106,205.157455 217.872406,209.382339 
	C218.303970,223.570236 218.446579,237.519043 213.398346,251.315460 
z"/>
</svg>