<svg xmlns="http://www.w3.org/2000/svg" xmlns:xlink="http://www.w3.org/1999/xlink" width="113" zoomAndPan="magnify" viewBox="0 0 84.75 84.749997" height="113" preserveAspectRatio="xMidYMid meet" version="1.0"><defs><g/><clipPath id="06ff6e4772"><path d="M 0 0 L 84.5 0 L 84.5 84.5 L 0 84.5 Z M 0 0 " clip-rule="nonzero"/></clipPath><clipPath id="b383765d87"><path d="M 7.007812 6.835938 L 78 6.835938 L 78 78.289062 L 7.007812 78.289062 Z M 7.007812 6.835938 " clip-rule="nonzero"/></clipPath><clipPath id="97003f605a"><path d="M 77.976562 69.109375 C 77.960938 67.265625 78.003906 65.332031 77.890625 63.585938 C 77.988281 63.160156 77.890625 61.597656 77.988281 60.914062 C 77.945312 60.433594 77.960938 59.949219 77.890625 59.777344 L 77.890625 59.308594 C 77.917969 54.253906 77.933594 49.367188 77.863281 44.296875 C 77.863281 42.875 77.847656 41.46875 77.847656 40.046875 C 77.820312 39.679688 77.804688 39.296875 77.789062 38.898438 C 77.777344 37.136719 77.804688 35.445312 77.804688 33.769531 C 77.832031 32.378906 77.847656 30.941406 77.820312 29.523438 C 77.820312 29.492188 77.832031 29.507812 77.832031 29.523438 C 77.789062 28.316406 77.761719 26.566406 77.789062 25.132812 L 77.734375 24.308594 L 77.734375 21.992188 C 77.761719 19.878906 77.789062 17.761719 77.789062 15.628906 C 77.789062 13 77.789062 10.34375 77.804688 7.703125 L 77.804688 7.0625 L 77.351562 7.0625 L 77.351562 7.449219 L 77.421875 7.449219 L 77.421875 7.703125 C 77.421875 7.988281 77.433594 8.285156 77.433594 8.585938 C 77.433594 9.011719 77.433594 9.449219 77.449219 9.890625 L 77.449219 12.546875 C 77.449219 14.265625 77.464844 15.984375 77.519531 17.660156 L 77.464844 17.546875 C 77.492188 17.972656 77.492188 18.429688 77.507812 18.882812 C 77.507812 19.136719 77.519531 19.394531 77.519531 19.664062 C 77.535156 21.285156 77.476562 22.972656 77.519531 24.59375 L 77.492188 24.4375 C 77.476562 26.722656 77.492188 28.941406 77.507812 31.128906 C 77.507812 32.164062 77.492188 33.203125 77.507812 34.238281 C 77.492188 36.523438 77.535156 38.058594 77.535156 40.359375 L 77.476562 40.417969 C 77.675781 44.28125 77.308594 48.527344 77.519531 52.546875 L 77.449219 52.265625 C 77.5625 52.890625 77.40625 54.691406 77.589844 54.464844 L 77.535156 55.175781 C 77.777344 57.902344 77.421875 60.148438 77.578125 63.5 L 77.535156 63.289062 C 77.5625 64.183594 77.589844 65.21875 77.550781 65.871094 C 77.550781 65.773438 77.535156 65.816406 77.519531 65.601562 C 77.351562 68.386719 77.535156 71.496094 77.535156 74.453125 L 77.449219 74.113281 C 77.476562 74.539062 77.492188 75.089844 77.492188 75.6875 L 77.492188 77.492188 C 77.449219 77.492188 77.421875 77.476562 77.363281 77.476562 L 77.335938 77.492188 L 77.207031 77.550781 L 77.121094 77.550781 C 76.894531 77.492188 76.9375 77.519531 76.839844 77.464844 C 75.675781 77.449219 75.519531 77.335938 74.695312 77.277344 C 74.695312 77.277344 74.707031 77.277344 74.695312 77.292969 C 74.125 77.394531 73.34375 77.335938 72.890625 77.320312 L 72.707031 77.277344 C 72.433594 77.179688 71.382812 77.464844 71.738281 77.308594 C 69.382812 77.351562 66.683594 77.351562 64.054688 77.351562 C 63.683594 77.421875 62.039062 77.351562 62.621094 77.464844 C 61.964844 77.320312 60.007812 77.292969 59.28125 77.292969 C 59.308594 77.277344 59.339844 77.265625 59.453125 77.265625 C 58.046875 77.082031 57.777344 77.433594 56.453125 77.207031 C 56.242188 77.363281 54.054688 77.164062 53.300781 77.335938 C 53.144531 77.308594 53.089844 77.265625 53.144531 77.25 C 50.757812 77.222656 48.128906 77.207031 46.128906 77.179688 C 44.410156 77.320312 41.964844 77.121094 40.472656 77.308594 C 39.253906 77.265625 37.265625 77.195312 35.558594 77.265625 L 35.730469 77.238281 C 33.796875 77.25 31.382812 77.25 30.0625 77.378906 C 29.492188 77.195312 28.65625 77.238281 27.816406 77.179688 C 26.523438 77.265625 23.925781 77.238281 21.949219 77.320312 C 21.652344 77.238281 20.332031 77.363281 20.230469 77.238281 C 18.257812 77.320312 16.125 77.363281 13.925781 77.378906 L 10.585938 77.378906 L 8.910156 77.363281 L 8.074219 77.351562 L 7.675781 77.351562 L 7.53125 77.335938 L 7.5625 77.335938 C 7.605469 75.746094 7.648438 74.183594 7.675781 72.675781 C 7.648438 72.40625 7.617188 72.136719 7.574219 71.851562 C 7.546875 70.007812 7.53125 67.960938 7.53125 65.914062 C 7.546875 65.445312 7.5625 64.964844 7.53125 64.464844 L 7.53125 64.152344 L 7.5625 64.082031 L 7.574219 63.316406 C 7.589844 63.328125 7.617188 63.328125 7.632812 63.386719 L 7.632812 63.542969 L 7.632812 63.402344 C 7.648438 63.445312 7.660156 63.5 7.660156 63.585938 L 7.660156 59.578125 C 7.675781 59.609375 7.6875 59.636719 7.675781 59.734375 C 7.804688 58.714844 7.660156 58.289062 7.660156 57.632812 L 7.660156 57.507812 C 7.660156 57.277344 7.6875 57.039062 7.730469 56.722656 C 7.589844 56.539062 7.746094 54.636719 7.632812 53.753906 L 7.632812 53.441406 C 7.660156 53.386719 7.675781 53.359375 7.6875 53.402344 C 7.71875 51.015625 7.730469 48.371094 7.761719 46.339844 C 7.617188 44.609375 7.816406 42.148438 7.632812 40.671875 C 7.675781 39.4375 7.746094 37.449219 7.675781 35.730469 L 7.703125 35.898438 C 7.6875 33.953125 7.6875 31.539062 7.5625 30.203125 C 7.746094 29.636719 7.703125 28.796875 7.761719 27.960938 C 7.675781 26.667969 7.703125 24.054688 7.617188 22.078125 C 7.703125 21.78125 7.589844 20.445312 7.703125 20.347656 C 7.617188 18.371094 7.574219 16.226562 7.5625 14.011719 L 7.5625 10.65625 L 7.574219 8.980469 L 7.589844 8.144531 L 7.589844 7.746094 L 7.605469 7.605469 L 7.746094 7.605469 C 9.378906 7.648438 10.984375 7.6875 12.53125 7.730469 C 13.273438 7.660156 14.109375 7.519531 14.863281 7.433594 C 14.933594 7.449219 14.933594 7.460938 14.761719 7.460938 C 15.84375 7.433594 16.835938 7.5625 17.917969 7.53125 C 17.902344 7.546875 17.902344 7.546875 17.730469 7.574219 C 18.742188 7.519531 19.804688 7.675781 21 7.574219 L 21.070312 7.605469 L 21.824219 7.5625 C 21.808594 7.589844 21.78125 7.648438 21.554688 7.648438 C 30.730469 7.6875 40.191406 7.492188 49.609375 7.519531 L 49.253906 7.5625 L 51.085938 7.492188 C 51.070312 7.503906 50.984375 7.519531 50.902344 7.53125 C 53.246094 7.605469 55.671875 7.492188 57.945312 7.503906 C 57.933594 7.519531 57.589844 7.5625 57.902344 7.589844 C 59.59375 7.476562 60.617188 7.730469 61.453125 7.503906 C 61.539062 7.519531 61.582031 7.5625 61.414062 7.589844 C 66.113281 7.519531 70.929688 7.519531 75.660156 7.5625 C 76.199219 7.53125 76.769531 7.519531 77.335938 7.492188 L 77.335938 7.09375 C 74.226562 7.078125 71.101562 7.078125 67.976562 7.0625 C 58.015625 7.007812 49.296875 6.867188 39.59375 7.136719 C 39.609375 7.121094 39.523438 7.105469 39.777344 7.09375 C 36.980469 7.136719 34.4375 7.0625 31.796875 7.105469 L 31.808594 7.09375 C 25.304688 7.25 18.230469 7.0625 11.921875 7.234375 L 7.234375 7.234375 L 7.234375 7.746094 C 7.234375 9.25 7.25 10.785156 7.25 12.335938 C 7.105469 17.503906 7.148438 22.605469 7.25 27.746094 C 7.320312 34.097656 7.121094 40.246094 7.179688 46.582031 C 7.105469 51.425781 7.261719 56.453125 7.304688 61.441406 C 7.25 63.300781 7.179688 65.21875 7.191406 67.136719 L 7.234375 66.996094 C 7.179688 67.546875 7.191406 68.160156 7.234375 68.742188 C 7.21875 69.421875 7.21875 70.121094 7.234375 70.816406 C 7.234375 70.832031 7.234375 70.859375 7.21875 70.871094 L 7.207031 70.730469 C 7.164062 71 7.191406 71.3125 7.234375 71.625 C 7.234375 71.894531 7.25 72.152344 7.25 72.421875 L 7.292969 74.609375 C 7.261719 75.164062 7.40625 76.539062 7.191406 76.582031 C 7.191406 76.101562 7.09375 77.335938 7.035156 76.257812 C 7.023438 76.382812 7.023438 76.695312 7.023438 77.023438 C 7.023438 77.121094 7.035156 77.222656 7.035156 77.308594 C 7.050781 77.507812 7.078125 77.648438 7.105469 77.605469 C 7.21875 77.71875 7.304688 78.214844 7.390625 77.535156 L 7.703125 77.535156 C 8.042969 77.535156 8.386719 77.535156 8.726562 77.550781 C 9.195312 77.5625 9.648438 77.578125 10.074219 77.589844 C 18.117188 77.890625 25.898438 77.707031 33.941406 77.519531 C 40.757812 77.621094 47.578125 77.394531 54.210938 77.535156 C 50.546875 77.5625 46.921875 77.621094 43.144531 77.664062 C 43.230469 77.648438 43.273438 77.632812 43.359375 77.621094 C 43.074219 77.648438 42.761719 77.691406 42.433594 77.675781 C 42.347656 77.664062 42.519531 77.648438 42.632812 77.632812 C 41.382812 77.519531 38.984375 77.707031 38.203125 77.621094 C 37.847656 77.632812 37.691406 77.675781 37.890625 77.71875 C 33.285156 77.746094 28.355469 77.777344 23.65625 77.863281 C 23.429688 77.847656 23.386719 77.820312 23.457031 77.777344 C 19.449219 77.960938 15.246094 77.890625 11.140625 77.863281 C 10.984375 77.902344 11.554688 77.917969 11.15625 77.960938 C 12.476562 78.019531 13.570312 77.847656 14.761719 77.933594 L 14.605469 77.976562 C 15.472656 78.003906 14.777344 77.863281 15.6875 77.917969 C 16.042969 77.960938 15.601562 77.976562 15.757812 77.988281 C 17.605469 77.976562 19.535156 78.019531 21.285156 77.902344 C 21.710938 78.003906 23.273438 77.902344 23.953125 78.003906 C 24.4375 77.960938 24.90625 77.976562 25.089844 77.902344 C 31.566406 77.960938 38.1875 77.863281 44.820312 77.863281 C 47.933594 77.664062 51.640625 77.902344 55.332031 77.832031 C 55.359375 77.832031 55.347656 77.847656 55.332031 77.847656 C 56.539062 77.804688 58.289062 77.777344 59.722656 77.804688 L 60.945312 77.71875 C 63.683594 77.777344 66.453125 77.804688 69.226562 77.804688 L 76.371094 77.804688 C 76.328125 77.820312 76.199219 77.832031 75.929688 77.847656 C 76.144531 77.863281 76.953125 77.863281 77.351562 77.820312 C 77.40625 77.820312 77.464844 77.804688 77.507812 77.804688 L 77.789062 77.804688 L 77.789062 77.632812 C 77.875 77.589844 77.71875 77.605469 77.789062 77.519531 L 77.789062 74.097656 C 77.847656 74.308594 77.761719 75.019531 77.863281 74.921875 C 77.902344 74.425781 77.832031 74.210938 77.789062 74.097656 C 77.789062 72.066406 77.804688 70.019531 77.804688 67.988281 C 77.820312 66.695312 77.820312 65.417969 77.832031 64.152344 C 77.902344 67.308594 77.847656 70.53125 77.832031 73.699219 C 77.875 73.855469 77.890625 73.289062 77.933594 73.683594 C 77.988281 72.363281 77.820312 71.269531 77.902344 70.078125 L 77.945312 70.234375 C 77.976562 69.367188 77.832031 70.0625 77.890625 69.152344 C 77.945312 68.828125 77.960938 69.28125 77.976562 69.109375 M 72.691406 77.507812 L 73.003906 77.507812 C 72.933594 77.492188 72.832031 77.492188 72.691406 77.507812 " clip-rule="nonzero"/></clipPath></defs><g clip-path="url(#06ff6e4772)"><path fill="#ffffff" d="M 0 0 L 84.75 0 L 84.75 84.75 L 0 84.75 Z M 0 0 " fill-opacity="1" fill-rule="nonzero"/><path fill="#080232" d="M 0 0 L 84.75 0 L 84.75 84.75 L 0 84.75 Z M 0 0 " fill-opacity="1" fill-rule="nonzero"/></g><g clip-path="url(#b383765d87)"><g clip-path="url(#97003f605a)"><path fill="#ffffff" d="M 7.007812 6.980469 L 78.03125 6.980469 L 78.03125 78.003906 L 7.007812 78.003906 Z M 7.007812 6.980469 " fill-opacity="1" fill-rule="nonzero"/></g></g><g fill="#ffffff" fill-opacity="1"><g transform="translate(9.502322, 54.580577)"><g><path d="M 12.660156 -25.386719 C 9.910156 -25.386719 6.953125 -24.871094 4.15625 -23.957031 C 3.570312 -23.742188 3.335938 -23.34375 3.546875 -22.734375 L 4.53125 -19.632812 C 4.71875 -19.023438 5.144531 -18.859375 5.753906 -19.070312 C 7.914062 -19.867188 10.167969 -20.386719 12.117188 -20.386719 C 15.03125 -20.386719 17.238281 -19.234375 17.238281 -16.015625 L 17.238281 -14.445312 C 15.453125 -14.890625 13.691406 -15.125 12.023438 -15.125 C 6.433594 -15.125 2.089844 -12.449219 2.089844 -7.09375 C 2.089844 -1.925781 6.035156 0.539062 10.449219 0.539062 C 13.128906 0.539062 16.109375 -0.351562 18.109375 -3.054688 L 18.695312 -0.84375 C 18.8125 -0.257812 19.1875 0 19.75 0 L 22.335938 0 C 22.96875 0 23.296875 -0.328125 23.296875 -0.964844 L 23.296875 -16.277344 C 23.296875 -22.921875 18.507812 -25.386719 12.660156 -25.386719 Z M 11.90625 -3.875 C 9.886719 -3.875 8.148438 -4.910156 8.148438 -7.1875 C 8.148438 -9.816406 10.425781 -10.851562 13.433594 -10.851562 C 14.65625 -10.851562 15.921875 -10.6875 17.238281 -10.378906 L 17.238281 -9.324219 C 17.238281 -5.238281 14.136719 -3.875 11.90625 -3.875 Z M 11.90625 -3.875 "/></g></g></g><g fill="#ffffff" fill-opacity="1"><g transform="translate(31.654255, 54.580577)"><g><path d="M 31.496094 -25.386719 C 28.347656 -25.386719 25.058594 -24.003906 23.015625 -21.464844 C 21.582031 -23.933594 18.929688 -25.386719 15.96875 -25.386719 C 13.457031 -25.386719 10.828125 -24.496094 8.359375 -22.03125 L 7.84375 -24.027344 C 7.703125 -24.613281 7.328125 -24.871094 6.789062 -24.871094 L 4.179688 -24.871094 C 3.570312 -24.871094 3.21875 -24.519531 3.21875 -23.910156 L 3.21875 -0.964844 C 3.21875 -0.328125 3.570312 0 4.179688 0 L 8.3125 0 C 8.949219 0 9.277344 -0.328125 9.277344 -0.964844 L 9.277344 -14.867188 C 9.277344 -17.894531 11.273438 -20.082031 14.304688 -20.082031 C 17.402344 -20.082031 18.859375 -17.800781 18.859375 -14.773438 L 18.859375 -0.964844 C 18.859375 -0.328125 19.1875 0 19.820312 0 L 23.957031 0 C 24.589844 0 24.917969 -0.328125 24.917969 -0.964844 L 24.917969 -14.867188 C 24.917969 -17.894531 26.960938 -20.082031 29.945312 -20.082031 C 32.925781 -20.082031 34.429688 -17.800781 34.429688 -14.773438 L 34.429688 -0.964844 C 34.429688 -0.328125 34.78125 0 35.394531 0 L 39.527344 0 C 40.160156 0 40.488281 -0.328125 40.488281 -0.964844 L 40.488281 -15.78125 C 40.488281 -21.183594 37.058594 -25.386719 31.496094 -25.386719 Z M 31.496094 -25.386719 "/></g></g></g><g fill="#ffffff" fill-opacity="1"><g transform="translate(37.545488, 60.908208)"><g><path d="M 6.117188 -4.835938 C 5.40625 -4.835938 4.777344 -4.417969 4.476562 -3.800781 C 4.199219 -4.410156 3.59375 -4.835938 2.890625 -4.835938 C 2.265625 -4.835938 1.726562 -4.503906 1.414062 -4 L 1.414062 -4.742188 L 0.882812 -4.742188 L 0.882812 0 L 1.414062 0 L 1.414062 -2.996094 C 1.414062 -3.746094 2.019531 -4.351562 2.769531 -4.351562 C 3.507812 -4.351562 4.105469 -3.746094 4.105469 -2.996094 L 4.105469 0 L 4.644531 0 L 4.644531 -2.996094 C 4.644531 -3.746094 5.242188 -4.351562 6 -4.351562 C 6.730469 -4.351562 7.328125 -3.746094 7.328125 -2.996094 L 7.328125 0 L 7.871094 0 L 7.871094 -3.042969 C 7.871094 -4.03125 7.082031 -4.835938 6.117188 -4.835938 Z M 6.117188 -4.835938 "/></g></g></g><g fill="#ffffff" fill-opacity="1"><g transform="translate(46.170966, 60.908208)"><g><path d="M 4.171875 -4.742188 L 4.171875 -1.820312 C 4.171875 -1.035156 3.527344 -0.398438 2.722656 -0.398438 C 1.933594 -0.398438 1.300781 -1.035156 1.300781 -1.820312 L 1.300781 -4.742188 L 0.757812 -4.742188 L 0.757812 -1.773438 C 0.757812 -0.738281 1.582031 0.09375 2.605469 0.09375 C 3.261719 0.09375 3.839844 -0.257812 4.171875 -0.785156 L 4.171875 0 L 4.710938 0 L 4.710938 -4.742188 Z M 4.171875 -4.742188 "/></g></g></g><g fill="#ffffff" fill-opacity="1"><g transform="translate(51.76331, 60.908208)"><g><path d="M 2.066406 0.09375 C 2.96875 0.09375 3.582031 -0.464844 3.601562 -1.195312 C 3.621094 -1.945312 3.1875 -2.277344 2.671875 -2.492188 C 1.980469 -2.796875 1.148438 -2.902344 1.183594 -3.613281 C 1.203125 -4.171875 1.714844 -4.390625 2.179688 -4.378906 C 2.53125 -4.363281 2.902344 -4.21875 3.136719 -3.953125 L 3.386719 -4.277344 C 3.128906 -4.578125 2.589844 -4.835938 2.066406 -4.835938 C 1.421875 -4.835938 0.703125 -4.445312 0.671875 -3.554688 C 0.652344 -2.910156 1.015625 -2.589844 1.449219 -2.390625 C 2.160156 -2.027344 3.136719 -1.953125 3.101562 -1.195312 C 3.082031 -0.652344 2.578125 -0.359375 2.027344 -0.371094 C 1.488281 -0.378906 0.929688 -0.671875 0.75 -1.035156 L 0.445312 -0.710938 C 0.75 -0.238281 1.414062 0.09375 2.066406 0.09375 Z M 2.066406 0.09375 "/></g></g></g><g fill="#ffffff" fill-opacity="1"><g transform="translate(55.829605, 60.908208)"><g><path d="M 1.195312 -5.652344 C 1.421875 -5.652344 1.621094 -5.839844 1.621094 -6.078125 C 1.621094 -6.316406 1.421875 -6.503906 1.195312 -6.503906 C 0.957031 -6.503906 0.769531 -6.316406 0.769531 -6.078125 C 0.769531 -5.839844 0.957031 -5.652344 1.195312 -5.652344 Z M 0.917969 0 L 1.460938 0 L 1.460938 -4.742188 L 0.917969 -4.742188 Z M 0.917969 0 "/></g></g></g><g fill="#ffffff" fill-opacity="1"><g transform="translate(58.218199, 60.908208)"><g><path d="M 2.730469 0.09375 C 3.234375 0.09375 3.621094 -0.0664062 3.964844 -0.351562 L 3.964844 -0.882812 C 3.660156 -0.570312 3.269531 -0.378906 2.730469 -0.378906 C 1.640625 -0.378906 1.082031 -1.25 1.082031 -2.371094 C 1.082031 -3.488281 1.640625 -4.363281 2.730469 -4.363281 C 3.269531 -4.363281 3.648438 -4.171875 3.964844 -3.847656 L 3.964844 -4.390625 C 3.613281 -4.675781 3.234375 -4.835938 2.730469 -4.835938 C 1.316406 -4.835938 0.550781 -3.78125 0.550781 -2.371094 C 0.550781 -0.957031 1.316406 0.09375 2.730469 0.09375 Z M 2.730469 0.09375 "/></g></g></g><g fill="#ffffff" fill-opacity="1"><g transform="translate(62.673117, 60.908208)"><g><path d="M 4.710938 -0.390625 C 4.464844 -0.390625 4.332031 -0.519531 4.332031 -0.769531 L 4.332031 -3.070312 C 4.332031 -4.164062 3.679688 -4.835938 2.523438 -4.835938 C 1.515625 -4.835938 0.863281 -4.324219 0.664062 -3.574219 L 1.148438 -3.535156 C 1.355469 -4.085938 1.839844 -4.410156 2.511719 -4.410156 C 3.328125 -4.410156 3.800781 -3.925781 3.820312 -3.195312 C 3.765625 -2.871094 3.507812 -2.796875 3.214844 -2.796875 L 2.359375 -2.796875 C 1.089844 -2.796875 0.464844 -2.238281 0.464844 -1.355469 C 0.464844 -0.464844 1.089844 0.09375 1.992188 0.09375 C 2.703125 0.09375 3.328125 -0.257812 3.820312 -0.824219 L 3.820312 -0.703125 C 3.859375 -0.246094 4.105469 0 4.558594 0 L 4.808594 0 L 4.808594 -0.390625 Z M 2.125 -0.351562 C 1.480469 -0.351562 1.023438 -0.75 1.023438 -1.394531 C 1.023438 -2.019531 1.449219 -2.425781 2.378906 -2.425781 L 3.234375 -2.425781 C 3.433594 -2.425781 3.679688 -2.472656 3.820312 -2.691406 L 3.820312 -1.433594 C 3.441406 -0.738281 2.769531 -0.351562 2.125 -0.351562 Z M 2.125 -0.351562 "/></g></g></g><g fill="#ffffff" fill-opacity="1"><g transform="translate(67.791531, 60.908208)"><g><path d="M 2.683594 -4.835938 C 1.316406 -4.835938 0.550781 -3.765625 0.550781 -2.371094 C 0.550781 -0.984375 1.308594 0.09375 2.710938 0.09375 C 3.566406 0.09375 4.265625 -0.3125 4.675781 -1.003906 L 4.191406 -1.089844 C 3.839844 -0.605469 3.300781 -0.332031 2.683594 -0.332031 C 1.640625 -0.332031 1.117188 -1.109375 1.082031 -2.191406 L 4.722656 -2.191406 L 4.722656 -2.304688 C 4.742188 -3.773438 4.039062 -4.835938 2.683594 -4.835938 Z M 2.683594 -4.398438 C 3.699219 -4.398438 4.171875 -3.648438 4.21875 -2.570312 L 1.082031 -2.570312 C 1.117188 -3.621094 1.667969 -4.398438 2.683594 -4.398438 Z M 2.683594 -4.398438 "/></g></g></g><g fill="#ffffff" fill-opacity="1"><g transform="translate(11.966162, 60.908208)"><g><path d="M 4.710938 -0.390625 C 4.464844 -0.390625 4.332031 -0.519531 4.332031 -0.769531 L 4.332031 -3.070312 C 4.332031 -4.164062 3.679688 -4.835938 2.523438 -4.835938 C 1.515625 -4.835938 0.863281 -4.324219 0.664062 -3.574219 L 1.148438 -3.535156 C 1.355469 -4.085938 1.839844 -4.410156 2.511719 -4.410156 C 3.328125 -4.410156 3.800781 -3.925781 3.820312 -3.195312 C 3.765625 -2.871094 3.507812 -2.796875 3.214844 -2.796875 L 2.359375 -2.796875 C 1.089844 -2.796875 0.464844 -2.238281 0.464844 -1.355469 C 0.464844 -0.464844 1.089844 0.09375 1.992188 0.09375 C 2.703125 0.09375 3.328125 -0.257812 3.820312 -0.824219 L 3.820312 -0.703125 C 3.859375 -0.246094 4.105469 0 4.558594 0 L 4.808594 0 L 4.808594 -0.390625 Z M 2.125 -0.351562 C 1.480469 -0.351562 1.023438 -0.75 1.023438 -1.394531 C 1.023438 -2.019531 1.449219 -2.425781 2.378906 -2.425781 L 3.234375 -2.425781 C 3.433594 -2.425781 3.679688 -2.472656 3.820312 -2.691406 L 3.820312 -1.433594 C 3.441406 -0.738281 2.769531 -0.351562 2.125 -0.351562 Z M 2.125 -0.351562 "/></g></g></g><g fill="#ffffff" fill-opacity="1"><g transform="translate(17.084576, 60.908208)"><g><path d="M 6.117188 -4.835938 C 5.40625 -4.835938 4.777344 -4.417969 4.476562 -3.800781 C 4.199219 -4.410156 3.59375 -4.835938 2.890625 -4.835938 C 2.265625 -4.835938 1.726562 -4.503906 1.414062 -4 L 1.414062 -4.742188 L 0.882812 -4.742188 L 0.882812 0 L 1.414062 0 L 1.414062 -2.996094 C 1.414062 -3.746094 2.019531 -4.351562 2.769531 -4.351562 C 3.507812 -4.351562 4.105469 -3.746094 4.105469 -2.996094 L 4.105469 0 L 4.644531 0 L 4.644531 -2.996094 C 4.644531 -3.746094 5.242188 -4.351562 6 -4.351562 C 6.730469 -4.351562 7.328125 -3.746094 7.328125 -2.996094 L 7.328125 0 L 7.871094 0 L 7.871094 -3.042969 C 7.871094 -4.03125 7.082031 -4.835938 6.117188 -4.835938 Z M 6.117188 -4.835938 "/></g></g></g><g fill="#ffffff" fill-opacity="1"><g transform="translate(25.710054, 60.908208)"><g><path d="M 1.195312 -5.652344 C 1.421875 -5.652344 1.621094 -5.839844 1.621094 -6.078125 C 1.621094 -6.316406 1.421875 -6.503906 1.195312 -6.503906 C 0.957031 -6.503906 0.769531 -6.316406 0.769531 -6.078125 C 0.769531 -5.839844 0.957031 -5.652344 1.195312 -5.652344 Z M 0.917969 0 L 1.460938 0 L 1.460938 -4.742188 L 0.917969 -4.742188 Z M 0.917969 0 "/></g></g></g><g fill="#ffffff" fill-opacity="1"><g transform="translate(28.098648, 60.908208)"><g><path d="M 2.730469 0.09375 C 3.234375 0.09375 3.621094 -0.0664062 3.964844 -0.351562 L 3.964844 -0.882812 C 3.660156 -0.570312 3.269531 -0.378906 2.730469 -0.378906 C 1.640625 -0.378906 1.082031 -1.25 1.082031 -2.371094 C 1.082031 -3.488281 1.640625 -4.363281 2.730469 -4.363281 C 3.269531 -4.363281 3.648438 -4.171875 3.964844 -3.847656 L 3.964844 -4.390625 C 3.613281 -4.675781 3.234375 -4.835938 2.730469 -4.835938 C 1.316406 -4.835938 0.550781 -3.78125 0.550781 -2.371094 C 0.550781 -0.957031 1.316406 0.09375 2.730469 0.09375 Z M 2.730469 0.09375 "/></g></g></g><g fill="#ffffff" fill-opacity="1"><g transform="translate(32.553566, 60.908208)"><g><path d="M 1.195312 -5.652344 C 1.421875 -5.652344 1.621094 -5.839844 1.621094 -6.078125 C 1.621094 -6.316406 1.421875 -6.503906 1.195312 -6.503906 C 0.957031 -6.503906 0.769531 -6.316406 0.769531 -6.078125 C 0.769531 -5.839844 0.957031 -5.652344 1.195312 -5.652344 Z M 0.917969 0 L 1.460938 0 L 1.460938 -4.742188 L 0.917969 -4.742188 Z M 0.917969 0 "/></g></g></g></svg>