<?xml version="1.0" standalone="no"?>
<!DOCTYPE svg PUBLIC "-//W3C//DTD SVG 20010904//EN"
 "http://www.w3.org/TR/2001/REC-SVG-20010904/DTD/svg10.dtd">
<svg version="1.0" xmlns="http://www.w3.org/2000/svg"
 width="100.000000pt" height="100.000000pt" viewBox="0 0 100.000000 100.000000"
 preserveAspectRatio="xMidYMid meet">
<metadata>
Created by potrace 1.14, written by Peter Selinger 2001-2017
</metadata>
<g transform="translate(0.000000,100.000000) scale(0.100000,-0.100000)"
fill="#000000" stroke="none">
<path d="M0 500 l0 -500 500 0 500 0 0 500 0 500 -500 0 -500 0 0 -500z m307
164 c51 -32 58 -58 58 -204 l0 -135 -31 -3 c-25 -2 -33 1 -37 18 -5 20 -6 20
-43 -5 -84 -57 -194 -8 -194 86 0 76 82 129 177 114 37 -5 43 -4 43 12 0 10
-7 29 -16 42 -15 21 -22 23 -78 18 -34 -2 -67 -6 -75 -8 -17 -5 -37 49 -24 62
29 29 177 31 220 3z m316 13 c18 -8 38 -21 46 -31 13 -16 15 -15 35 3 30 28
95 43 136 31 78 -22 103 -86 98 -256 l-3 -99 -42 -3 -43 -3 0 119 c0 106 -2
122 -21 146 -26 33 -62 34 -94 1 -24 -23 -25 -30 -25 -145 l0 -120 -45 0 -45
0 0 125 c0 112 -2 127 -20 145 -25 25 -61 26 -91 1 -23 -18 -24 -27 -27 -145
l-4 -126 -39 0 -39 0 0 180 0 180 29 0 c21 0 32 -6 36 -21 6 -19 8 -19 25 -4
17 15 60 32 88 34 7 1 27 -5 45 -12z"/>
<path d="M195 473 c-30 -8 -45 -23 -45 -47 0 -52 74 -65 109 -20 23 30 28 64
9 64 -7 0 -22 2 -33 4 -11 2 -29 2 -40 -1z"/>
</g>
</svg>
